<svg width="71" height="66" viewBox="0 0 71 66" fill="none" xmlns="http://www.w3.org/2000/svg">
    <path d="M40.0946 4.3855e-05H7.7671C7.50841 -0.00230073 7.2577 0.0894358 7.0616 0.258166L0.562827 5.79902C0.406593 5.9641 0.285598 6.15926 0.207205 6.37261C0.108832 6.53791 0.0535867 6.72529 0.046583 6.91752V53.0627C-0.0348044 53.5302 -0.00929606 54.0099 0.121152 54.4661C0.251601 54.9223 0.483631 55.343 0.799838 55.6968C1.11605 56.0505 1.50823 56.3281 1.94698 56.5087C2.38574 56.6892 2.85968 56.7681 3.33327 56.7394H17.0994C17.377 56.7194 17.6367 56.5949 17.8263 56.3911C18.0159 56.1873 18.1212 55.9194 18.1212 55.641C18.1212 55.3627 18.0159 55.0947 17.8263 54.8909C17.6367 54.6871 17.377 54.5627 17.0994 54.5426H3.33327C2.51877 54.5426 2.24344 54.5426 2.24344 53.0627V8.66122L35.5116 8.7186V25.5706C35.5317 25.8482 35.6561 26.108 35.8599 26.2975C36.0637 26.4871 36.3317 26.5925 36.61 26.5925C36.8883 26.5925 37.1564 26.4871 37.3601 26.2975C37.5639 26.108 37.6884 25.8482 37.7084 25.5706V8.7186C37.7122 8.42415 37.6577 8.13184 37.548 7.85857C37.4382 7.58529 37.2755 7.33644 37.0692 7.12635C36.8628 6.91627 36.6169 6.74911 36.3456 6.63451C36.0744 6.51991 35.7831 6.46015 35.4887 6.45866H3.14972L8.16862 2.21409H40.0946C40.5596 2.2156 41.0051 2.40101 41.334 2.72984C41.6628 3.05868 41.8482 3.50423 41.8497 3.96927V24.7905C41.8388 24.9415 41.8591 25.093 41.9094 25.2357C41.9596 25.3785 42.0388 25.5093 42.1419 25.6201C42.2449 25.7309 42.3697 25.8192 42.5084 25.8797C42.6472 25.9401 42.7969 25.9713 42.9482 25.9713C43.0995 25.9713 43.2492 25.9401 43.3879 25.8797C43.5266 25.8192 43.6514 25.7309 43.7545 25.6201C43.8575 25.5093 43.9367 25.3785 43.9869 25.2357C44.0372 25.093 44.0575 24.9415 44.0466 24.7905V3.96927C44.0489 3.44883 43.9483 2.93309 43.7507 2.45162C43.5531 1.97015 43.2624 1.53244 42.8952 1.16364C42.528 0.794836 42.0915 0.502205 41.6109 0.302522C41.1303 0.102839 40.615 3.89217e-05 40.0946 4.3855e-05Z" fill="#D7DF23"/>
    <path d="M54.8933 49.0127C54.6027 49.0127 54.3241 49.1281 54.1186 49.3336C53.9132 49.539 53.7977 49.8177 53.7977 50.1082V57.7829C53.7966 57.9944 53.7455 58.2028 53.6486 58.3909C53.0291 59.5725 50.0981 63.4212 38.3854 63.4212C26.6727 63.4212 23.7417 59.5782 23.1165 58.3966C23.0189 58.2067 22.9677 57.9964 22.9673 57.7829V50.5786C22.9473 50.301 22.8228 50.0413 22.619 49.8517C22.4152 49.6621 22.1473 49.5567 21.8689 49.5567C21.5906 49.5567 21.3226 49.6621 21.1188 49.8517C20.915 50.0413 20.7906 50.301 20.7705 50.5786V57.7829C20.77 58.3515 20.9057 58.9121 21.1663 59.4176C22.1471 61.2818 25.7951 65.6181 38.3739 65.6181C50.9527 65.6181 54.6065 61.2875 55.5816 59.4233C55.8454 58.917 55.9813 58.3538 55.9774 57.7829V50.1082C55.9777 49.9635 55.9495 49.8201 55.8944 49.6862C55.8393 49.5524 55.7583 49.4307 55.6562 49.3282C55.4455 49.128 55.1667 49.0152 54.8761 49.0127H54.8933Z" fill="#3CAA3B"/>
    <path d="M69.5598 38.1494L40.5018 28.4442C40.2804 28.3695 40.0406 28.3695 39.8192 28.4442L7.09025 38.9352C6.87078 39.0046 6.67911 39.1421 6.54299 39.3277C6.40687 39.5133 6.33335 39.7374 6.33311 39.9676C6.32995 40.199 6.39974 40.4254 6.53256 40.6149C6.66538 40.8043 6.85446 40.9471 7.07303 41.023L37.674 51.3476C37.7891 51.3839 37.9089 51.4032 38.0296 51.405C38.1546 51.4041 38.2786 51.3828 38.3967 51.3419L60.8642 43.3117V48.5772C60.1065 48.8048 59.4421 49.27 58.969 49.9042C58.496 50.5384 58.2394 51.3079 58.2372 52.099V54.3131C58.2175 54.8116 58.2988 55.3089 58.476 55.7752C58.6532 56.2415 58.9228 56.6673 59.2685 57.0269C59.6143 57.3865 60.0291 57.6726 60.4881 57.868C60.9471 58.0635 61.4408 58.1642 61.9397 58.1642C62.4385 58.1642 62.9323 58.0635 63.3913 57.868C63.8503 57.6726 64.2651 57.3865 64.6108 57.0269C64.9566 56.6673 65.2261 56.2415 65.4033 55.7752C65.5806 55.3089 65.6618 54.8116 65.6422 54.3131V52.099C65.64 51.3151 65.3888 50.5521 64.9249 49.9201C64.461 49.2882 63.8083 48.8199 63.0611 48.5829V42.5488L69.577 40.2544C69.7925 40.1769 69.9785 40.0342 70.109 39.846C70.2396 39.6579 70.3083 39.4337 70.3055 39.2047C70.3053 38.976 70.2324 38.7533 70.0973 38.5688C69.9623 38.3842 69.772 38.2474 69.5541 38.178L69.5598 38.1494ZM63.4396 54.3418C63.4523 54.5473 63.4228 54.7533 63.3529 54.947C63.2829 55.1407 63.1741 55.318 63.033 55.468C62.892 55.6181 62.7217 55.7377 62.5327 55.8194C62.3436 55.9011 62.1399 55.9433 61.9339 55.9433C61.728 55.9433 61.5242 55.9011 61.3352 55.8194C61.1462 55.7377 60.9759 55.6181 60.8349 55.468C60.6938 55.318 60.5849 55.1407 60.515 54.947C60.4451 54.7533 60.4156 54.5473 60.4283 54.3418V52.1277C60.4156 51.9222 60.4451 51.7162 60.515 51.5225C60.5849 51.3288 60.6938 51.1515 60.8349 51.0014C60.9759 50.8514 61.1462 50.7318 61.3352 50.6501C61.5242 50.5684 61.728 50.5262 61.9339 50.5262C62.1399 50.5262 62.3436 50.5684 62.5327 50.6501C62.7217 50.7318 62.892 50.8514 63.033 51.0014C63.1741 51.1515 63.2829 51.3288 63.3529 51.5225C63.4228 51.7162 63.4523 51.9222 63.4396 52.1277V54.3418ZM61.8049 40.6674L38.5 38.1551C38.3569 38.1397 38.2121 38.1525 38.074 38.193C37.9358 38.2336 37.807 38.3008 37.6949 38.3911C37.5828 38.4814 37.4895 38.5929 37.4205 38.7192C37.3515 38.8455 37.308 38.9842 37.2926 39.1273C37.2771 39.2705 37.29 39.4152 37.3305 39.5533C37.371 39.6915 37.4383 39.8203 37.5286 39.9324C37.6189 40.0445 37.7304 40.1377 37.8567 40.2068C37.983 40.2758 38.1217 40.3193 38.2648 40.3347L57.0556 42.3652L38.0182 49.1623L10.9333 39.9848L40.1404 30.6411L65.8429 39.2449L61.8049 40.6674Z" fill="#3CAA3B"/>
</svg>
