<svg width="79" height="77" viewBox="0 0 79 77" fill="none" xmlns="http://www.w3.org/2000/svg">
    <path d="M27.4202 76.6596C27.9556 76.6596 28.3896 76.2268 28.3896 75.693C28.3896 75.1592 27.9556 74.7266 27.4202 74.7266H18.7877C18.2523 74.7266 17.8183 75.1592 17.8183 75.693C17.8183 76.2268 18.2523 76.6596 18.7877 76.6596H27.4202Z" fill="#D7DF23"/>
    <path d="M65.9655 76.6542C66.5008 76.6542 66.9348 76.2215 66.9348 75.6877C66.9348 75.1539 66.5008 74.7212 65.9655 74.7212H57.3329C56.7976 74.7212 56.3636 75.1539 56.3636 75.6877C56.3636 76.2215 56.7976 76.6542 57.3329 76.6542H65.9655Z" fill="#D7DF23"/>
    <path d="M61.652 15.1081C61.4598 15.1093 61.2715 15.0532 61.1112 14.9472C60.951 14.8411 60.8259 14.6897 60.7518 14.5124C60.6777 14.335 60.658 14.1397 60.6953 13.9511C60.7325 13.7625 60.8249 13.5892 60.9608 13.4533C61.0967 13.3174 61.27 13.225 61.4585 13.1878C61.6471 13.1506 61.8425 13.1702 62.0199 13.2443C62.1972 13.3184 62.3485 13.4435 62.4546 13.6038C62.5607 13.7641 62.6167 13.9523 62.6156 14.1445C62.6141 14.3996 62.5121 14.6439 62.3317 14.8242C62.1513 15.0046 61.9071 15.1066 61.652 15.1081Z" fill="#D7DF23"/>
    <path d="M61.652 9.85426C61.4598 9.8554 61.2715 9.79933 61.1112 9.69326C60.951 9.58718 60.8259 9.43587 60.7518 9.25851C60.6777 9.08115 60.658 8.88575 60.6953 8.69718C60.7325 8.50861 60.8249 8.33537 60.9608 8.19945C61.0967 8.06354 61.27 7.9711 61.4585 7.93388C61.6471 7.89666 61.8425 7.91634 62.0199 7.99042C62.1972 8.06449 62.3485 8.18964 62.4546 8.34992C62.5607 8.51021 62.6167 8.6984 62.6156 8.8906C62.6141 9.14571 62.5121 9.38995 62.3317 9.57034C62.1513 9.75073 61.9071 9.85276 61.652 9.85426Z" fill="#D7DF23"/>
    <path d="M56.3747 19.095C56.9101 19.095 57.3441 18.661 57.3441 18.1256C57.3441 17.5902 56.9101 17.1562 56.3747 17.1562C55.8394 17.1562 55.4054 17.5902 55.4054 18.1256C55.4054 18.661 55.8394 19.095 56.3747 19.095Z" fill="#D7DF23"/>
    <path d="M56.3748 5.89671C56.1826 5.89784 55.9945 5.84182 55.8342 5.73574C55.6739 5.62966 55.5488 5.47832 55.4747 5.30096C55.4006 5.1236 55.3809 4.92823 55.4181 4.73966C55.4553 4.55109 55.5478 4.37781 55.6837 4.2419C55.8196 4.10599 55.9929 4.01358 56.1815 3.97636C56.37 3.93914 56.5654 3.95882 56.7427 4.0329C56.9201 4.10697 57.0715 4.23208 57.1775 4.39237C57.2836 4.55266 57.3396 4.74088 57.3385 4.93308C57.337 5.18819 57.235 5.43243 57.0546 5.61282C56.8742 5.79321 56.63 5.8952 56.3748 5.89671Z" fill="#D7DF23"/>
    <path d="M51.098 9.85426C50.9058 9.8554 50.7176 9.79933 50.5573 9.69326C50.397 9.58718 50.2719 9.43587 50.1978 9.25851C50.1237 9.08115 50.1041 8.88575 50.1413 8.69718C50.1785 8.50861 50.2709 8.33537 50.4069 8.19945C50.5428 8.06354 50.716 7.9711 50.9046 7.93388C51.0931 7.89666 51.2885 7.91634 51.4659 7.99042C51.6432 8.06449 51.7946 8.18964 51.9006 8.34992C52.0067 8.51021 52.0627 8.6984 52.0616 8.8906C52.0601 9.14571 51.9581 9.38995 51.7777 9.57034C51.5974 9.75073 51.3531 9.85276 51.098 9.85426Z" fill="#D7DF23"/>
    <path d="M73.5253 32.9925H73.0893V29.6427H74.8101C74.9768 29.6402 75.1401 29.5945 75.2838 29.5101C75.4276 29.4256 75.547 29.3053 75.6303 29.1609C75.7206 29.0132 75.7683 28.8435 75.7683 28.6705C75.7683 28.4974 75.7206 28.3277 75.6303 28.18C75.5425 28.0337 75.418 27.9128 75.2691 27.8293C75.1202 27.7458 74.9521 27.7026 74.7814 27.704H58.9733C58.9238 27.6981 58.8737 27.6981 58.8242 27.704C58.7727 27.6983 58.7208 27.6983 58.6693 27.704C58.5417 27.7233 58.4193 27.7677 58.309 27.8346C58.1988 27.9016 58.1028 27.9897 58.0269 28.094C57.8772 28.3053 57.8155 28.5665 57.8548 28.8225C57.8892 29.0535 58.0053 29.2646 58.1822 29.4173C58.359 29.5699 58.5848 29.654 58.8184 29.6542C58.8699 29.6599 58.9218 29.6599 58.9733 29.6542H60.6195V33.0039H52.0788V29.6542H53.6963C53.9534 29.6542 54.1999 29.552 54.3817 29.3702C54.5635 29.1885 54.6656 28.9419 54.6656 28.6848C54.6656 28.4277 54.5635 28.1811 54.3817 27.9994C54.1999 27.8176 53.9534 27.7154 53.6963 27.7154H37.8251C37.7755 27.7097 37.7255 27.7097 37.6759 27.7154C37.6245 27.7098 37.5725 27.7098 37.5211 27.7154C37.3935 27.7347 37.271 27.7791 37.1608 27.8461C37.0505 27.913 36.9546 28.0012 36.8787 28.1055C36.8019 28.2088 36.7471 28.3267 36.7175 28.452C36.688 28.5772 36.6843 28.7072 36.7066 28.8339C36.741 29.065 36.8571 29.2761 37.034 29.4287C37.2108 29.5813 37.4366 29.6654 37.6702 29.6656C37.7217 29.6713 37.7736 29.6713 37.8251 29.6656H39.5459V33.0154H31.0625C30.9359 33.0154 30.8107 33.0403 30.6937 33.0888C30.5768 33.1372 30.4706 33.2082 30.3811 33.2976C30.2916 33.3871 30.2206 33.4934 30.1722 33.6103C30.1237 33.7272 30.0989 33.8525 30.0989 33.979C30.0989 34.2351 30.2002 34.4808 30.3808 34.6625C30.5613 34.8441 30.8064 34.9469 31.0625 34.9484H39.5459V56.8021C39.5284 58.3782 40.0957 59.9048 41.1381 61.0871C42.1805 62.2693 43.6241 63.0233 45.1899 63.2034C46.0591 63.2899 46.9368 63.1934 47.7663 62.92C48.5959 62.6466 49.359 62.2024 50.0064 61.6161C50.6538 61.0298 51.1711 60.3143 51.5251 59.5158C51.8791 58.7172 52.0618 57.8534 52.0615 56.9799V34.9197H60.6023V56.7792C60.5849 58.3553 61.1521 59.8819 62.1946 61.0641C63.237 62.2464 64.6806 63.0004 66.2464 63.1804C67.1114 63.2625 67.984 63.1635 68.8085 62.8895C69.6331 62.6156 70.3915 62.1728 71.0353 61.5893C71.6792 61.0059 72.1944 60.2947 72.5481 59.5011C72.9017 58.7075 73.086 57.8488 73.0893 56.9799V34.9197H73.5253C74.3184 34.9212 75.0785 35.2374 75.6387 35.7987C76.199 36.3601 76.5136 37.1208 76.5136 37.9139V66.9374C76.5136 67.7305 76.199 68.4912 75.6387 69.0526C75.0785 69.6139 74.3184 69.9301 73.5253 69.9316H26.4164L27.4947 69.2777C29.7447 67.901 31.6693 66.0528 33.1359 63.8603C34.6025 61.6679 35.5761 59.1835 35.9896 56.5784C36.6997 52.337 35.8686 47.9814 33.6468 44.2993C31.4249 40.6173 27.9589 37.8517 23.8754 36.5028L23.3019 36.3307L23.0609 36.2447V27.0042H24.6325C24.8001 27.0021 24.9643 26.9567 25.1091 26.8722C25.2539 26.7878 25.3742 26.6673 25.4585 26.5224C25.5469 26.3741 25.5935 26.2046 25.5935 26.032C25.5935 25.8593 25.5469 25.6899 25.4585 25.5415C25.3711 25.3948 25.2467 25.2736 25.0977 25.19C24.9487 25.1065 24.7804 25.0635 24.6096 25.0655H11.5261C11.4765 25.0596 11.4265 25.0596 11.3769 25.0655C11.3255 25.0598 11.2735 25.0598 11.222 25.0655H11.0443C10.7943 25.1306 10.5793 25.2901 10.4446 25.5105C10.3098 25.7308 10.2657 25.9949 10.3215 26.247C10.3668 26.4702 10.4883 26.6706 10.6651 26.814C10.842 26.9574 11.0632 27.0347 11.2909 27.0329C11.3634 27.0388 11.4363 27.0388 11.5088 27.0329H11.5433H13.1723V36.2103L12.9428 36.2963C12.765 36.3594 12.3692 36.4569 12.3692 36.4627C8.28979 37.8413 4.83156 40.6221 2.60952 44.3106C0.387494 47.9991 -0.454277 52.3561 0.233879 56.6069C0.922034 60.8576 3.09553 64.7265 6.36782 67.5255C9.64011 70.3245 13.7991 71.8722 18.1051 71.8933H73.5138C74.8195 71.8917 76.0713 71.372 76.9941 70.4481C77.9169 69.5243 78.4352 68.2719 78.4352 66.9661V37.9425C78.439 37.2948 78.3148 36.6527 78.0699 36.0531C77.825 35.4534 77.4641 34.908 77.0079 34.4481C76.5518 33.9882 76.0093 33.6229 75.4117 33.3731C74.814 33.1233 74.173 32.994 73.5253 32.9925ZM50.1285 56.9799C50.0491 58.0666 49.5614 59.083 48.7634 59.8248C47.9654 60.5666 46.9162 60.979 45.8266 60.979C44.7371 60.979 43.6879 60.5666 42.8899 59.8248C42.0918 59.083 41.6041 58.0666 41.5247 56.9799V46.7987H50.1285V56.9799ZM50.1285 44.8829H41.5247V29.6427H50.1285V44.8829ZM71.1563 56.9799C71.0769 58.0666 70.5892 59.083 69.7912 59.8248C68.9932 60.5666 67.944 60.979 66.8544 60.979C65.7648 60.979 64.7157 60.5666 63.9176 59.8248C63.1196 59.083 62.6319 58.0666 62.5525 56.9799V49.4372H71.1563V56.9799ZM71.1563 47.5215H62.5525V29.6427H71.1563V47.5215ZM2.09622 56.2916L2.04462 55.9647C1.99873 55.6779 1.95287 55.3911 1.92993 55.11L1.90122 54.7315H11.5146C11.7717 54.7315 12.0182 54.6294 12.2 54.4476C12.3818 54.2658 12.4839 54.0192 12.4839 53.7621C12.4839 53.6351 12.4588 53.5093 12.41 53.392C12.3613 53.2747 12.2898 53.1682 12.1997 53.0787C12.1096 52.9891 12.0027 52.9183 11.8851 52.8702C11.7675 52.8221 11.6416 52.7977 11.5146 52.7985H1.98153V52.4142C2.2389 49.2429 3.42354 46.2174 5.38792 43.7145C7.35229 41.2116 10.0096 39.3419 13.0289 38.3383C13.4067 38.213 13.7733 38.0556 14.1244 37.868C14.4012 37.7345 14.6428 37.538 14.8299 37.2944C14.9811 37.0011 15.0448 36.6707 15.0135 36.3422L15.0938 27.0042H21.0763V36.3307C21.1009 36.6716 21.2083 37.0012 21.3892 37.2911C21.5702 37.581 21.8191 37.8223 22.1145 37.9942C22.3961 38.1258 22.6958 38.2147 23.0036 38.258L23.1527 38.2867H23.2559H23.3133C26.3139 39.301 28.9485 41.1782 30.8871 43.6831C32.8257 46.188 33.9821 49.2092 34.2115 52.3683V52.7469H17.8642C17.6081 52.7469 17.3624 52.8482 17.1808 53.0288C16.9992 53.2093 16.8964 53.4544 16.8948 53.7105C16.8948 53.9676 16.997 54.2141 17.1788 54.3959C17.3606 54.5777 17.6071 54.6798 17.8642 54.6798H34.1312L34.0968 55.0584C34.0968 55.1961 34.0968 55.328 34.0968 55.4657C34.0952 55.7269 34.0742 55.9876 34.0337 56.2457C33.4368 60.0537 31.4993 63.5233 28.5704 66.0289C25.6414 68.5346 21.9137 69.9115 18.0592 69.9115C14.2048 69.9115 10.4771 68.5346 7.54812 66.0289C4.61916 63.5233 2.68158 60.0537 2.08474 56.2457L2.09622 56.2916Z" fill="#3CAA3B"/>
    <path d="M51.098 15.1081C50.9058 15.1093 50.7176 15.0532 50.5573 14.9472C50.397 14.8411 50.2719 14.6897 50.1978 14.5124C50.1237 14.335 50.1041 14.1397 50.1413 13.9511C50.1785 13.7625 50.2709 13.5892 50.4069 13.4533C50.5428 13.3174 50.716 13.225 50.9046 13.1878C51.0931 13.1506 51.2885 13.1702 51.4659 13.2443C51.6432 13.3184 51.7946 13.4435 51.9006 13.6038C52.0067 13.7641 52.0627 13.9523 52.0616 14.1445C52.0601 14.3996 51.9581 14.6439 51.7777 14.8242C51.5974 15.0046 51.3531 15.1066 51.098 15.1081Z" fill="#D7DF23"/>
    <path d="M11.5146 19.0888C10.8008 19.0888 10.103 18.8771 9.50959 18.4804C8.91616 18.0837 8.45376 17.5199 8.18086 16.8603C7.90795 16.2007 7.8368 15.475 7.97647 14.775C8.11615 14.0749 8.46034 13.4321 8.96548 12.9278C9.47062 12.4234 10.1141 12.0802 10.8143 11.9417C11.5145 11.8031 12.2402 11.8754 12.8993 12.1493C13.5585 12.4233 14.1215 12.8866 14.5173 13.4807C14.913 14.0747 15.1237 14.7728 15.1225 15.4867C15.121 16.4425 14.7402 17.3588 14.0638 18.0341C13.3873 18.7095 12.4705 19.0888 11.5146 19.0888ZM11.5146 13.8118C11.1834 13.8118 10.8595 13.91 10.5841 14.0941C10.3087 14.2781 10.094 14.5397 9.96723 14.8457C9.84046 15.1518 9.80731 15.4885 9.87194 15.8134C9.93656 16.1383 10.0961 16.4367 10.3303 16.671C10.5646 16.9052 10.863 17.0647 11.1879 17.1294C11.5128 17.194 11.8495 17.1608 12.1556 17.0341C12.4616 16.9073 12.7232 16.6926 12.9072 16.4172C13.0913 16.1418 13.1895 15.8179 13.1895 15.4867C13.1926 15.2659 13.1514 15.0467 13.0683 14.8421C12.9853 14.6375 12.862 14.4516 12.7059 14.2955C12.5497 14.1393 12.3638 14.0161 12.1592 13.933C11.9546 13.8499 11.7354 13.8087 11.5146 13.8118Z" fill="#D7DF23"/>
    <path d="M24.713 9.85426C23.738 9.8554 22.7846 9.56723 21.9735 9.02626C21.1623 8.4853 20.5299 7.71585 20.1563 6.8153C19.7826 5.91475 19.6846 4.92362 19.8745 3.96731C20.0644 3.01101 20.5338 2.13254 21.2232 1.44312C21.9126 0.753706 22.7911 0.284329 23.7474 0.0943977C24.7037 -0.0955337 25.6949 0.00251741 26.5954 0.376151C27.496 0.749784 28.2654 1.38219 28.8064 2.19333C29.3473 3.00447 29.6355 3.95788 29.6343 4.93286C29.6328 6.23763 29.1139 7.48851 28.1913 8.41112C27.2687 9.33373 26.0178 9.85275 24.713 9.85426ZM24.713 1.93871C24.1206 1.93758 23.5411 2.11222 23.048 2.44053C22.5548 2.76884 22.1701 3.23605 21.9426 3.78306C21.7151 4.33006 21.655 4.93227 21.7699 5.51345C21.8848 6.09464 22.1696 6.6287 22.5881 7.04801C23.0066 7.46732 23.54 7.75304 24.121 7.86904C24.7019 7.98503 25.3042 7.92608 25.8517 7.69963C26.3991 7.47318 26.8671 7.08942 27.1964 6.59691C27.5256 6.10441 27.7014 5.52529 27.7014 4.93286C27.7091 4.53696 27.6372 4.14352 27.4901 3.77588C27.343 3.40824 27.1237 3.07388 26.845 2.79255C26.5664 2.51122 26.2341 2.28865 25.8679 2.13805C25.5016 1.98745 25.1089 1.91187 24.713 1.91578V1.93871Z" fill="#D7DF23"/>
</svg>
