<svg width="74" height="64" viewBox="0 0 74 64" fill="none" xmlns="http://www.w3.org/2000/svg">
    <path d="M52.2423 35.4245C51.9959 35.4056 51.7657 35.2944 51.5978 35.1131C51.4298 34.9318 51.3365 34.6937 51.3365 34.4466C51.3365 34.1994 51.4298 33.9614 51.5978 33.78C51.7657 33.5987 51.9959 33.4875 52.2423 33.4686C53.3345 33.4424 54.3749 32.9973 55.1479 32.2253C55.9209 31.4534 56.3675 30.4137 56.3951 29.3216V19.0658C56.3675 17.9731 55.9211 16.9328 55.1482 16.1599C54.3753 15.387 53.335 14.9406 52.2423 14.913C51.9837 14.913 51.7357 14.8103 51.5529 14.6274C51.37 14.4445 51.2673 14.1965 51.2673 13.9379C51.2673 13.6793 51.37 13.4313 51.5529 13.2484C51.7357 13.0655 51.9837 12.9628 52.2423 12.9628C53.0464 12.9536 53.8441 13.1051 54.5887 13.4086C55.3333 13.712 56.0098 14.1612 56.5784 14.7297C57.1469 15.2983 57.5962 15.9748 57.8996 16.7194C58.203 17.464 58.3546 18.2618 58.3453 19.0658V29.3216C58.3538 30.1254 58.2017 30.9227 57.898 31.667C57.5943 32.4113 57.1451 33.0874 56.5767 33.6558C56.0083 34.2242 55.3321 34.6735 54.5878 34.9772C53.8436 35.2809 53.0461 35.433 52.2423 35.4245Z" fill="#D7DF23"/>
    <path d="M62.4981 25.1683C62.3633 25.1786 62.2279 25.161 62.1004 25.1165C61.9728 25.0721 61.8557 25.0017 61.7566 24.9099C61.6574 24.818 61.5784 24.7067 61.5243 24.5829C61.4702 24.4591 61.4423 24.3254 61.4423 24.1903C61.4423 24.0552 61.4702 23.9215 61.5243 23.7977C61.5784 23.6739 61.6574 23.5626 61.7566 23.4707C61.8557 23.3789 61.9728 23.3086 62.1004 23.2641C62.2279 23.2196 62.3633 23.202 62.4981 23.2123H72.7481C72.8828 23.202 73.0183 23.2196 73.1459 23.2641C73.2735 23.3086 73.3904 23.3789 73.4896 23.4707C73.5887 23.5626 73.6678 23.6739 73.7219 23.7977C73.776 23.9215 73.8039 24.0552 73.8039 24.1903C73.8039 24.3254 73.776 24.4591 73.7219 24.5829C73.6678 24.7067 73.5887 24.818 73.4896 24.9099C73.3904 25.0017 73.2735 25.0721 73.1459 25.1165C73.0183 25.161 72.8828 25.1786 72.7481 25.1683H62.4981Z" fill="#D7DF23"/>
    <path d="M63.0087 19.5299C62.8065 19.5307 62.6078 19.478 62.4325 19.3773C62.2572 19.2766 62.1117 19.1314 62.0106 18.9563C61.8214 18.3827 62.0106 17.9927 62.6416 17.5567L68.7503 15.0043C68.8889 14.9569 69.0341 14.9317 69.1805 14.9297C69.5361 14.9297 69.8344 15.1362 70.1728 15.6294C70.3219 16.117 70.2588 16.5243 69.5304 17.0118L63.4561 19.5413L63.0087 19.5299Z" fill="#D7DF23"/>
    <path d="M6.10292 25.1683C5.85648 25.1494 5.62622 25.0382 5.45826 24.8569C5.2903 24.6756 5.19702 24.4375 5.19702 24.1904C5.19702 23.9432 5.2903 23.7052 5.45826 23.5238C5.62622 23.3425 5.85648 23.2313 6.10292 23.2124H11.2308C11.4772 23.2313 11.7075 23.3425 11.8754 23.5238C12.0434 23.7052 12.1367 23.9432 12.1367 24.1904C12.1367 24.4375 12.0434 24.6756 11.8754 24.8569C11.7075 25.0382 11.4772 25.1494 11.2308 25.1683H6.10292Z" fill="#D7DF23"/>
    <path d="M6.10301 20.04C5.8444 20.04 5.59634 19.9373 5.41347 19.7545C5.23061 19.5716 5.12787 19.3236 5.12787 19.065C5.12787 18.8063 5.23061 18.5583 5.41347 18.3754C5.59634 18.1926 5.8444 18.0898 6.10301 18.0898H11.2309C11.4895 18.0898 11.7375 18.1926 11.9204 18.3754C12.1033 18.5583 12.206 18.8063 12.206 19.065C12.206 19.3236 12.1033 19.5716 11.9204 19.7545C11.7375 19.9373 11.4895 20.04 11.2309 20.04H6.10301Z" fill="#D7DF23"/>
    <path d="M68.7044 33.3709L62.6014 30.8241C62.4678 30.7742 62.346 30.6972 62.2437 30.5979C62.1414 30.4986 62.0607 30.3791 62.0068 30.2471C61.9529 30.1151 61.927 29.9733 61.9306 29.8308C61.9342 29.6882 61.9673 29.548 62.0278 29.4188C62.0899 29.2209 62.216 29.0493 62.3862 28.9309C62.5565 28.8125 62.7614 28.7542 62.9685 28.7649C63.1226 28.765 63.2756 28.7902 63.4216 28.8395L69.582 31.4034C69.7129 31.4542 69.832 31.5311 69.9324 31.6293C70.0327 31.7275 70.1121 31.845 70.1658 31.9748C70.2194 32.1045 70.2461 32.2438 70.2444 32.3842C70.2426 32.5246 70.2124 32.6632 70.1556 32.7915C70.0583 32.9699 69.9136 33.1179 69.7375 33.2191C69.5613 33.3203 69.3606 33.3709 69.1575 33.3651L68.7044 33.3709Z" fill="#D7DF23"/>
    <path d="M6.10292 30.2963C5.85648 30.2774 5.62622 30.1661 5.45826 29.9848C5.2903 29.8035 5.19702 29.5655 5.19702 29.3183C5.19702 29.0712 5.2903 28.8331 5.45826 28.6518C5.62622 28.4705 5.85648 28.3592 6.10292 28.3403H11.2308C11.4772 28.3592 11.7075 28.4705 11.8754 28.6518C12.0434 28.8331 12.1367 29.0712 12.1367 29.3183C12.1367 29.5655 12.0434 29.8035 11.8754 29.9848C11.7075 30.1661 11.4772 30.2774 11.2308 30.2963H6.10292Z" fill="#D7DF23"/>
    <path d="M13.7947 63.8801C13.6636 63.8913 13.5315 63.8738 13.4078 63.8289C13.2841 63.7839 13.1717 63.7126 13.0783 63.6198C12.985 63.527 12.913 63.415 12.8673 63.2915C12.8216 63.1681 12.8034 63.0362 12.8139 62.9049L10.2557 34.7073C10.2557 34.5123 10.2557 34.0764 10.422 33.9272C10.5112 33.7974 10.6301 33.6906 10.7687 33.6158C10.9073 33.541 11.0618 33.5003 11.2193 33.497H18.9111C19.0413 33.4886 19.1719 33.508 19.294 33.5541C19.4162 33.6001 19.5271 33.6716 19.6193 33.7639C19.7116 33.8562 19.7832 33.9671 19.8292 34.0892C19.8752 34.2114 19.8947 34.3419 19.8863 34.4721V62.6698C19.8863 63.2433 19.7141 63.9087 18.9111 63.9087L13.7947 63.8801ZM14.7985 61.9241H17.9246V35.6824H12.1887L14.7985 61.9241Z" fill="#D7DF23"/>
    <path d="M49.6785 48.238C48.7472 48.2147 47.8605 47.8344 47.2018 47.1757C46.5431 46.517 46.1627 45.6303 46.1395 44.699V3.68737C46.1203 3.21024 46.1977 2.73414 46.367 2.28767C46.5364 1.8412 46.7942 1.43354 47.125 1.08917C47.4558 0.744795 47.8527 0.470806 48.292 0.283644C48.7313 0.0964814 49.2039 0 49.6814 0C50.1589 0 50.6315 0.0964814 51.0708 0.283644C51.5101 0.470806 51.907 0.744795 52.2378 1.08917C52.5686 1.43354 52.8264 1.8412 52.9958 2.28767C53.1651 2.73414 53.2425 3.21024 53.2233 3.68737V44.699C53.2369 45.1679 53.1543 45.6346 52.9809 46.0704C52.8074 46.5063 52.5468 46.9021 52.2148 47.2336C51.8828 47.565 51.4865 47.8251 51.0504 47.9978C50.6143 48.1705 50.1474 48.2523 49.6785 48.238ZM49.6785 2.09851C49.4675 2.08864 49.2568 2.12301 49.0599 2.19945C48.8629 2.27588 48.6842 2.39269 48.5351 2.54232C48.386 2.69196 48.2699 2.87114 48.1941 3.06834C48.1184 3.26553 48.0848 3.4764 48.0954 3.68737V44.699C48.1197 45.1031 48.2974 45.4827 48.5922 45.7603C48.887 46.0378 49.2765 46.1924 49.6814 46.1924C50.0863 46.1924 50.4759 46.0378 50.7706 45.7603C51.0654 45.4827 51.2431 45.1031 51.2674 44.699V3.68737C51.2772 3.47611 51.2428 3.26512 51.1664 3.06792C51.09 2.87071 50.9734 2.69162 50.8238 2.54208C50.6743 2.39254 50.4952 2.27586 50.298 2.19948C50.1008 2.1231 49.8898 2.08871 49.6785 2.09851ZM8.66694 35.424C7.73513 35.3993 6.84842 35.0177 6.18983 34.3581C5.53125 33.6984 5.15107 32.8111 5.12787 31.8792V16.5013C5.15113 15.57 5.53146 14.6833 6.19018 14.0246C6.84891 13.3659 7.73565 12.9855 8.66694 12.9623H21.4809C21.612 12.951 21.7441 12.9685 21.8678 13.0134C21.9915 13.0584 22.104 13.1297 22.1973 13.2225C22.2907 13.3153 22.3627 13.4273 22.4084 13.5508C22.454 13.6742 22.4723 13.8062 22.4618 13.9374V34.4432C22.4721 34.5746 22.4538 34.7068 22.4082 34.8305C22.3626 34.9542 22.2907 35.0665 22.1975 35.1597C22.1042 35.253 21.9919 35.3249 21.8682 35.3705C21.7445 35.4161 21.6123 35.4344 21.4809 35.424H8.66694ZM8.66694 14.9125C8.45568 14.9027 8.24469 14.9371 8.04749 15.0134C7.85028 15.0898 7.67119 15.2065 7.52165 15.356C7.37211 15.5056 7.25543 15.6847 7.17905 15.8819C7.10267 16.0791 7.06828 16.2901 7.07808 16.5013V31.885C7.06828 32.0962 7.10267 32.3072 7.17905 32.5044C7.25543 32.7016 7.37211 32.8807 7.52165 33.0303C7.67119 33.1798 7.85028 33.2965 8.04749 33.3729C8.24469 33.4492 8.45568 33.4836 8.66694 33.4738H20.5058V14.9125H8.66694Z" fill="#3CAA3B"/>
    <path d="M3.53907 25.1683C2.60778 25.145 1.72104 24.7647 1.06232 24.106C0.40359 23.4473 0.0232567 22.5606 0 21.6293V19.0653C0.0232567 18.1341 0.40359 17.2473 1.06232 16.5886C1.72104 15.9299 2.60778 15.5495 3.53907 15.5263H6.10299C6.23368 15.5159 6.36508 15.534 6.48809 15.5794C6.6111 15.6247 6.7228 15.6962 6.8155 15.7889C6.9082 15.8816 6.97966 15.9933 7.02499 16.1163C7.07033 16.2393 7.08843 16.3707 7.07807 16.5014V24.1932C7.08843 24.3239 7.07033 24.4553 7.02499 24.5783C6.97966 24.7013 6.9082 24.813 6.8155 24.9057C6.7228 24.9984 6.6111 25.0699 6.48809 25.1152C6.36508 25.1606 6.23368 25.1787 6.10299 25.1683H3.53907ZM3.53907 17.4765C3.32806 17.4666 3.11731 17.501 2.92039 17.5774C2.72346 17.6539 2.5447 17.7707 2.3956 17.9203C2.24651 18.0699 2.1304 18.2491 2.05468 18.4463C1.97896 18.6435 1.94532 18.8544 1.95596 19.0653V21.6293C1.94615 21.8398 1.98034 22.05 2.05643 22.2465C2.13252 22.443 2.24884 22.6215 2.39784 22.7705C2.54685 22.9195 2.72528 23.0358 2.92179 23.1119C3.1183 23.188 3.32857 23.2222 3.53907 23.2124H5.12785V17.4765H3.53907Z" fill="#3CAA3B"/>
    <path d="M46.6729 43.1103L28.9777 35.4242H21.4808C21.3496 35.4347 21.2177 35.4164 21.0943 35.3707C20.9708 35.3251 20.8588 35.2531 20.766 35.1597C20.6732 35.0664 20.6019 34.954 20.5569 34.8302C20.512 34.7065 20.4945 34.5745 20.5058 34.4434V13.9376C20.4954 13.8069 20.5135 13.6755 20.5588 13.5525C20.6042 13.4294 20.6756 13.3178 20.7683 13.2251C20.861 13.1324 20.9728 13.0609 21.0958 13.0155C21.2188 12.9702 21.3501 12.9521 21.4808 12.9624H28.9777L46.7589 5.24193C46.852 5.19017 46.9565 5.16255 47.0629 5.16162C47.1655 5.16733 47.2672 5.18271 47.3669 5.20752C47.4974 5.23683 47.6296 5.25789 47.7627 5.2706C47.8691 5.35887 47.955 5.46925 48.0144 5.59405C48.0739 5.71886 48.1054 5.85511 48.1068 5.99333V41.877C48.1036 42.0295 48.067 42.1793 47.9996 42.3161C47.9322 42.4528 47.8356 42.5731 47.7168 42.6686L47.6479 42.7317V42.7718C47.4701 43.116 47.3726 43.116 47.1432 43.116L46.6729 43.1103ZM46.1394 40.5463V7.85175L29.6201 14.9241H22.4617V33.4797H29.6201L46.1394 40.5463Z" fill="#3CAA3B"/>
</svg>
