<svg width="67" height="80" viewBox="0 0 67 80" fill="none" xmlns="http://www.w3.org/2000/svg">
    <path d="M3.9291 67.9817C2.88705 67.9817 1.88766 67.5678 1.15082 66.8309C0.413972 66.0941 0 65.0947 0 64.0527V3.92907C0 2.88701 0.413972 1.88763 1.15082 1.15078C1.88766 0.413937 2.88705 0 3.9291 0H49.7416C50.7837 0 51.7831 0.413937 52.5199 1.15078C53.2568 1.88763 53.6707 2.88701 53.6707 3.92907V46.8737C53.6707 47.1566 53.5583 47.428 53.3582 47.6281C53.1581 47.8281 52.8868 47.9405 52.6038 47.9405C52.3209 47.9405 52.0495 47.8281 51.8494 47.6281C51.6494 47.428 51.537 47.1566 51.537 46.8737V3.92907C51.537 3.45292 51.3478 2.99626 51.0111 2.65957C50.6744 2.32288 50.2178 2.13373 49.7416 2.13373H3.9291C3.45295 2.13373 2.9963 2.32288 2.6596 2.65957C2.32291 2.99626 2.13377 3.45292 2.13377 3.92907V64.0527C2.13377 64.5293 2.32273 64.9866 2.65925 65.3242C2.99578 65.6618 3.45243 65.8522 3.9291 65.8537H33.8819C34.0282 65.843 34.1752 65.8625 34.3136 65.9111C34.452 65.9597 34.5788 66.0363 34.6863 66.1362C34.7938 66.236 34.8795 66.357 34.9381 66.4915C34.9967 66.6259 35.0269 66.771 35.0269 66.9177C35.0269 67.0644 34.9967 67.2095 34.9381 67.344C34.8795 67.4785 34.7938 67.5994 34.6863 67.6993C34.5788 67.7991 34.452 67.8757 34.3136 67.9243C34.1752 67.9729 34.0282 67.9925 33.8819 67.9817H3.9291Z" fill="#3CAA3B"/>
    <path d="M48.3078 62.2573C48.0249 62.2573 47.7535 62.1449 47.5534 61.9448C47.3534 61.7447 47.241 61.4734 47.241 61.1904V59.7622C47.241 59.4793 47.3534 59.2079 47.5534 59.0078C47.7535 58.8077 48.0249 58.6953 48.3078 58.6953C48.5908 58.6953 48.8621 58.8077 49.0622 59.0078C49.2623 59.2079 49.3747 59.4793 49.3747 59.7622V61.1904C49.3747 61.4734 49.2623 61.7447 49.0622 61.9448C48.8621 62.1449 48.5908 62.2573 48.3078 62.2573Z" fill="#D7DF23"/>
    <path d="M52.4605 74.4288C50.4932 74.423 48.5817 73.7744 47.0171 72.5818C45.7573 71.58 44.882 70.1738 44.5392 68.6011C44.5032 68.4411 44.5036 68.2751 44.5403 68.1152C44.5771 67.9554 44.6492 67.8059 44.7515 67.6776C44.8514 67.5534 44.9781 67.4533 45.1221 67.3848C45.2661 67.3163 45.4237 67.2811 45.5832 67.2818C45.8344 67.283 46.0774 67.372 46.2701 67.5332C46.4628 67.6945 46.5931 67.918 46.6385 68.1652C47.2982 71.2109 50.2636 72.295 52.6039 72.295C54.9441 72.295 57.9096 71.2109 58.5692 68.1652C58.6131 67.9204 58.7406 67.6985 58.93 67.5374C59.1193 67.3762 59.3588 67.2859 59.6074 67.2818C59.7657 67.2796 59.9224 67.3135 60.0656 67.3811C60.2087 67.4487 60.3346 67.5482 60.4334 67.6719C60.5367 67.8041 60.6098 67.9574 60.6474 68.1209C60.6851 68.2844 60.6864 68.4542 60.6513 68.6183C59.7909 72.6334 55.988 74.4288 52.6211 74.4288H52.4605Z" fill="#D7DF23"/>
    <path d="M52.604 79.4357C50.7388 79.4373 48.8923 79.0644 47.1739 78.3394C45.4554 77.6143 43.9 76.5517 42.5997 75.2145C41.2994 73.8773 40.2807 72.2927 39.604 70.5547C38.9273 68.8166 38.6063 66.9604 38.66 65.096C38.8001 61.5476 40.2725 58.1824 42.7835 55.6714C45.2946 53.1603 48.6598 51.6879 52.2082 51.5479H52.604C56.3036 51.5479 59.8518 53.0175 62.4679 55.6336C65.0839 58.2497 66.5536 61.7978 66.5536 65.4975C66.5536 69.1972 65.0839 72.7454 62.4679 75.3614C59.8518 77.9775 56.3036 79.4472 52.604 79.4472V79.4357ZM52.604 53.6701C49.6757 53.6715 46.8522 54.7596 44.6803 56.7236C42.5084 58.6877 41.1428 61.3879 40.8479 64.3012C40.553 67.2145 41.3498 70.1337 43.084 72.4931C44.8183 74.8526 47.3665 76.4844 50.235 77.0726C51.0154 77.2256 51.8087 77.3024 52.604 77.302C55.7377 77.302 58.7432 76.0571 60.9591 73.8412C63.175 71.6253 64.4199 68.6198 64.4199 65.4861C64.4199 62.3523 63.175 59.3468 60.9591 57.1309C58.7432 54.915 55.7377 53.6701 52.604 53.6701Z" fill="#D7DF23"/>
    <path d="M28.2664 12.1543H44.0114C44.2944 12.1543 44.5657 12.0419 44.7658 11.8418C44.9659 11.6417 45.0783 11.3703 45.0783 11.0874C45.0783 10.8044 44.9659 10.5331 44.7658 10.333C44.5657 10.1329 44.2944 10.0205 44.0114 10.0205H28.2664C27.9835 10.0205 27.7121 10.1329 27.512 10.333C27.3119 10.5331 27.1995 10.8044 27.1995 11.0874C27.1995 11.3703 27.3119 11.6417 27.512 11.8418C27.7121 12.0419 27.9835 12.1543 28.2664 12.1543Z" fill="#D7DF23"/>
    <path d="M28.2664 20.7407H34.0023C34.2852 20.7407 34.5566 20.6283 34.7567 20.4282C34.9567 20.2281 35.0692 19.9568 35.0692 19.6738C35.0692 19.3908 34.9567 19.1195 34.7567 18.9194C34.5566 18.7193 34.2852 18.6069 34.0023 18.6069H28.2664C27.9835 18.6069 27.7121 18.7193 27.512 18.9194C27.3119 19.1195 27.1995 19.3908 27.1995 19.6738C27.1995 19.9568 27.3119 20.2281 27.512 20.4282C27.7121 20.6283 27.9835 20.7407 28.2664 20.7407Z" fill="#D7DF23"/>
    <path d="M20.1902 11.1163C20.0349 11.1156 19.8815 11.1491 19.7407 11.2146C19.5999 11.28 19.4753 11.3757 19.3757 11.4948L14.2134 17.7011C14.137 17.7926 14.0413 17.8663 13.9333 17.9168C13.8253 17.9674 13.7074 17.9936 13.5882 17.9936C13.4287 17.9932 13.2729 17.9452 13.1408 17.8559L11.42 16.7088C11.2504 16.5946 11.0509 16.5328 10.8464 16.5309C10.6711 16.5307 10.4983 16.5734 10.3434 16.6554C10.1884 16.7374 10.0558 16.8562 9.95738 17.0013C9.80264 17.2357 9.74715 17.5219 9.80306 17.7971C9.85897 18.0724 10.0217 18.3142 10.2556 18.4697L13.3702 20.5518C13.5383 20.6692 13.7388 20.7314 13.9438 20.7296C14.1005 20.7305 14.2554 20.6964 14.3972 20.6299C14.5391 20.5634 14.6644 20.4662 14.764 20.3453L21.0104 12.8542C21.1001 12.7461 21.1675 12.6213 21.2086 12.487C21.2497 12.3526 21.2638 12.2115 21.2499 12.0717C21.236 11.9319 21.1945 11.7962 21.1278 11.6726C21.0611 11.5489 20.9705 11.4398 20.8613 11.3514C20.672 11.1969 20.4345 11.1137 20.1902 11.1163Z" fill="#3CAA3B"/>
    <path d="M44.0114 27.1997H28.2664C27.9835 27.1997 27.7121 27.3121 27.512 27.5122C27.3119 27.7123 27.1995 27.9836 27.1995 28.2666C27.1995 28.5495 27.3119 28.8209 27.512 29.021C27.7121 29.2211 27.9835 29.3335 28.2664 29.3335H44.0114C44.2944 29.3335 44.5657 29.2211 44.7658 29.021C44.9659 28.8209 45.0783 28.5495 45.0783 28.2666C45.0783 27.9836 44.9659 27.7123 44.7658 27.5122C44.5657 27.3121 44.2944 27.1997 44.0114 27.1997Z" fill="#D7DF23"/>
    <path d="M28.2664 37.9199H34.0023C34.2852 37.9199 34.5566 37.8075 34.7567 37.6074C34.9567 37.4073 35.0692 37.136 35.0692 36.853C35.0692 36.57 34.9567 36.2987 34.7567 36.0986C34.5566 35.8985 34.2852 35.7861 34.0023 35.7861H28.2664C27.9835 35.7861 27.7121 35.8985 27.512 36.0986C27.3119 36.2987 27.1995 36.57 27.1995 36.853C27.1995 37.136 27.3119 37.4073 27.512 37.6074C27.7121 37.8075 27.9835 37.9199 28.2664 37.9199Z" fill="#D7DF23"/>
    <path d="M20.1904 28.2947C20.0352 28.294 19.8817 28.3276 19.7409 28.393C19.6001 28.4584 19.4755 28.5541 19.3759 28.6732L14.2136 34.8795C14.1372 34.971 14.0416 35.0447 13.9335 35.0952C13.8255 35.1458 13.7077 35.172 13.5884 35.172C13.4289 35.1716 13.2732 35.1236 13.141 35.0343L11.4203 33.8871C11.2505 33.7733 11.0511 33.7115 10.8467 33.7093C10.6197 33.7102 10.399 33.7842 10.2175 33.9204C10.0359 34.0566 9.90302 34.2477 9.83863 34.4653C9.77423 34.683 9.78172 34.9156 9.85998 35.1286C9.93825 35.3417 10.0831 35.5238 10.2731 35.6481L13.3877 37.7302C13.5557 37.8476 13.7562 37.9098 13.9613 37.908C14.1179 37.9088 14.2728 37.8748 14.4147 37.8083C14.5566 37.7419 14.6819 37.6446 14.7815 37.5237L21.0279 30.0326C21.1182 29.9265 21.1861 29.8032 21.2275 29.6701C21.2689 29.537 21.283 29.397 21.2688 29.2583C21.242 28.993 21.1184 28.7469 20.9216 28.567C20.7247 28.3871 20.4685 28.2861 20.2019 28.2832L20.1904 28.2947Z" fill="#3CAA3B"/>
    <path d="M44.0114 44.3779H28.2664C28.1263 44.3779 27.9876 44.4055 27.8581 44.4592C27.7287 44.5128 27.6111 44.5914 27.512 44.6904C27.4129 44.7895 27.3343 44.9071 27.2807 45.0365C27.2271 45.166 27.1995 45.3047 27.1995 45.4448C27.1995 45.5849 27.2271 45.7236 27.2807 45.8531C27.3343 45.9825 27.4129 46.1001 27.512 46.1992C27.6111 46.2983 27.7287 46.3769 27.8581 46.4305C27.9876 46.4841 28.1263 46.5117 28.2664 46.5117H44.0114C44.2944 46.5117 44.5657 46.3993 44.7658 46.1992C44.9659 45.9991 45.0783 45.7277 45.0783 45.4448C45.0783 45.1618 44.9659 44.8905 44.7658 44.6904C44.5657 44.4903 44.2944 44.3779 44.0114 44.3779Z" fill="#D7DF23"/>
    <path d="M33.9908 52.9653H28.2549C27.972 52.9653 27.7006 53.0777 27.5005 53.2778C27.3005 53.4779 27.188 53.7493 27.188 54.0322C27.188 54.3152 27.3005 54.5865 27.5005 54.7866C27.7006 54.9867 27.972 55.0991 28.2549 55.0991H33.9908C34.2738 55.0991 34.5451 54.9867 34.7452 54.7866C34.9453 54.5865 35.0577 54.3152 35.0577 54.0322C35.0577 53.7493 34.9453 53.4779 34.7452 53.2778C34.5451 53.0777 34.2738 52.9653 33.9908 52.9653Z" fill="#D7DF23"/>
    <path d="M20.1904 45.4739C20.0352 45.4732 19.8817 45.5068 19.7409 45.5722C19.6001 45.6376 19.4755 45.7333 19.3759 45.8524L14.2136 52.0587C14.1372 52.1502 14.0416 52.2239 13.9335 52.2744C13.8255 52.325 13.7077 52.3512 13.5884 52.3512C13.4289 52.3507 13.2732 52.3028 13.141 52.2135L11.4203 51.0663C11.2505 50.9525 11.0511 50.8907 10.8467 50.8885C10.6197 50.8894 10.399 50.9634 10.2175 51.0996C10.0359 51.2358 9.90302 51.4269 9.83863 51.6445C9.77423 51.8622 9.78172 52.0948 9.85998 52.3078C9.93825 52.5209 10.0831 52.703 10.2731 52.8273L13.3877 54.9094C13.5557 55.0268 13.7562 55.089 13.9613 55.0872C14.1179 55.088 14.2728 55.054 14.4147 54.9875C14.5566 54.9211 14.6819 54.8238 14.7815 54.7029L21.0279 47.2118C21.1182 47.1057 21.1861 46.9824 21.2275 46.8493C21.2689 46.7162 21.283 46.5761 21.2688 46.4375C21.242 46.1722 21.1184 45.9261 20.9216 45.7462C20.7247 45.5663 20.4685 45.4653 20.2019 45.4624L20.1904 45.4739Z" fill="#3CAA3B"/>
    <path d="M56.8999 62.2573C56.617 62.2573 56.3456 62.1449 56.1455 61.9448C55.9455 61.7447 55.833 61.4734 55.833 61.1904V59.7622C55.833 59.4793 55.9455 59.2079 56.1455 59.0078C56.3456 58.8077 56.617 58.6953 56.8999 58.6953C57.1829 58.6953 57.4542 58.8077 57.6543 59.0078C57.8544 59.2079 57.9668 59.4793 57.9668 59.7622V61.1904C57.9668 61.4734 57.8544 61.7447 57.6543 61.9448C57.4542 62.1449 57.1829 62.2573 56.8999 62.2573Z" fill="#D7DF23"/>
</svg>
