<svg width="193" height="45" viewBox="0 0 193 45" fill="none" xmlns="http://www.w3.org/2000/svg">
    <path d="M9.16015 3.49028C8.15867 3.57638 8.06805 3.63984 8.06805 4.71836V9.68046C8.06805 10.7454 8.17227 10.8224 9.16015 10.913V11.3164H5.45331V10.913C6.48198 10.8224 6.58621 10.7454 6.58621 9.68046V7.23793H2.81591V9.66232C2.81591 10.7272 2.91561 10.8043 3.89444 10.8949V11.3164H0.269157V10.913C1.23439 10.8224 1.34768 10.7454 1.34768 9.68046V4.71836C1.34768 3.63984 1.23439 3.56279 0.23291 3.49028V3.06885H3.85819V3.49028C2.91562 3.56279 2.81591 3.63984 2.81591 4.71836V6.64882H6.58621V4.71836C6.58621 3.63984 6.49558 3.57638 5.53035 3.49028V3.06885H9.15563L9.16015 3.49028Z" fill="#5FA17B"/>
    <path d="M14.9698 11.3167V10.9134C15.7311 10.7956 15.8081 10.6597 15.6314 10.1249C15.4909 9.70802 15.2779 9.10985 15.0468 8.50261H12.5227C12.355 8.95577 12.1783 9.45426 12.0288 9.9618C11.8112 10.6461 11.8747 10.7956 12.8037 10.9134V11.3167H9.9986V10.9134C10.8233 10.7956 10.9865 10.6823 11.417 9.59474L14.0181 3.03297L14.5801 2.87891C15.3912 5.0858 16.1888 7.36971 17.0135 9.55395C17.435 10.6733 17.5981 10.8092 18.4092 10.9134V11.3167H14.9698ZM13.8278 4.9725H13.7915C13.4245 5.95133 13.0801 6.94375 12.7266 7.89086H14.8338L13.8278 4.9725Z" fill="#5FA17B"/>
    <path d="M27.9256 13.5369H27.4724L27.2821 12.2816C27.1824 11.484 27.0057 11.3164 26.3758 11.3164H19.4515V10.913C20.4666 10.836 20.5662 10.759 20.5662 9.51733V4.71836C20.5662 3.63984 20.4665 3.55374 19.4877 3.4767V3.06885H23.113V3.4767C22.1478 3.55374 22.0481 3.63984 22.0481 4.71836V10.1563C22.0481 10.7771 22.0843 10.8134 22.6916 10.8134H24.9121C25.5238 10.8134 25.5737 10.7907 25.5737 10.1789V4.87244C25.5737 3.63985 25.4876 3.55374 24.4816 3.4767V3.06885H28.1068V3.4767C27.128 3.55374 27.0283 3.63985 27.0283 4.87244V10.1382C27.0283 10.7318 27.0917 10.7726 27.4452 10.7726H28.2337L27.9256 13.5369Z" fill="#5FA17B"/>
    <path d="M34.5372 11.3166V10.9132C35.5251 10.8362 35.6293 10.7456 35.6293 9.59455V6.49493C35.6293 6.04177 35.6293 5.4436 35.6928 4.22913H35.652L32.1083 10.6595C32.0243 10.81 31.985 10.9814 31.995 11.1534V11.3166H29.3032V10.9132C30.2911 10.8362 30.3953 10.7229 30.3953 9.52657V4.79558C30.3953 3.65361 30.2911 3.56298 29.3032 3.49047V3.06904H32.8832V3.49047C31.9542 3.56298 31.8409 3.63096 31.8409 4.76839V7.53719C31.8409 8.06739 31.8409 8.72902 31.7775 10.0477H31.8047L35.3302 3.65363C35.4186 3.51872 35.4673 3.3617 35.4707 3.20047V3.04639H38.1489V3.46782C37.1701 3.54033 37.0568 3.65816 37.0568 4.78653V9.59455C37.0568 10.7456 37.1701 10.8362 38.1489 10.9132V11.3166H34.5372Z" fill="#5FA17B"/>
    <path d="M47.783 7.10653C47.8115 7.68575 47.7196 8.26457 47.5132 8.80649C47.3067 9.34842 46.9902 9.84166 46.5835 10.2551C46.1769 10.6686 45.689 10.9933 45.1506 11.2087C44.6121 11.4241 44.0349 11.5256 43.4553 11.5067C42.893 11.5194 42.334 11.4171 41.8125 11.2062C41.2911 10.9953 40.8182 10.6802 40.4228 10.2801C40.0274 9.88003 39.7179 9.40347 39.5131 8.8796C39.3083 8.35572 39.2126 7.79555 39.2319 7.23341C39.2168 6.65548 39.3198 6.08055 39.5348 5.54387C39.7497 5.00719 40.072 4.52008 40.4819 4.11234C40.8917 3.70461 41.3805 3.38488 41.9183 3.17272C42.4561 2.96057 43.0315 2.86045 43.6094 2.87854C44.1645 2.86974 44.7157 2.97351 45.2296 3.18356C45.7435 3.39362 46.2096 3.70561 46.5996 4.10073C46.9896 4.49584 47.2956 4.9659 47.499 5.4825C47.7024 5.9991 47.799 6.55157 47.783 7.10653ZM40.9448 6.95245C40.9448 9.21825 42.0233 10.9992 43.7091 10.9992C44.9915 10.9992 46.07 9.82096 46.07 7.4464C46.07 4.87246 44.9145 3.36796 43.3511 3.36796C42.046 3.38609 40.9448 4.69571 40.9448 6.95245Z" fill="#5FA17B"/>
    <path d="M57.8341 3.49028C56.8281 3.57638 56.742 3.63984 56.742 4.71836V9.68046C56.742 10.7454 56.8417 10.8224 57.8341 10.913V11.3164H54.1273V10.913C55.156 10.8224 55.2556 10.7454 55.2556 9.68046V7.23793H51.4899V9.66232C51.4899 10.7272 51.5896 10.8043 52.5684 10.8949V11.3164H48.9431V10.913C49.9084 10.8224 50.0216 10.7454 50.0216 9.68046V4.71836C50.0216 3.63984 49.9084 3.56279 48.9023 3.49028V3.06885H52.5276V3.49028C51.5896 3.56279 51.4899 3.63984 51.4899 4.71836V6.64882H55.2556V4.71836C55.2556 3.63984 55.1696 3.57638 54.2043 3.49028V3.06885H57.8296L57.8341 3.49028Z" fill="#5FA17B"/>
    <path d="M63.6437 11.3167V10.9134C64.405 10.7956 64.482 10.6597 64.3053 10.1249C64.1648 9.70802 63.9473 9.10985 63.7207 8.50261H61.1966C61.0289 8.95577 60.8522 9.45426 60.6981 9.9618C60.4851 10.6461 60.5486 10.7956 61.473 10.9134V11.3167H58.668V10.9134C59.4927 10.7956 59.6604 10.6823 60.0909 9.59474L62.692 3.03297L63.2494 2.87891C64.0606 5.0858 64.8627 7.36971 65.6874 9.55395C66.1043 10.6733 66.272 10.8092 67.0832 10.9134V11.3167H63.6437ZM62.5017 4.9725H62.47C62.0984 5.95133 61.7585 6.94375 61.4005 7.89086H63.5077L62.5017 4.9725Z" fill="#5FA17B"/>
    <path d="M72.1313 11.3165V10.9132C73.0829 10.8362 73.1872 10.7455 73.1872 9.55371V4.25173C73.1872 3.6309 73.1872 3.59013 72.734 3.59013H71.3745C70.9576 3.59013 70.9214 3.68077 70.9214 4.04329C70.9214 7.15197 70.5181 9.67607 69.6933 10.8679C69.3897 11.321 69.0951 11.5023 68.787 11.5023C68.5231 11.5082 68.2603 11.4652 68.0121 11.3754V11.108C68.5959 10.762 69.0533 10.2379 69.3172 9.61262C69.8519 8.56129 70.2235 6.65801 70.2235 4.28345C70.2235 3.68528 70.0332 3.53575 69.0453 3.47231V3.06445H75.7067V3.47231C74.7551 3.54935 74.6509 3.66263 74.6509 4.60067V9.54917C74.6509 10.741 74.7551 10.8316 75.7067 10.9087V11.3165H72.1313Z" fill="#5FA17B"/>
    <path d="M76.8397 11.3164V10.913C77.8049 10.836 77.9182 10.7454 77.9182 9.61702V4.79539C77.9182 3.65342 77.8049 3.56279 76.8623 3.49028V3.06885H80.4876V3.49028C79.4952 3.55373 79.3819 3.65344 79.3819 4.80899V6.36787C79.8351 6.33161 80.2565 6.30442 80.7006 6.30442C82.554 6.30442 83.6325 7.15637 83.6325 8.6382C83.6581 9.07241 83.5596 9.50492 83.3485 9.88525C83.1375 10.2656 82.8227 10.578 82.4407 10.7862C81.6359 11.1759 80.7464 11.3582 79.8532 11.3164H76.8397ZM79.3638 9.68046C79.3638 10.5868 79.6039 10.8088 80.2701 10.8088C81.0676 10.8088 81.983 10.2922 81.983 8.76507C81.983 7.23792 81.1311 6.82556 80.0798 6.82556C79.826 6.82556 79.5858 6.85274 79.3547 6.8754L79.3638 9.68046Z" fill="#5FA17B"/>
    <path d="M93.5386 3.49028C92.5326 3.57638 92.4465 3.63984 92.4465 4.71836V9.68046C92.4465 10.7454 92.5462 10.8224 93.5386 10.913V11.3164H89.8317V10.913C90.8604 10.8224 90.9601 10.7454 90.9601 9.68046V7.23793H87.1944V9.66232C87.1944 10.7272 87.294 10.8043 88.2729 10.8949V11.3164H84.6476V10.913C85.6128 10.8224 85.7261 10.7454 85.7261 9.68046V4.71836C85.7261 3.63984 85.6128 3.56279 84.6068 3.49028V3.06885H88.2321V3.49028C87.2941 3.56279 87.1944 3.63984 87.1944 4.71836V6.64882H90.9601V4.71836C90.9601 3.63984 90.874 3.57638 89.9088 3.49028V3.06885H93.5341L93.5386 3.49028Z" fill="#5FA17B"/>
    <path d="M94.6171 11.3164V10.913C95.5778 10.836 95.6956 10.7318 95.6956 9.59436V4.7682C95.6956 3.63983 95.5778 3.56279 94.6533 3.49028V3.06885H98.2786V3.49028C97.2635 3.56279 97.1502 3.63076 97.1502 4.79539V6.36787C97.5761 6.32187 98.0043 6.30068 98.4327 6.30442C100.282 6.30442 101.351 7.17903 101.351 8.6382C101.377 9.07296 101.278 9.50601 101.066 9.88649C100.854 10.267 100.538 10.5791 100.155 10.7862C99.3646 11.1765 98.4881 11.359 97.6079 11.3164H94.6171ZM97.1412 9.6442C97.1412 10.5505 97.3542 10.8224 98.0475 10.8224C98.7408 10.8224 99.7197 10.3421 99.7197 8.76507C99.7197 7.31043 98.9447 6.82556 97.8028 6.82556C97.5832 6.82558 97.3639 6.83766 97.1457 6.86179L97.1412 9.6442ZM101.414 11.3164V10.913C102.357 10.836 102.47 10.7091 102.47 9.63062V4.70475C102.47 3.66701 102.357 3.56279 101.414 3.49028V3.06885H104.994V3.49028C104.043 3.56279 103.943 3.65343 103.943 4.71836V9.6442C103.943 10.7091 104.043 10.836 104.994 10.913V11.3164H101.414Z" fill="#5FA17B"/>
    <path d="M111.298 11.3166V10.9132C112.29 10.8362 112.39 10.7456 112.39 9.59456V6.49493C112.39 6.04177 112.39 5.4436 112.454 4.22913H112.417L108.892 10.6776C108.806 10.8277 108.765 10.999 108.774 11.1715V11.3166H106.087V10.9132C107.075 10.8362 107.179 10.7229 107.179 9.52657V4.79558C107.179 3.65362 107.075 3.56298 106.087 3.49048V3.06904H109.662V3.49048C108.756 3.56298 108.624 3.63096 108.624 4.76839V7.53719C108.624 8.06739 108.624 8.72902 108.561 10.0477L112.091 3.65364C112.179 3.51872 112.228 3.3617 112.232 3.20048V3.04639H114.905V3.46782C113.931 3.54033 113.818 3.65817 113.818 4.78654V9.59456C113.818 10.7456 113.931 10.8362 114.905 10.9132V11.3166H111.298ZM108.978 1.3833C108.974 1.31471 108.983 1.24593 109.006 1.18103C109.028 1.11614 109.064 1.05641 109.11 1.00534C109.156 0.95428 109.211 0.91293 109.274 0.883673C109.336 0.854416 109.403 0.837847 109.472 0.834966C109.543 0.834629 109.614 0.849901 109.679 0.879718C109.743 0.909536 109.801 0.953184 109.847 1.00758C109.893 1.06198 109.927 1.12582 109.946 1.19464C109.965 1.26346 109.969 1.33558 109.957 1.40595C109.952 1.49325 109.967 1.58048 109.999 1.66155C110.032 1.74261 110.082 1.81554 110.146 1.87515C110.21 1.93477 110.286 1.97964 110.369 2.00662C110.453 2.0336 110.541 2.04203 110.627 2.03132C110.714 2.04489 110.803 2.03841 110.887 2.01234C110.971 1.98628 111.048 1.94134 111.112 1.88096C111.175 1.82059 111.225 1.74637 111.255 1.66404C111.286 1.5817 111.298 1.49342 111.289 1.40595C111.279 1.33518 111.285 1.26316 111.305 1.1947C111.326 1.12623 111.36 1.06287 111.407 1.00886C111.454 0.954839 111.511 0.91139 111.576 0.881405C111.641 0.851421 111.711 0.835598 111.783 0.834966C111.853 0.83541 111.922 0.850228 111.986 0.878474C112.05 0.906719 112.108 0.947785 112.155 0.999176C112.203 1.05057 112.24 1.11118 112.263 1.17724C112.286 1.24331 112.295 1.31345 112.29 1.3833C112.29 2.09476 111.642 2.52524 110.627 2.52524C109.612 2.52524 108.978 2.09476 108.978 1.3833Z" fill="#5FA17B"/>
    <path d="M5.44879 26.5426V26.1393C6.43668 26.0623 6.5409 25.9717 6.5409 24.8161V21.7391C6.5409 21.286 6.5409 20.6878 6.60434 19.4733H6.56356L3.03797 25.9218C2.95401 26.0723 2.91471 26.2437 2.92468 26.4158V26.5789H0.23291V26.1756C1.22533 26.0985 1.32503 25.9852 1.32503 24.7889V20.0217C1.32503 18.8797 1.22533 18.7891 0.23291 18.7166V18.2951H3.81288V18.7166C2.8839 18.7891 2.77061 18.8525 2.77061 19.9945V22.7633C2.77061 23.2935 2.77061 23.9551 2.70717 25.2738H2.73436L6.25994 18.8797C6.35038 18.7458 6.39925 18.5881 6.40042 18.4265V18.2725H9.0786V18.6939C8.09977 18.7664 7.98648 18.8842 7.98648 20.0126V24.7934C7.98648 25.949 8.09977 26.0396 9.0786 26.1167V26.52L5.44879 26.5426Z" fill="#5FA17B"/>
    <path d="M17.8971 24.3994C17.7022 25.0813 17.4646 25.7503 17.1856 26.4023C16.4113 26.5896 15.6205 26.7004 14.8246 26.7332C11.5392 26.7332 10.1299 24.5399 10.1299 22.5324C10.1299 19.895 12.1464 18.105 15.1146 18.105C15.881 18.1281 16.6418 18.2437 17.3804 18.4494C17.4847 19.1473 17.5753 19.7182 17.6614 20.466L17.2082 20.5566C16.8276 19.1065 15.9258 18.6261 14.811 18.6261C12.867 18.6261 11.8156 20.3753 11.8156 22.2786C11.8156 24.6169 13.1117 26.1894 14.9107 26.1894C16.0663 26.1894 16.8004 25.5051 17.4484 24.2362L17.8971 24.3994Z" fill="#5FA17B"/>
    <path d="M26.7383 24.3994C26.5469 25.0818 26.3107 25.7509 26.0313 26.4023C25.2571 26.5896 24.4663 26.7004 23.6704 26.7332C20.385 26.7332 18.9756 24.5399 18.9756 22.5324C18.9756 19.895 20.9922 18.105 23.9604 18.105C24.7268 18.1284 25.4875 18.244 26.2262 18.4494C26.3259 19.1473 26.4165 19.7182 26.5072 20.466L26.054 20.5566C25.6734 19.1065 24.7716 18.6261 23.6568 18.6261C21.7127 18.6261 20.6614 20.3753 20.6614 22.2786C20.6614 24.6169 21.9529 26.1894 23.7565 26.1894C24.912 26.1894 25.6462 25.5051 26.2942 24.2362L26.7383 24.3994Z" fill="#5FA17B"/>
    <path d="M31.7367 26.5427V26.1394C32.6883 26.0624 32.7925 25.9717 32.7925 24.7799V19.4734C32.7925 18.848 32.7925 18.8118 32.3394 18.8118H30.9799C30.563 18.8118 30.5267 18.9024 30.5267 19.2649C30.5267 22.3736 30.1189 24.8977 29.2941 26.0895C28.9905 26.5427 28.696 26.724 28.3878 26.724C28.1239 26.7294 27.8613 26.6864 27.6129 26.5971V26.3297C28.1984 25.9844 28.6575 25.4602 28.9225 24.8343C29.4527 23.783 29.8289 21.8797 29.8289 19.5051C29.8289 18.907 29.6385 18.7574 28.6506 18.694V18.2861H35.3121V18.694C34.3605 18.771 34.2562 18.8843 34.2562 19.8224V24.7709C34.2562 25.9627 34.3605 26.0533 35.3121 26.1303V26.5337L31.7367 26.5427Z" fill="#5FA17B"/>
    <path d="M43.0929 24.4584C42.9767 25.1544 42.8254 25.844 42.6397 26.5248H36.2955V26.1215C37.4012 26.0308 37.5145 25.9402 37.5145 24.8753V19.9585C37.5145 18.8437 37.4012 18.7894 36.4767 18.7168V18.2954H42.3225C42.3225 18.5492 42.3995 19.4374 42.4494 20.176L42.0189 20.2395C41.9511 19.8462 41.7962 19.4731 41.5657 19.1474C41.3618 18.9072 41.0174 18.8165 40.2334 18.8165H39.4948C39.0416 18.8165 39.0144 18.8437 39.0144 19.2697V22.0249H39.9887C41.0808 22.0249 41.2077 21.9479 41.3754 21.0733H41.8059V23.5521H41.3754C41.2077 22.6457 41.0808 22.5868 39.9887 22.5868H39.0144V24.8526C39.0144 25.4599 39.0779 25.7589 39.318 25.8903C39.7014 26.0188 40.1071 26.0667 40.5099 26.0308C41.2848 26.0308 41.7017 25.9447 41.9962 25.6139C42.2894 25.2477 42.5206 24.8359 42.6805 24.3949L43.0929 24.4584Z" fill="#5FA17B"/>
    <path d="M51.1726 28.7632H50.7195L50.5291 27.5079C50.4294 26.7104 50.2527 26.5427 49.6228 26.5427H45.4991C44.8782 26.5427 44.7242 26.7738 44.4976 27.6212L44.1894 28.7632H43.7363L43.7997 26.0442H44.4568C44.5401 26.0531 44.6238 26.0313 44.6922 25.983C44.7606 25.9346 44.809 25.8629 44.8284 25.7814C45.3722 24.7119 45.7891 22.5051 45.7891 19.5731C45.7891 19.0293 45.6894 18.9025 45.0414 18.8028L44.561 18.7393V18.3179H51.4264V18.7393C50.4204 18.8118 50.3343 18.8753 50.3343 20.0988V25.3645C50.3343 25.9581 50.3841 26.0216 50.7376 26.0216H51.5261L51.1726 28.7632ZM48.8253 19.5776C48.8253 18.8526 48.8253 18.8163 48.3177 18.8163H46.9582C46.4643 18.8163 46.4371 18.8526 46.4371 19.2967C46.4371 21.0867 46.2604 23.792 45.703 25.6409C45.6259 25.9309 45.6395 26.0306 45.9794 26.0306H48.0503C48.6848 26.0306 48.8479 25.9174 48.8479 25.1696L48.8253 19.5776Z" fill="#5FA17B"/>
    <path d="M61.0243 22.3328C61.0528 22.912 60.9609 23.4908 60.7545 24.0327C60.548 24.5746 60.2315 25.0679 59.8249 25.4814C59.4182 25.8948 58.9303 26.2195 58.3919 26.4349C57.8535 26.6503 57.2762 26.7518 56.6966 26.733C56.1343 26.7456 55.5753 26.6434 55.0539 26.4324C54.5324 26.2215 54.0595 25.9064 53.6641 25.5063C53.2688 25.1063 52.9592 24.6297 52.7544 24.1058C52.5496 23.5819 52.4539 23.0218 52.4732 22.4597C52.4574 21.8816 52.5601 21.3063 52.7748 20.7694C52.9895 20.2324 53.3118 19.745 53.7217 19.3371C54.1317 18.9292 54.6208 18.6095 55.1589 18.3976C55.697 18.1857 56.2727 18.086 56.8507 18.1048C57.4058 18.096 57.957 18.1997 58.4709 18.4098C58.9849 18.6198 59.4509 18.9319 59.8409 19.327C60.231 19.7221 60.5369 20.1921 60.7403 20.7087C60.9437 21.2253 61.0403 21.7778 61.0243 22.3328ZM54.1861 22.1923C54.1861 24.4581 55.2647 26.239 56.9504 26.239C58.2329 26.239 59.3114 25.0608 59.3114 22.6862C59.3114 20.1123 58.1558 18.6078 56.5924 18.6078C55.2873 18.6123 54.1861 19.9265 54.1861 22.1923Z" fill="#5FA17B"/>
    <path d="M66.6299 22.1151C68.0256 22.2919 69.0044 22.8764 69.0044 24.109C69.0049 24.5063 68.8933 24.8956 68.6825 25.2322C68.4717 25.5689 68.1702 25.8393 67.8126 26.0123C67.0054 26.3997 66.1151 26.5819 65.2206 26.5425H62.1481V26.1256C63.1632 26.0486 63.2674 25.9579 63.2674 24.893V19.9264C63.2674 18.8615 63.1768 18.7708 62.2388 18.6983V18.2769H65.7779C66.4847 18.2217 67.1918 18.3796 67.8081 18.73C68.0422 18.8879 68.2327 19.1024 68.3618 19.3535C68.4909 19.6046 68.5546 19.8843 68.5467 20.1666C68.5467 21.381 67.5045 21.8795 66.6525 22.0562L66.6299 22.1151ZM65.1073 21.9384C66.3897 21.9384 66.9471 21.4309 66.9471 20.375C66.9471 19.3191 66.3399 18.7799 65.4653 18.7799C65.2479 18.7656 65.0314 18.8178 64.8444 18.9294C64.7402 19.0065 64.7039 19.1832 64.7039 19.5004V21.9384H65.1073ZM64.7039 24.8703C64.7039 25.7767 64.9577 26.0622 65.6783 26.0486C65.9116 26.0536 66.1433 26.009 66.3581 25.9178C66.573 25.8266 66.766 25.6908 66.9245 25.5195C67.0829 25.3482 67.2033 25.1452 67.2775 24.9239C67.3517 24.7026 67.3781 24.4682 67.3549 24.2359C67.3549 23.0169 66.5574 22.4233 65.0891 22.4233H64.7085L64.7039 24.8703Z" fill="#5FA17B"/>
    <path d="M74.5375 26.5428V26.1395C75.2988 26.0217 75.3714 25.8857 75.1946 25.351C75.0541 24.9341 74.8412 24.3359 74.61 23.7287H72.0859C71.9228 24.1819 71.7461 24.6803 71.592 25.1879C71.379 25.8721 71.4379 26.0217 72.3669 26.1395V26.5428H69.5618V26.1395C70.3866 26.0217 70.5497 25.9084 70.9848 24.8163L73.5859 18.2591L74.1433 18.105C74.9544 20.3119 75.752 22.5958 76.5768 24.78C76.9982 25.8948 77.1613 26.0353 77.9725 26.1395V26.5428H74.5375ZM73.3956 20.1986H73.3774C73.0104 21.1774 72.666 22.1653 72.3125 23.1169H74.4197L73.3956 20.1986Z" fill="#5FA17B"/>
    <path d="M84.7382 20.3798C84.6677 19.9344 84.4989 19.5103 84.2443 19.1381C84.0131 18.8843 83.7367 18.8073 82.912 18.8073H82.2231V24.9114C82.2231 25.9672 82.341 26.0669 83.4965 26.1576V26.5609H79.5359V26.1576C80.628 26.0669 80.7549 25.9672 80.7549 24.9114V18.8164H80.1749C79.1326 18.8164 78.8924 18.9297 78.7157 19.1698C78.4704 19.5427 78.3053 19.9624 78.2308 20.4024H77.7776C77.8275 19.5414 77.9045 18.6396 77.9317 17.978H78.2218C78.4121 18.2726 78.5752 18.2952 78.9332 18.2952H84.0086C84.1423 18.3061 84.2766 18.2827 84.3987 18.2271C84.5208 18.1716 84.6267 18.0859 84.7065 17.978H84.9965C84.9965 18.5264 85.0599 19.5777 85.1234 20.3662L84.7382 20.3798Z" fill="#5FA17B"/>
    <path d="M92.732 24.4584C92.6549 24.9659 92.4012 26.1441 92.2788 26.5248H85.9346V26.1215C87.0357 26.0308 87.1536 25.9402 87.1536 24.8753V19.9585C87.1536 18.8437 87.0358 18.7894 86.1113 18.7168V18.2954H91.9571C91.9571 18.5492 92.0341 19.4374 92.084 20.176L91.6534 20.2395C91.5858 19.8462 91.431 19.473 91.2003 19.1474C90.9964 18.9072 90.6565 18.8165 89.868 18.8165H89.1339C88.6807 18.8165 88.649 18.8437 88.649 19.2697V22.0249H89.6278C90.7199 22.0249 90.8468 21.9479 90.9873 21.0733H91.4405V23.5521H90.9873C90.8242 22.6457 90.6973 22.5868 89.6278 22.5868H88.649V24.8526C88.649 25.4599 88.7124 25.7589 88.9526 25.8903C89.3376 26.0185 89.7448 26.0663 90.149 26.0308C90.9193 26.0308 91.3408 25.9447 91.6308 25.6139C91.9256 25.2488 92.1569 24.8367 92.3151 24.3949L92.732 24.4584Z" fill="#5FA17B"/>
    <path d="M97.6396 26.5427V26.1394C98.5913 26.0624 98.6955 25.9717 98.6955 24.7799V19.4734C98.6955 18.848 98.6955 18.8118 98.2423 18.8118H96.8828C96.4659 18.8118 96.4297 18.9024 96.4297 19.2649C96.4297 22.3736 96.0218 24.8977 95.1971 26.0895C94.8935 26.5427 94.5989 26.724 94.2908 26.724C94.0269 26.7294 93.7642 26.6864 93.5159 26.5971V26.3297C94.1014 25.9844 94.5604 25.4602 94.8255 24.8343C95.3557 23.783 95.7318 21.8797 95.7318 19.5051C95.7318 18.907 95.5415 18.7574 94.5536 18.694V18.2861H101.215V18.694C100.263 18.771 100.159 18.8843 100.159 19.8224V24.7709C100.159 25.9627 100.263 26.0533 101.215 26.1303V26.5337L97.6396 26.5427Z" fill="#5FA17B"/>
    <path d="M102.348 26.5424V26.1391C103.313 26.0621 103.427 25.9714 103.427 24.8431V20.0215C103.427 18.8795 103.313 18.7889 102.375 18.7164V18.2949H105.978V18.7164C104.99 18.7798 104.872 18.8795 104.872 20.035V21.5939C105.325 21.5577 105.751 21.5305 106.195 21.5305C108.044 21.5305 109.123 22.3824 109.123 23.8642C109.148 24.2985 109.05 24.731 108.839 25.1113C108.628 25.4916 108.313 25.8041 107.931 26.0122C107.126 26.4024 106.237 26.5846 105.343 26.5424H102.348ZM104.872 24.911C104.872 25.8174 105.117 26.0394 105.779 26.0394C106.576 26.0394 107.491 25.5183 107.491 23.9957C107.491 22.473 106.64 22.0561 105.588 22.0561C105.334 22.0561 105.094 22.0833 104.863 22.106L104.872 24.911Z" fill="#5FA17B"/>
    <path d="M118.286 24.3994C118.095 25.0826 117.857 25.7519 117.574 26.4023C116.8 26.5896 116.009 26.7004 115.213 26.7332C111.928 26.7332 110.518 24.5399 110.518 22.5324C110.518 19.895 112.54 18.105 115.503 18.105C116.27 18.1288 117.03 18.2445 117.769 18.4494C117.869 19.1473 117.959 19.7182 118.045 20.466L117.592 20.5566C117.212 19.1065 116.31 18.6261 115.195 18.6261C113.256 18.6261 112.2 20.3753 112.2 22.2786C112.2 24.6169 113.496 26.1894 115.299 26.1894C116.45 26.1894 117.189 25.5051 117.833 24.2362L118.286 24.3994Z" fill="#5FA17B"/>
    <path d="M125.722 26.5427C124.816 26.5427 124.462 26.1485 124.095 25.3781C123.932 25.0065 123.642 24.3222 123.32 23.6017C122.903 22.5595 122.414 22.3555 121.671 22.3691V24.8162C121.671 25.9853 121.775 26.0624 122.727 26.1394V26.5427H119.147V26.1394C120.112 26.0624 120.216 25.9853 120.216 24.8434V19.9855C120.216 18.8526 120.112 18.7892 119.147 18.7167V18.2952H122.74V18.7167C121.775 18.7892 121.684 18.8526 121.684 19.9855V21.8978C121.968 21.9283 122.255 21.8967 122.525 21.8052C122.795 21.7136 123.041 21.5643 123.248 21.3676C123.642 21.0006 123.896 20.4613 124.34 19.4508C124.784 18.4402 125.246 18.0913 125.835 18.0913C126.288 18.0913 126.569 18.3723 126.569 18.6895C126.569 19.0067 126.293 19.1064 126.039 19.1064H125.785C125.278 19.1064 124.997 19.4372 124.426 20.5927C124.177 21.1811 123.747 21.6748 123.198 22.0021V22.0383C123.541 22.1214 123.861 22.2796 124.135 22.5013C124.409 22.7231 124.631 23.003 124.784 23.3208C124.983 23.7014 125.301 24.4129 125.69 25.1606C125.79 25.4418 125.974 25.6854 126.217 25.8581C126.461 26.0309 126.751 26.1244 127.05 26.1258V26.5291L125.722 26.5427Z" fill="#5FA17B"/>
    <path d="M133.027 26.5426V26.1393C134.02 26.0623 134.119 25.9717 134.119 24.8161V21.7391C134.119 21.286 134.119 20.6878 134.183 19.4733H134.147L130.616 25.9218C130.532 26.0723 130.493 26.2437 130.503 26.4158V26.5789H127.816V26.1756C128.804 26.0985 128.903 25.9852 128.903 24.7889V20.0217C128.903 18.8797 128.804 18.7891 127.816 18.7166V18.2951H131.382V18.7166C130.476 18.7891 130.344 18.8525 130.344 19.9945V22.7633C130.344 23.2935 130.344 23.9551 130.281 25.2738H130.304L133.834 18.8797C133.921 18.7445 133.968 18.5874 133.97 18.4265V18.2725H136.648V18.6939C135.674 18.7664 135.556 18.8842 135.556 20.0126V24.7934C135.556 25.949 135.674 26.0396 136.648 26.1167V26.52L133.027 26.5426Z" fill="#5FA17B"/>
    <path d="M142.938 26.5426V26.1393C143.93 26.0623 144.03 25.9717 144.03 24.8161V21.7392C144.03 21.286 144.03 20.6878 144.093 19.4734H144.07L140.54 25.9218C140.456 26.0723 140.417 26.2437 140.427 26.4158V26.5789H137.726V26.1756C138.719 26.0985 138.818 25.9853 138.818 24.7889V20.0217C138.818 18.8797 138.719 18.7891 137.726 18.7166V18.2951H141.306V18.7166C140.4 18.7891 140.264 18.8525 140.264 19.9945V22.7633C140.264 23.2935 140.264 23.9551 140.2 25.2738H140.228L143.753 18.8797C143.844 18.7458 143.893 18.5881 143.894 18.4266V18.2725H146.572V18.6939C145.593 18.7664 145.48 18.8842 145.48 20.0126V24.7934C145.48 25.949 145.593 26.0396 146.572 26.1167V26.52L142.938 26.5426ZM140.617 16.6094C140.613 16.5408 140.623 16.472 140.645 16.4071C140.668 16.3422 140.703 16.2825 140.749 16.2315C140.795 16.1804 140.851 16.139 140.913 16.1098C140.975 16.0805 141.043 16.0639 141.111 16.061C141.183 16.0606 141.253 16.0758 141.318 16.1057C141.382 16.1355 141.44 16.1793 141.486 16.2338C141.531 16.2883 141.565 16.3522 141.583 16.4211C141.601 16.4899 141.604 16.5619 141.592 16.632C141.587 16.7198 141.602 16.8075 141.635 16.8889C141.668 16.9703 141.718 17.0435 141.782 17.1032C141.847 17.1629 141.924 17.2076 142.007 17.2343C142.091 17.261 142.18 17.2688 142.267 17.2574C142.761 17.2574 142.938 16.9628 142.924 16.632C142.915 16.561 142.921 16.4889 142.942 16.4204C142.963 16.352 142.998 16.2887 143.045 16.2348C143.092 16.1809 143.15 16.1375 143.215 16.1076C143.28 16.0776 143.351 16.0618 143.422 16.061C143.492 16.0615 143.562 16.0763 143.626 16.1046C143.69 16.1328 143.747 16.1739 143.795 16.2253C143.843 16.2767 143.879 16.3373 143.902 16.4033C143.925 16.4694 143.935 16.5395 143.93 16.6094C143.93 17.3208 143.282 17.7514 142.267 17.7514C141.252 17.7514 140.617 17.3208 140.617 16.6094Z" fill="#5FA17B"/>
    <path d="M159.478 28.763H159.025L158.834 27.5077C158.73 26.7102 158.553 26.5425 157.905 26.5425H151.008V26.1392C152.023 26.0622 152.123 25.9851 152.123 24.7435V19.9264C152.123 18.8478 152.023 18.7617 151.045 18.6847V18.2769H154.67V18.6847C153.705 18.7617 153.605 18.8478 153.605 19.9264V25.3643C153.605 25.9851 153.641 26.0214 154.253 26.0214H156.473C157.081 26.0214 157.13 25.9987 157.13 25.3869V20.0986C157.13 18.866 157.044 18.7799 156.043 18.7028V18.295H159.668V18.7028C158.694 18.7799 158.59 18.866 158.59 20.0986V25.3643C158.59 25.9579 158.653 25.9987 159.011 25.9987H159.795L159.478 28.763Z" fill="#5FA17B"/>
    <path d="M167.54 24.4584C167.423 25.1544 167.272 25.844 167.086 26.5248H160.742V26.1215C161.848 26.0308 161.961 25.9402 161.961 24.8753V19.9585C161.961 18.8437 161.848 18.7894 160.923 18.7168V18.2954H166.769C166.769 18.5492 166.846 19.4374 166.896 20.176L166.466 20.2395C166.398 19.8462 166.243 19.4731 166.012 19.1474C165.809 18.9072 165.464 18.8165 164.68 18.8165H163.941C163.488 18.8165 163.461 18.8437 163.461 19.2697V22.0249H164.435C165.528 22.0249 165.654 21.9479 165.822 21.0733H166.275V23.5521H165.822C165.654 22.6457 165.528 22.5868 164.435 22.5868H163.461V24.8526C163.461 25.4599 163.525 25.7589 163.765 25.8903C164.148 26.0188 164.554 26.0667 164.957 26.0308C165.732 26.0308 166.148 25.9447 166.443 25.6139C166.736 25.2477 166.967 24.8359 167.127 24.3949L167.54 24.4584Z" fill="#5FA17B"/>
    <path d="M177.233 18.7164C176.231 18.8025 176.145 18.866 176.145 19.9445V24.9292C176.145 25.9942 176.245 26.0712 177.233 26.1619V26.5652H173.526V26.1619C174.555 26.0712 174.654 25.9942 174.654 24.9292V22.5048H170.884V24.9111C170.884 25.9761 170.988 26.0531 171.967 26.1437V26.547H168.342V26.1437C169.302 26.0531 169.42 25.9761 169.42 24.9111V19.9264C169.42 18.8478 169.302 18.7708 168.301 18.6983V18.2769H171.926V18.6983C170.988 18.7708 170.884 18.8478 170.884 19.9264V21.8568H174.654V19.9264C174.654 18.8478 174.564 18.7844 173.603 18.6983V18.2769H177.228L177.233 18.7164Z" fill="#5FA17B"/>
    <path d="M185.113 20.3798C185.045 19.9338 184.876 19.5092 184.619 19.1381C184.393 18.8843 184.112 18.8073 183.287 18.8073H182.589V24.9114C182.589 25.9672 182.702 26.0669 183.858 26.1576V26.5609H179.897V26.1576C180.989 26.0669 181.116 25.9672 181.116 24.9114V18.8164H180.545C179.503 18.8164 179.263 18.9297 179.086 19.1698C178.841 19.5424 178.677 19.9624 178.606 20.4024H178.153C178.207 19.5414 178.279 18.6396 178.307 17.978H178.597C178.787 18.2726 178.955 18.2952 179.308 18.2952H184.402C184.535 18.3065 184.67 18.2833 184.792 18.2277C184.914 18.1722 185.02 18.0862 185.099 17.978H185.394C185.394 18.5264 185.457 19.5777 185.521 20.3662L185.113 20.3798Z" fill="#5FA17B"/>
    <path d="M189.898 18.2955C190.665 18.2329 191.431 18.4103 192.092 18.803C192.385 19.0095 192.621 19.2861 192.779 19.6075C192.938 19.9289 193.013 20.2849 192.998 20.6429C192.998 22.3332 191.756 23.1035 190.447 23.2712C190.27 23.2865 190.093 23.2865 189.917 23.2712L189.01 23.0537V24.9116C189.01 25.9766 189.124 26.0536 190.229 26.1442V26.5475H186.473V26.1442C187.451 26.0536 187.565 25.9629 187.565 24.898V19.9586C187.565 18.8665 187.451 18.7894 186.55 18.7169V18.2955H189.898ZM188.992 22.596C189.241 22.6819 189.503 22.7248 189.767 22.7229C190.361 22.7229 191.376 22.3558 191.376 20.6836C191.376 19.2743 190.542 18.7668 189.676 18.7668C189.482 18.7535 189.288 18.7976 189.119 18.8936C189.028 18.9707 188.992 19.1066 188.992 19.3468V22.596Z" fill="#5FA17B"/>
    <path d="M1.13805 33.4897C1.02373 33.5938 0.93213 33.7204 0.868971 33.8615C0.805812 34.0026 0.772458 34.1553 0.77099 34.3099C0.767326 34.4235 0.78899 34.5365 0.834425 34.6407C0.868067 34.7095 0.910738 34.7735 0.96131 34.831C1.0386 34.7806 1.12469 34.7453 1.21508 34.7268C1.30861 34.72 1.40252 34.72 1.49605 34.7268C1.59489 34.7264 1.69304 34.7432 1.78606 34.7766C1.8892 34.8106 1.98465 34.8645 2.06702 34.9352C2.15572 35.0141 2.22809 35.1095 2.28001 35.2162C2.33964 35.3447 2.37053 35.4847 2.37053 35.6263C2.37053 35.768 2.33964 35.9079 2.28001 36.0364C2.22615 36.1457 2.14877 36.2416 2.05343 36.3174C1.96052 36.3901 1.8543 36.444 1.74075 36.476C1.63223 36.5099 1.5191 36.5267 1.40541 36.5258C1.24713 36.5264 1.09074 36.4913 0.947937 36.423C0.80513 36.3548 0.679583 36.2552 0.580657 36.1316C0.333123 35.8148 0.210574 35.418 0.236265 35.0168C0.230872 34.7149 0.294404 34.4158 0.422048 34.1422C0.539781 33.8965 0.692413 33.6691 0.875208 33.467C1.05362 33.2784 1.24934 33.107 1.45979 32.9549L2.04437 32.5562L2.13499 32.7193C1.78241 32.9487 1.44901 33.2064 1.13805 33.4897ZM3.76637 33.4897C3.65206 33.5938 3.56045 33.7204 3.49729 33.8615C3.43413 34.0026 3.40078 34.1553 3.39931 34.3099C3.3935 34.4236 3.41527 34.5371 3.46276 34.6407C3.49479 34.7104 3.53761 34.7746 3.58965 34.831C3.66609 34.7791 3.75251 34.7435 3.84341 34.7268C3.93543 34.72 4.02782 34.72 4.11984 34.7268C4.22015 34.7264 4.3198 34.7433 4.4144 34.7766C4.51659 34.8097 4.61074 34.8637 4.69082 34.9352C4.78207 35.0128 4.85616 35.1084 4.90834 35.2162C4.96513 35.3455 4.99446 35.4851 4.99446 35.6263C4.99446 35.7675 4.96513 35.9072 4.90834 36.0364C4.85426 36.1468 4.77511 36.243 4.67723 36.3174C4.58625 36.3905 4.48144 36.4444 4.36908 36.476C4.26056 36.5099 4.14742 36.5267 4.03373 36.5258C3.87545 36.5264 3.71908 36.4913 3.57627 36.423C3.43347 36.3548 3.30792 36.2552 3.20899 36.1316C2.95953 35.8158 2.83673 35.4183 2.86459 35.0168C2.85919 34.7149 2.92274 34.4158 3.05038 34.1422C3.16812 33.8965 3.32075 33.6691 3.50354 33.467C3.67988 33.2763 3.87582 33.1046 4.08812 32.9549C4.30111 32.8054 4.49143 32.674 4.67269 32.5562L4.75879 32.7193C4.40839 32.9498 4.07656 33.2074 3.76637 33.4897Z" fill="#5FA17B"/>
    <path d="M9.71634 37.2557C10.9716 37.4189 12.0365 38.0261 12.0365 39.4128C12.0365 41.1982 10.3145 41.9595 8.53813 41.9595C7.81266 41.9784 7.09753 41.7846 6.48079 41.4022C6.31992 41.2925 6.18446 41.1496 6.08361 40.9831C5.98276 40.8165 5.91885 40.6303 5.89621 40.4369C5.88866 40.2932 5.93746 40.1522 6.03223 40.0439C6.12701 39.9356 6.26029 39.8685 6.40375 39.8569C6.53624 39.8763 6.66201 39.9278 6.77018 40.0067C6.87835 40.0857 6.96566 40.1898 7.02457 40.31C7.14826 40.631 7.36384 40.9084 7.64433 41.1074C7.92483 41.3065 8.25778 41.4185 8.60157 41.4294C9.28585 41.4294 10.1242 40.9762 10.1242 39.5125C10.1242 38.3433 9.48976 37.6092 8.7647 37.6092C8.4339 37.6092 8.09404 37.7587 7.71338 37.7587C7.64373 37.7683 7.57283 37.7631 7.50529 37.7436C7.43776 37.724 7.37507 37.6906 7.32127 37.6453C7.26747 37.6001 7.22375 37.544 7.19294 37.4808C7.16214 37.4176 7.14491 37.3487 7.1424 37.2784C7.14499 37.2068 7.16245 37.1365 7.19366 37.072C7.22488 37.0075 7.26918 36.9502 7.32373 36.9038C7.37828 36.8573 7.44189 36.8227 7.51054 36.8022C7.57918 36.7816 7.65134 36.7756 7.72244 36.7845C8.11669 36.7845 8.4339 36.934 8.79189 36.934C9.2224 36.934 9.85682 36.5035 9.85682 35.5156C9.85682 34.5277 9.32209 33.8525 8.53813 33.8525C7.59555 33.8525 7.05176 34.8177 6.7708 35.7286L6.31764 35.6017C6.41734 35.1486 6.50797 34.1969 6.54422 33.7891C6.7844 33.712 6.99738 33.6486 7.31912 33.5489C7.82708 33.4052 8.35045 33.3231 8.878 33.3042C10.6906 33.3042 11.6332 34.1154 11.6332 35.2845C11.6291 35.5524 11.5612 35.8155 11.4351 36.0519C11.309 36.2883 11.1284 36.4913 10.9082 36.644C10.5421 36.8807 10.1394 37.0552 9.71634 37.1606V37.2557Z" fill="#5FA17B"/>
    <path d="M20.4019 44.0391H19.8943L19.6904 42.7114C19.5771 41.9365 19.4095 41.7688 18.7524 41.7688H14.5652C13.9942 41.7688 13.8265 41.9999 13.6136 42.8609L13.2827 44.0391H12.7752L12.8387 41.2114H13.5592C13.6386 41.2148 13.7168 41.1918 13.7816 41.1458C13.8464 41.0999 13.8941 41.0336 13.9172 40.9576C14.3114 40.1102 14.7782 38.1163 14.7782 34.8309C14.7782 34.2962 14.7283 34.133 14.0169 34.0288L13.5637 33.9654V33.5122H20.6421V33.9654C19.627 34.0424 19.55 34.1058 19.55 35.352V40.5498C19.55 41.1344 19.5907 41.2114 19.9442 41.2114H20.7554L20.4019 44.0391ZM17.8234 34.7901C17.8234 34.1194 17.8234 34.0832 17.3295 34.0832H15.9972C15.4896 34.0832 15.476 34.1194 15.476 34.6134C15.4939 36.6984 15.2812 38.7789 14.8416 40.8171C14.7646 41.1253 14.7782 41.2114 15.1362 41.2114H17.0394C17.6603 41.2114 17.8234 41.1117 17.8234 40.4002V34.7901Z" fill="#5FA17B"/>
    <path d="M30.3352 37.5593C30.3417 38.1276 30.2363 38.6917 30.0249 39.2192C29.8134 39.7468 29.5001 40.2275 29.1029 40.634C28.7057 41.0405 28.2323 41.3648 27.7097 41.5883C27.1872 41.8119 26.6257 41.9303 26.0574 41.9368C25.489 41.9434 24.925 41.8379 24.3974 41.6265C23.8699 41.415 23.3891 41.1018 22.9826 40.7045C22.5761 40.3073 22.2519 39.8339 22.0283 39.3113C21.8048 38.7888 21.6864 38.2273 21.6798 37.659C21.6679 37.0766 21.776 36.498 21.9973 35.9591C22.2187 35.4202 22.5485 34.9327 22.9663 34.5268C23.3841 34.1209 23.881 33.8052 24.426 33.5996C24.9711 33.3939 25.5526 33.3026 26.1344 33.3313C26.6918 33.3188 27.2459 33.4198 27.763 33.6282C28.2802 33.8366 28.7495 34.148 29.1424 34.5435C29.5354 34.939 29.8438 35.4103 30.0489 35.9288C30.2539 36.4472 30.3513 37.002 30.3352 37.5593ZM23.6239 37.4188C23.6239 39.5895 24.5891 41.4293 26.2114 41.4293C27.4168 41.4293 28.3957 40.2466 28.3957 37.9128C28.3957 35.3887 27.367 33.8661 25.9078 33.8661C24.6254 33.8661 23.6239 35.221 23.6239 37.4188Z" fill="#5FA17B"/>
    <path d="M34.9938 33.5213C35.9953 33.5213 36.7158 33.6618 37.2143 34.0152C37.5157 34.2218 37.7598 34.5014 37.9239 34.8279C38.0879 35.1544 38.1665 35.5171 38.1523 35.8823C38.1523 37.5816 36.8971 38.3565 35.5648 38.5242C35.3871 38.542 35.2086 38.5496 35.0301 38.5468L34.169 38.3429V40.083C34.169 41.1615 34.2823 41.2477 35.3744 41.3383V41.7915H31.4274V41.3383C32.3791 41.2477 32.4924 41.1615 32.4924 40.083V35.2206C32.4924 34.1421 32.3791 34.0696 31.5045 33.9654V33.5122L34.9938 33.5213ZM34.169 37.8354C34.3875 37.9191 34.6194 37.9621 34.8533 37.9622C35.3065 37.9622 36.3351 37.636 36.3351 35.9185C36.3351 34.4865 35.524 34.0152 34.7491 34.0152C34.5885 34.0089 34.4299 34.0533 34.2959 34.1421C34.2077 34.2535 34.167 34.3951 34.1826 34.5364L34.169 37.8354Z" fill="#5FA17B"/>
    <path d="M48.1489 37.5593C48.1554 38.1276 48.05 38.6917 47.8385 39.2192C47.6271 39.7468 47.3138 40.2275 46.9166 40.634C46.5193 41.0405 46.0459 41.3648 45.5234 41.5883C45.0008 41.8119 44.4393 41.9303 43.871 41.9368C43.3027 41.9434 42.7387 41.8379 42.2111 41.6265C41.6835 41.415 41.2028 41.1018 40.7963 40.7045C40.3898 40.3073 40.0655 39.8339 39.842 39.3113C39.6185 38.7888 39.5 38.2273 39.4935 37.659C39.4816 37.0766 39.5897 36.498 39.811 35.9591C40.0323 35.4202 40.3621 34.9327 40.78 34.5268C41.1978 34.1209 41.6947 33.8052 42.2397 33.5996C42.7847 33.3939 43.3662 33.3026 43.9481 33.3313C44.5055 33.3188 45.0596 33.4198 45.5767 33.6282C46.0938 33.8366 46.5631 34.148 46.9561 34.5435C47.3491 34.939 47.6575 35.4103 47.8625 35.9288C48.0676 36.4472 48.165 37.002 48.1489 37.5593ZM41.4376 37.4188C41.4376 39.5895 42.4028 41.4293 44.0251 41.4293C45.2305 41.4293 46.2093 40.2466 46.2093 37.9128C46.2093 35.3887 45.1807 33.8661 43.7215 33.8661C42.439 33.8661 41.4376 35.221 41.4376 37.4188Z" fill="#5FA17B"/>
    <path d="M53.8588 37.3412C55.3315 37.5179 56.3058 38.1161 56.3058 39.3215C56.3039 39.7194 56.1903 40.1087 55.978 40.4452C55.7657 40.7816 55.4632 41.0518 55.1049 41.2248C54.2697 41.621 53.3504 41.8077 52.4268 41.7686H49.2139V41.3154C50.1927 41.2293 50.306 41.1387 50.306 40.0602V35.2114C50.306 34.1328 50.1927 34.0468 49.2909 33.9561V33.503H52.9978C53.725 33.445 54.4532 33.6026 55.0914 33.9561C55.3288 34.1134 55.5221 34.3288 55.6529 34.5818C55.7838 34.8348 55.8479 35.117 55.8391 35.4017C55.8391 36.6071 54.7741 37.1056 53.8588 37.2823V37.3412ZM52.2727 37.1645C53.4917 37.1645 54.0355 36.6841 54.0355 35.6283C54.0355 34.4863 53.3512 34.0558 52.676 34.0558C52.4738 34.0419 52.2728 34.0961 52.105 34.2099C52.0144 34.296 51.9917 34.4863 51.9917 34.7537V37.1464L52.2727 37.1645ZM51.9827 40.0466C51.9827 40.9846 52.2364 41.2475 52.889 41.2384C53.5415 41.2293 54.398 40.7037 54.398 39.462C54.398 38.2203 53.6639 37.6494 52.2183 37.6494H51.9646L51.9827 40.0466Z" fill="#5FA17B"/>
    <path d="M66.3206 37.5589C66.3402 38.4241 66.0999 39.2754 65.6308 40.0026C65.1616 40.7299 64.4852 41.2998 63.6889 41.6388C62.8926 41.9777 62.0129 42.0701 61.1635 41.904C60.3141 41.7379 59.5341 41.321 58.9241 40.707C58.3141 40.0931 57.9022 39.3103 57.7416 38.4599C57.5809 37.6095 57.679 36.7304 58.0231 35.9363C58.3671 35.1422 58.9414 34.4694 59.6717 34.005C60.402 33.5406 61.2548 33.3058 62.1198 33.3309C62.6772 33.3184 63.2314 33.4194 63.7485 33.6278C64.2656 33.8362 64.7349 34.1476 65.1279 34.5431C65.5208 34.9386 65.8292 35.4099 66.0343 35.9284C66.2393 36.4468 66.3368 37.0016 66.3206 37.5589ZM59.6048 37.4184C59.6048 39.5891 60.57 41.4289 62.1969 41.4289C63.4023 41.4289 64.3766 40.2461 64.3766 37.9124C64.3766 35.3883 63.3479 33.8657 61.8887 33.8657C60.6108 33.8657 59.6048 35.2206 59.6048 37.4184Z" fill="#5FA17B"/>
    <path d="M74.1875 39.6616C74.1105 40.2371 73.8431 41.3881 73.7343 41.7688H67.2723V41.3156C68.3508 41.2295 68.4777 41.1525 68.4777 40.074V35.2116C68.4777 34.1058 68.3508 34.0424 67.449 33.9654V33.5122H73.4262C73.4262 33.7433 73.4987 34.6315 73.5531 35.4155L73.0999 35.4789C73.0122 35.0811 72.8339 34.7089 72.5788 34.3913C72.3613 34.1602 72.0214 34.0741 71.3099 34.0741H70.7027C70.2495 34.0741 70.1816 34.0741 70.1816 34.5273V37.2191H71.029C72.0984 37.2191 72.2616 37.1556 72.4383 36.2674H72.8915V38.8323H72.4383C72.2616 37.926 72.1075 37.8671 71.029 37.8671H70.1816V40.0604C70.1816 40.6585 70.2314 40.9667 70.4852 41.1026C70.8559 41.2093 71.242 41.2523 71.6271 41.2295C71.8775 41.2619 72.1318 41.2423 72.3742 41.1722C72.6167 41.102 72.8421 40.9827 73.0365 40.8217C73.3321 40.4442 73.5717 40.026 73.7479 39.58L74.1875 39.6616Z" fill="#5FA17B"/>
    <path d="M83.2597 41.769V41.3158C84.2204 41.2388 84.3247 41.1527 84.3247 39.911V34.5637C84.3247 34.0834 84.2975 34.0834 83.8171 34.0834H81.5966C81.1118 34.0834 81.0891 34.0834 81.0891 34.5366V39.9337C81.0891 41.1754 81.1888 41.2615 82.1178 41.3385V41.7917H78.284V41.3385C79.2719 41.2615 79.3762 41.1754 79.3762 39.9337V35.3341C79.3762 34.1287 79.2719 34.0381 78.2342 33.9746V33.5215H87.1388V33.9746C86.1237 34.0517 86.024 34.1423 86.024 35.3704V39.9292C86.024 41.1708 86.1237 41.2569 87.1161 41.334V41.7871L83.2597 41.769Z" fill="#5FA17B"/>
    <path d="M93.2928 41.7691V41.3159C94.2988 41.2389 94.3985 41.1392 94.3985 39.9564V36.9746C94.3985 36.5215 94.3985 35.9731 94.4619 34.7405H94.4257L91.1765 41.0848C91.091 41.2348 91.0501 41.4062 91.0587 41.5787V41.7554H88.1313V41.3023C89.1192 41.2252 89.2325 41.1029 89.2325 39.8975V35.3659C89.2325 34.1333 89.1192 34.0336 88.1313 33.9566V33.5034H91.9106V33.9566C91.0043 34.0336 90.8956 34.1107 90.8956 35.3161V37.9036C90.8956 38.4111 90.8956 39.0818 90.8185 40.4277H90.8457L94.1175 34.1242C94.2054 33.9891 94.2541 33.8322 94.258 33.6711V33.5215H97.1628V33.9747C96.1749 34.0517 96.0752 34.1786 96.0752 35.3342V39.9927C96.0752 41.1709 96.1749 41.2706 97.1628 41.3522V41.8053L93.2928 41.7691Z" fill="#5FA17B"/>
    <path d="M105.093 35.6919C105.026 35.2152 104.834 34.7649 104.536 34.3868C104.318 34.1557 103.992 34.0832 103.253 34.0832H102.687V40.0831C102.687 41.1616 102.814 41.2386 103.928 41.3247V41.7779H99.7911V41.3247C100.856 41.2386 100.983 41.1616 100.983 40.0831V34.0832H100.552C99.5147 34.0832 99.2836 34.2192 99.0932 34.4231C98.824 34.8062 98.6429 35.2442 98.563 35.7056H98.1099C98.1597 34.7992 98.2368 33.8521 98.2594 33.2041H98.5676C98.7669 33.4987 98.9346 33.5213 99.2881 33.5213H104.391C104.53 33.5338 104.67 33.5113 104.798 33.4559C104.926 33.4005 105.039 33.3139 105.125 33.2041H105.406C105.406 33.7388 105.483 34.8536 105.546 35.6693L105.093 35.6919Z" fill="#5FA17B"/>
    <path d="M110.182 41.7687V41.3155C110.93 41.2023 110.993 41.0482 110.789 40.4908C110.662 40.1101 110.472 39.5845 110.282 39.0588H107.848C107.708 39.453 107.545 39.9107 107.395 40.4183C107.218 41.0255 107.241 41.2022 108.17 41.3246V41.7777H105.329V41.3246C106.167 41.2249 106.321 41.0844 106.738 40.0195L109.344 33.5212L109.992 33.3535C110.803 35.574 111.591 37.7854 112.416 39.9651C112.847 41.0799 113.01 41.2476 113.812 41.3473V41.8004L110.182 41.7687ZM109.103 35.6556H109.067C108.709 36.5619 108.392 37.4954 108.061 38.3745H110.041L109.103 35.6556Z" fill="#5FA17B"/>
    <path d="M123.899 33.9744C122.907 34.0651 122.834 34.1421 122.834 35.2206V40.1057C122.834 41.1706 122.934 41.2477 123.899 41.3338V41.7869H120.029V41.3338C121.044 41.2477 121.13 41.157 121.13 40.0921V37.7311H117.668V40.0921C117.668 41.1706 117.768 41.2477 118.711 41.3338V41.7869H114.922V41.3338C115.828 41.2477 115.964 41.1706 115.964 40.0921V35.2116C115.964 34.133 115.851 34.056 114.872 33.9654V33.5122H118.679V33.9654C117.772 34.056 117.664 34.133 117.664 35.2116V37.0741H121.126V35.2116C121.126 34.133 121.026 34.056 120.088 33.9654V33.5122H123.895L123.899 33.9744Z" fill="#5FA17B"/>
    <path d="M130.103 41.7691V41.3159C131.104 41.2389 131.209 41.1392 131.209 39.9564V36.9746C131.209 36.5215 131.209 35.9731 131.272 34.7405H131.236L127.987 41.0848C127.905 41.2362 127.866 41.4069 127.873 41.5787V41.7554H124.937V41.3023C125.929 41.2252 126.043 41.1029 126.043 39.8975V35.3659C126.043 34.1333 125.929 34.0336 124.937 33.9566V33.5034H128.721V33.9566C127.815 34.0336 127.706 34.1107 127.706 35.3161V37.9036C127.706 38.4111 127.706 39.0818 127.629 40.4277H127.656L130.928 34.1242C131.014 33.9883 131.062 33.8319 131.068 33.6711V33.5215H133.955V33.9747C132.967 34.0517 132.863 34.1786 132.863 35.3342V39.9927C132.863 41.1709 132.967 41.2706 133.955 41.3522V41.8053L130.103 41.7691Z" fill="#5FA17B"/>
    <path d="M141.79 39.6616C141.713 40.2371 141.445 41.3881 141.337 41.7688H134.861V41.3156C135.94 41.2295 136.066 41.1525 136.066 40.074V35.2116C136.066 34.1058 135.94 34.0424 135.038 33.9654V33.5122H141.015C141.015 33.7433 141.092 34.6315 141.142 35.4155L140.689 35.4789C140.603 35.0805 140.424 34.7079 140.168 34.3913C139.955 34.1602 139.61 34.0741 138.899 34.0741H138.291C137.838 34.0741 137.77 34.0741 137.77 34.5273V37.2191H138.622C139.687 37.2191 139.85 37.1556 140.027 36.2674H140.48V38.8323H140.027C139.85 37.926 139.701 37.8671 138.622 37.8671H137.77V40.0604C137.77 40.6585 137.82 40.9667 138.074 41.1026C138.445 41.2091 138.831 41.252 139.216 41.2295C139.466 41.2619 139.721 41.2423 139.963 41.1722C140.205 41.102 140.431 40.9827 140.625 40.8217C140.923 40.4454 141.162 40.0269 141.337 39.58L141.79 39.6616Z" fill="#5FA17B"/>
    <path d="M143.707 35.5469C143.821 35.4428 143.913 35.3162 143.976 35.1751C144.039 35.034 144.072 34.8813 144.074 34.7267C144.077 34.6145 144.056 34.503 144.01 34.4004C143.976 34.3306 143.934 34.2652 143.884 34.2056C143.807 34.2578 143.721 34.2933 143.63 34.3098C143.536 34.3188 143.442 34.3188 143.349 34.3098C143.252 34.3094 143.155 34.2926 143.063 34.2599C142.958 34.2271 142.861 34.1731 142.778 34.1013C142.69 34.0239 142.617 33.93 142.565 33.8249C142.501 33.6972 142.469 33.5554 142.474 33.4125C142.468 33.2696 142.5 33.1275 142.565 33.0001C142.618 32.8907 142.696 32.7947 142.791 32.7192C142.884 32.6465 142.991 32.5926 143.104 32.5606C143.213 32.5286 143.326 32.5118 143.439 32.5107C143.598 32.5108 143.754 32.5462 143.896 32.6144C144.039 32.6826 144.165 32.7819 144.264 32.905C144.509 33.223 144.63 33.6192 144.604 34.0198C144.61 34.3207 144.55 34.6194 144.427 34.8944C144.312 35.1428 144.159 35.372 143.974 35.5741C143.797 35.7681 143.599 35.9427 143.385 36.0952C143.172 36.2448 142.977 36.3717 142.8 36.4804L142.71 36.3173C143.062 36.0867 143.395 35.8291 143.707 35.5469ZM146.331 35.5469C146.445 35.4428 146.537 35.3162 146.6 35.1751C146.663 35.034 146.696 34.8813 146.698 34.7267C146.704 34.5348 146.636 34.3479 146.507 34.2056C146.432 34.2594 146.345 34.295 146.254 34.3098C146.162 34.3188 146.069 34.3188 145.977 34.3098C145.88 34.3094 145.783 34.2926 145.692 34.2599C145.586 34.229 145.488 34.1749 145.406 34.1013C145.316 34.0243 145.242 33.9304 145.189 33.8249C145.126 33.6965 145.095 33.5552 145.098 33.4125C145.094 33.2698 145.125 33.1282 145.189 33.0001C145.244 32.8905 145.323 32.7946 145.42 32.7192C145.512 32.6478 145.616 32.5941 145.728 32.5606C145.837 32.5288 145.95 32.5121 146.063 32.5107C146.222 32.5101 146.378 32.5453 146.521 32.6135C146.664 32.6818 146.789 32.7814 146.888 32.905C147.136 33.2214 147.259 33.6184 147.232 34.0198C147.238 34.3207 147.178 34.6194 147.056 34.8944C146.94 35.1425 146.787 35.3717 146.602 35.5741C146.426 35.7691 146.228 35.9439 146.013 36.0952C145.8 36.2448 145.61 36.3717 145.429 36.4804L145.343 36.3173C145.692 36.0866 146.022 35.829 146.331 35.5469Z" fill="#5FA17B"/>
</svg>
