<svg width="532" height="58" viewBox="0 0 532 58" fill="none" xmlns="http://www.w3.org/2000/svg">
    <path d="M18.2924 6.26904C16.2943 6.44083 16.1135 6.56742 16.1135 8.71922V18.6193C16.1135 20.744 16.3214 20.8977 18.2924 21.0785V21.8832H10.8967V21.0785C12.9491 20.8977 13.157 20.744 13.157 18.6193V13.7461H5.63477V18.5831C5.63477 20.7078 5.83368 20.8615 7.78658 21.0423V21.8832H0.55364V21.0785C2.47941 20.8977 2.70544 20.744 2.70544 18.6193V8.71922C2.70544 6.56742 2.47942 6.4137 0.481323 6.26904V5.42822H7.71426V6.26904C5.8337 6.4137 5.63477 6.56742 5.63477 8.71922V12.5708H13.157V8.71922C13.157 6.56742 12.9762 6.44083 11.0505 6.26904V5.42822H18.2834L18.2924 6.26904Z" fill="#006838"/>
    <path d="M29.8833 21.8825V21.0778C31.4022 20.8428 31.5559 20.5715 31.2033 19.5047C30.923 18.6729 30.4981 17.4794 30.037 16.2679H25.001C24.6665 17.172 24.3139 18.1666 24.0155 19.1792C23.5816 20.5444 23.7081 20.8428 25.5616 21.0778V21.8825H19.9651V21.0778C21.6106 20.8428 21.9361 20.6168 22.795 18.4469L27.9846 5.35522L29.1057 5.04785C30.7241 9.4509 32.3153 14.0076 33.9608 18.3655C34.8017 20.5986 35.1271 20.8699 36.7455 21.0778V21.8825H29.8833ZM27.6049 9.22487H27.5325C26.8002 11.1778 26.1131 13.1578 25.4079 15.0474H29.612L27.6049 9.22487Z" fill="#006838"/>
    <path d="M55.7318 26.3134H54.8277L54.448 23.8089C54.2491 22.2177 53.8965 21.8832 52.6397 21.8832H38.8248V21.0785C40.8501 20.9248 41.0489 20.7711 41.0489 18.2938V8.71922C41.0489 6.56742 40.85 6.39565 38.8971 6.24195V5.42822H46.1301V6.24195C44.2043 6.39565 44.0054 6.56742 44.0054 8.71922V19.5686C44.0054 20.8073 44.0777 20.8796 45.2893 20.8796H49.7194C50.94 20.8796 51.0394 20.8344 51.0394 19.6138V9.02665C51.0394 6.56745 50.8677 6.39565 48.8605 6.24195V5.42822H56.0935V6.24195C54.1406 6.39565 53.9417 6.56745 53.9417 9.02665V19.5325C53.9417 20.7169 54.0682 20.7982 54.7734 20.7982H56.3466L55.7318 26.3134Z" fill="#006838"/>
    <path d="M68.9233 21.8832V21.0785C70.8943 20.9248 71.1022 20.744 71.1022 18.4476V12.2634C71.1022 11.3593 71.1023 10.1658 71.2288 7.74279H71.1475L64.0773 20.5722C63.9097 20.8725 63.8313 21.2144 63.8512 21.5577V21.8832H58.4808V21.0785C60.4517 20.9248 60.6597 20.6988 60.6597 18.3119V8.87294C60.6597 6.59456 60.4517 6.41373 58.4808 6.26907V5.42825H65.6233V6.26907C63.7699 6.41373 63.5438 6.54936 63.5438 8.81869V14.3428C63.5438 15.4006 63.5438 16.7207 63.4172 19.3517H63.4715L70.5055 6.5946C70.6818 6.32542 70.7789 6.01215 70.7858 5.69048V5.38306H76.1291V6.22388C74.1762 6.36854 73.9502 6.60364 73.9502 8.85489V18.4476C73.9502 20.744 74.1762 20.9248 76.1291 21.0785V21.8832H68.9233Z" fill="#006838"/>
    <path d="M95.3504 13.4835C95.4072 14.6391 95.2239 15.794 94.812 16.8752C94.4002 17.9564 93.7686 18.9405 92.9573 19.7654C92.146 20.5903 91.1725 21.2381 90.0983 21.6679C89.0241 22.0977 87.8725 22.3001 86.7161 22.2625C85.5941 22.2877 84.4788 22.0837 83.4385 21.6629C82.3982 21.2421 81.4547 20.6134 80.6658 19.8152C79.8769 19.017 79.2593 18.0662 78.8508 17.021C78.4422 15.9758 78.2513 14.8582 78.2897 13.7366C78.2596 12.5836 78.4652 11.4365 78.8941 10.3658C79.3229 9.29505 79.9659 8.32318 80.7836 7.50969C81.6013 6.69621 82.5766 6.0583 83.6495 5.63502C84.7225 5.21174 85.8706 5.012 87.0235 5.04809C88.131 5.03054 89.2306 5.23756 90.256 5.65665C91.2814 6.07575 92.2112 6.6982 92.9894 7.48652C93.7675 8.27483 94.3779 9.21265 94.7837 10.2433C95.1895 11.274 95.3823 12.3763 95.3504 13.4835ZM81.7072 13.1761C81.7072 17.6967 83.8591 21.2499 87.2224 21.2499C89.781 21.2499 91.9328 18.8992 91.9328 14.1616C91.9328 9.02622 89.6273 6.02456 86.5081 6.02456C83.9043 6.06072 81.7072 8.67359 81.7072 13.1761Z" fill="#006838"/>
    <path d="M115.404 6.26904C113.397 6.44083 113.225 6.56742 113.225 8.71922V18.6193C113.225 20.744 113.424 20.8977 115.404 21.0785V21.8832H108.008V21.0785C110.06 20.8977 110.259 20.744 110.259 18.6193V13.7461H102.746V18.5831C102.746 20.7078 102.945 20.8615 104.898 21.0423V21.8832H97.665V21.0785C99.5908 20.8977 99.8168 20.744 99.8168 18.6193V8.71922C99.8168 6.56742 99.5908 6.4137 97.5836 6.26904V5.42822H104.817V6.26904C102.945 6.4137 102.746 6.56742 102.746 8.71922V12.5708H110.259V8.71922C110.259 6.56742 110.088 6.44083 108.162 6.26904V5.42822H115.395L115.404 6.26904Z" fill="#006838"/>
    <path d="M126.995 21.8825V21.0778C128.513 20.8428 128.667 20.5715 128.315 19.5047C128.034 18.6729 127.6 17.4794 127.148 16.2679H122.112C121.778 17.172 121.425 18.1666 121.118 19.1792C120.693 20.5444 120.819 20.8428 122.664 21.0778V21.8825H117.067V21.0778C118.713 20.8428 119.047 20.6168 119.906 18.4469L125.096 5.35522L126.208 5.04785C127.826 9.4509 129.427 14.0076 131.072 18.3655C131.904 20.5986 132.238 20.8699 133.857 21.0778V21.8825H126.995ZM124.716 9.22487H124.653C123.912 11.1778 123.233 13.1578 122.519 15.0474H126.723L124.716 9.22487Z" fill="#006838"/>
    <path d="M143.929 21.8834V21.0787C145.827 20.925 146.035 20.7442 146.035 18.3664V7.78822C146.035 6.54958 146.035 6.46824 145.131 6.46824H142.419C141.587 6.46824 141.515 6.64906 141.515 7.37236C141.515 13.5746 140.71 18.6105 139.065 20.9884C138.459 21.8925 137.871 22.2541 137.256 22.2541C136.73 22.2658 136.206 22.18 135.71 22.001V21.4675C136.875 20.7771 137.788 19.7314 138.314 18.4839C139.381 16.3864 140.122 12.5891 140.122 7.85151C140.122 6.65808 139.743 6.35974 137.772 6.23316V5.41943H151.062V6.23316C149.164 6.38686 148.956 6.61288 148.956 8.4844V18.3573C148.956 20.7352 149.164 20.916 151.062 21.0697V21.8834H143.929Z" fill="#006838"/>
    <path d="M153.322 21.8832V21.0785C155.248 20.9248 155.474 20.744 155.474 18.4927V8.87291C155.474 6.59453 155.248 6.4137 153.368 6.26904V5.42822H160.601V6.26904C158.621 6.39562 158.395 6.59456 158.395 8.90006V12.0102C159.299 11.9379 160.14 11.8836 161.026 11.8836C164.723 11.8836 166.875 13.5834 166.875 16.5399C166.926 17.4062 166.73 18.2691 166.309 19.0279C165.888 19.7867 165.259 20.4101 164.497 20.8254C162.892 21.603 161.117 21.9666 159.335 21.8832H153.322ZM158.358 18.6193C158.358 20.4275 158.838 20.8706 160.167 20.8706C161.758 20.8706 163.584 19.8399 163.584 16.793C163.584 13.7461 161.884 12.9234 159.787 12.9234C159.281 12.9234 158.801 12.9776 158.34 13.0228L158.358 18.6193Z" fill="#006838"/>
    <path d="M186.639 6.26904C184.632 6.44083 184.46 6.56742 184.46 8.71922V18.6193C184.46 20.744 184.659 20.8977 186.639 21.0785V21.8832H179.243V21.0785C181.296 20.8977 181.495 20.744 181.495 18.6193V13.7461H173.981V18.5831C173.981 20.7078 174.18 20.8615 176.133 21.0423V21.8832H168.9V21.0785C170.826 20.8977 171.052 20.744 171.052 18.6193V8.71922C171.052 6.56742 170.826 6.4137 168.819 6.26904V5.42822H176.052V6.26904C174.18 6.4137 173.981 6.56742 173.981 8.71922V12.5708H181.495V8.71922C181.495 6.56742 181.323 6.44083 179.397 6.26904V5.42822H186.63L186.639 6.26904Z" fill="#006838"/>
    <path d="M188.791 21.8832V21.0785C190.707 20.9248 190.943 20.7169 190.943 18.4475V8.81866C190.943 6.56741 190.707 6.4137 188.863 6.26904V5.42822H196.096V6.26904C194.071 6.4137 193.845 6.54933 193.845 8.87291V12.0102C194.694 11.9185 195.549 11.8762 196.403 11.8836C200.092 11.8836 202.226 13.6286 202.226 16.5399C202.277 17.4073 202.08 18.2713 201.657 19.0304C201.234 19.7895 200.603 20.4122 199.839 20.8254C198.263 21.6041 196.514 21.9681 194.758 21.8832H188.791ZM193.827 18.547C193.827 20.3552 194.252 20.8976 195.635 20.8976C197.018 20.8976 198.971 19.9393 198.971 16.793C198.971 13.8908 197.425 12.9234 195.147 12.9234C194.709 12.9234 194.271 12.9475 193.836 12.9957L193.827 18.547ZM202.352 21.8832V21.0785C204.233 20.9248 204.459 20.6717 204.459 18.5199V8.69207C204.459 6.62164 204.233 6.4137 202.352 6.26904V5.42822H209.495V6.26904C207.596 6.4137 207.397 6.59455 207.397 8.71922V18.547C207.397 20.6716 207.596 20.9248 209.495 21.0785V21.8832H202.352Z" fill="#006838"/>
    <path d="M222.072 21.8834V21.0788C224.052 20.9251 224.251 20.7443 224.251 18.4478V12.2636C224.251 11.3595 224.251 10.1661 224.377 7.74303H224.305L217.271 20.6087C217.1 20.908 217.019 21.2499 217.036 21.5941V21.8834H211.674V21.0788C213.645 20.9251 213.853 20.699 213.853 18.3122V8.87318C213.853 6.5948 213.645 6.41397 211.674 6.26932V5.42849H218.808V6.26932C217 6.41397 216.737 6.5496 216.737 8.81893V14.3431C216.737 15.4009 216.738 16.7209 216.611 19.3519L223.654 6.59484C223.83 6.32566 223.927 6.0124 223.934 5.69072V5.3833H229.269V6.22412C227.325 6.36878 227.099 6.60388 227.099 8.85513V18.4478C227.099 20.7443 227.325 20.9251 229.269 21.0788V21.8834H222.072ZM217.443 2.0652C217.434 1.92835 217.453 1.79113 217.498 1.66165C217.543 1.53217 217.614 1.41301 217.706 1.31113C217.797 1.20925 217.909 1.12675 218.033 1.06838C218.157 1.01001 218.291 0.97695 218.428 0.971202C218.571 0.970529 218.711 1.001 218.841 1.06049C218.97 1.11998 219.085 1.20706 219.177 1.3156C219.269 1.42414 219.337 1.5515 219.374 1.6888C219.412 1.8261 219.419 1.97 219.396 2.1104C219.386 2.28457 219.415 2.45861 219.481 2.62034C219.546 2.78208 219.646 2.92758 219.773 3.04652C219.901 3.16547 220.053 3.25498 220.219 3.30881C220.385 3.36264 220.561 3.37947 220.734 3.35808C220.907 3.38517 221.084 3.37223 221.252 3.32023C221.419 3.26823 221.572 3.17857 221.7 3.05811C221.827 2.93766 221.925 2.78959 221.987 2.62531C222.048 2.46103 222.071 2.2849 222.054 2.1104C222.034 1.9692 222.045 1.82551 222.086 1.68891C222.127 1.55231 222.196 1.42591 222.289 1.31814C222.382 1.21037 222.497 1.12368 222.627 1.06385C222.756 1.00403 222.897 0.972462 223.039 0.971202C223.179 0.972088 223.317 1.00165 223.445 1.05801C223.573 1.11436 223.688 1.19629 223.782 1.29882C223.877 1.40136 223.95 1.52228 223.997 1.65409C224.043 1.7859 224.062 1.92584 224.052 2.0652C224.052 3.48467 222.759 4.34354 220.734 4.34354C218.708 4.34354 217.443 3.48467 217.443 2.0652Z" fill="#006838"/>
    <path d="M250.44 21.9833V21.1787C252.411 21.025 252.619 20.8441 252.619 18.5386V12.3997C252.619 11.4956 252.619 10.3021 252.745 7.87909H252.664L245.63 20.7447C245.462 21.045 245.384 21.3869 245.404 21.7302V22.0556H240.033V21.251C242.013 21.0973 242.212 20.8712 242.212 18.4844V8.97309C242.212 6.69471 242.013 6.51389 240.033 6.36923V5.5284H247.176V6.36923C245.322 6.51389 245.096 6.64047 245.096 8.91884V14.443C245.096 15.5008 245.096 16.8208 244.97 19.4518H245.024L252.058 6.6947C252.239 6.42751 252.336 6.11298 252.338 5.79058V5.48315H257.682V6.32403C255.729 6.46869 255.503 6.70374 255.503 8.95499V18.4934C255.503 20.7989 255.729 20.9797 257.682 21.1334V21.9381L250.44 21.9833Z" fill="#006838"/>
    <path d="M275.276 17.7071C274.887 19.0677 274.413 20.4024 273.856 21.7033C272.311 22.0769 270.734 22.298 269.146 22.3633C262.591 22.3633 259.779 17.9874 259.779 13.9822C259.779 8.72021 263.802 5.14893 269.724 5.14893C271.253 5.19502 272.771 5.42575 274.245 5.83606C274.453 7.2284 274.634 8.3676 274.806 9.8594L273.901 10.0402C273.142 7.14706 271.343 6.18868 269.119 6.18868C265.24 6.18868 263.142 9.67857 263.142 13.4759C263.142 18.1411 265.728 21.2784 269.318 21.2784C271.623 21.2784 273.088 19.9132 274.381 17.3817L275.276 17.7071Z" fill="#006838"/>
    <path d="M292.915 17.7071C292.533 19.0687 292.062 20.4037 291.505 21.7033C289.96 22.0769 288.382 22.298 286.794 22.3633C280.24 22.3633 277.428 17.9874 277.428 13.9822C277.428 8.72021 281.451 5.14893 287.373 5.14893C288.902 5.19564 290.42 5.42635 291.894 5.83606C292.093 7.2284 292.273 8.3676 292.454 9.8594L291.55 10.0402C290.791 7.14706 288.991 6.18868 286.767 6.18868C282.889 6.18868 280.791 9.67857 280.791 13.4759C280.791 18.1411 283.368 21.2784 286.966 21.2784C289.272 21.2784 290.736 19.9132 292.029 17.3817L292.915 17.7071Z" fill="#006838"/>
    <path d="M302.888 21.9832V21.1786C304.786 21.0249 304.994 20.8441 304.994 18.4663V7.87904C304.994 6.63135 304.994 6.55901 304.09 6.55901H301.378C300.546 6.55901 300.474 6.73983 300.474 7.46312C300.474 13.6654 299.66 18.7013 298.015 21.0791C297.409 21.9832 296.821 22.3449 296.206 22.3449C295.68 22.3558 295.156 22.27 294.66 22.0917V21.5583C295.828 20.8694 296.744 19.8235 297.273 18.5748C298.331 16.4772 299.081 12.6799 299.081 7.94233C299.081 6.7489 298.702 6.45056 296.731 6.32398V5.51025H310.021V6.32398C308.123 6.47768 307.915 6.7037 307.915 8.57522V18.4482C307.915 20.826 308.123 21.0068 310.021 21.1605V21.9652L302.888 21.9832Z" fill="#006838"/>
    <path d="M325.545 17.8243C325.313 19.2129 325.011 20.5889 324.641 21.9471H311.983V21.1424C314.189 20.9616 314.415 20.7807 314.415 18.6561V8.84641C314.415 6.62229 314.189 6.5138 312.345 6.36914V5.52832H324.008C324.008 6.03463 324.162 7.80666 324.261 9.28037L323.402 9.40696C323.267 8.62237 322.958 7.87794 322.498 7.22806C322.091 6.74888 321.404 6.56802 319.84 6.56802H318.366C317.462 6.56802 317.408 6.62227 317.408 7.47214V12.9692H319.352C321.531 12.9692 321.784 12.8155 322.118 11.0706H322.977V16.0161H322.118C321.784 14.2078 321.531 14.0903 319.352 14.0903H317.408V18.6109C317.408 19.8224 317.535 20.4191 318.014 20.6813C318.779 20.9376 319.588 21.0331 320.392 20.9615C321.938 20.9615 322.769 20.7898 323.357 20.1298C323.942 19.3992 324.403 18.5776 324.722 17.6977L325.545 17.8243Z" fill="#006838"/>
    <path d="M341.665 26.4139H340.761L340.381 23.9094C340.182 22.3182 339.83 21.9837 338.573 21.9837H330.346C329.107 21.9837 328.8 22.4448 328.347 24.1355L327.733 26.4139H326.829L326.955 20.9892H328.266C328.432 21.0069 328.599 20.9634 328.736 20.8669C328.872 20.7703 328.969 20.6274 329.008 20.4648C330.092 18.331 330.924 13.928 330.924 8.07834C330.924 6.9934 330.725 6.74029 329.432 6.54139L328.474 6.4148V5.57397H342.171V6.4148C340.164 6.55946 339.993 6.68603 339.993 9.12715V19.633C339.993 20.8174 340.092 20.944 340.797 20.944H342.37L341.665 26.4139ZM336.982 8.08739C336.982 6.6408 336.982 6.56848 335.969 6.56848H333.257C332.271 6.56848 332.217 6.64081 332.217 7.52684C332.217 11.0981 331.865 16.4957 330.752 20.1845C330.599 20.7631 330.626 20.962 331.304 20.962H335.436C336.702 20.962 337.027 20.736 337.027 19.2442L336.982 8.08739Z" fill="#006838"/>
    <path d="M361.321 13.5849C361.377 14.7405 361.194 15.8953 360.782 16.9765C360.37 18.0578 359.739 19.0419 358.928 19.8668C358.116 20.6917 357.143 21.3395 356.069 21.7692C354.994 22.199 353.843 22.4015 352.686 22.3639C351.564 22.3892 350.449 22.1851 349.409 21.7643C348.368 21.3435 347.425 20.7148 346.636 19.9166C345.847 19.1184 345.23 18.1676 344.821 17.1224C344.412 16.0772 344.222 14.9596 344.26 13.8381C344.229 12.6847 344.433 11.537 344.862 10.4657C345.29 9.39433 345.933 8.4219 346.751 7.60814C347.569 6.79439 348.545 6.1565 349.618 5.73369C350.692 5.31088 351.841 5.11206 352.994 5.14947C354.101 5.13191 355.201 5.33893 356.226 5.75803C357.252 6.17712 358.181 6.79963 358.96 7.58795C359.738 8.37626 360.348 9.31402 360.754 10.3447C361.16 11.3754 361.353 12.4777 361.321 13.5849ZM347.678 13.3046C347.678 17.8252 349.829 21.3784 353.193 21.3784C355.751 21.3784 357.903 19.0277 357.903 14.2901C357.903 9.15475 355.598 6.15308 352.478 6.15308C349.875 6.16212 347.678 8.78404 347.678 13.3046Z" fill="#006838"/>
    <path d="M372.505 13.1493C375.289 13.5019 377.242 14.6682 377.242 17.1274C377.243 17.9199 377.02 18.6966 376.6 19.3683C376.179 20.04 375.578 20.5795 374.864 20.9247C373.254 21.6977 371.477 22.061 369.693 21.9825H363.563V21.1507C365.588 20.997 365.796 20.8162 365.796 18.6916V8.78243C365.796 6.65775 365.615 6.47691 363.744 6.33225V5.49143H370.805C372.215 5.38139 373.626 5.6963 374.855 6.39555C375.322 6.71052 375.702 7.13839 375.96 7.63943C376.218 8.14046 376.345 8.69846 376.329 9.26164C376.329 11.6847 374.249 12.6792 372.55 13.0318L372.505 13.1493ZM369.467 12.7967C372.025 12.7967 373.137 11.7841 373.137 9.6775C373.137 7.5709 371.926 6.49499 370.181 6.49499C369.747 6.46655 369.315 6.57062 368.942 6.79336C368.734 6.94706 368.662 7.29967 368.662 7.93256V12.7967H369.467ZM368.662 18.6463C368.662 20.4546 369.168 21.0242 370.606 20.9971C371.071 21.007 371.534 20.9181 371.962 20.7362C372.391 20.5542 372.776 20.2833 373.092 19.9415C373.408 19.5997 373.648 19.1947 373.797 18.7532C373.945 18.3117 373.997 17.8439 373.951 17.3806C373.951 14.9485 372.36 13.7641 369.431 13.7641H368.671L368.662 18.6463Z" fill="#006838"/>
    <path d="M388.281 21.9836V21.179C389.8 20.9439 389.945 20.6726 389.592 19.6057C389.312 18.774 388.887 17.5806 388.426 16.3691H383.39C383.065 17.2732 382.712 18.2677 382.405 19.2803C381.98 20.6455 382.097 20.9439 383.951 21.179V21.9836H378.354V21.179C380 20.9439 380.325 20.7178 381.193 18.5389L386.383 5.45635L387.495 5.14893C389.113 9.55198 390.704 14.1088 392.35 18.4666C393.191 20.6907 393.516 20.971 395.135 21.179V21.9836H388.281ZM386.003 9.32594H385.967C385.235 11.2788 384.547 13.2498 383.842 15.1485H388.046L386.003 9.32594Z" fill="#006838"/>
    <path d="M408.633 9.68707C408.492 8.79845 408.156 7.95227 407.648 7.2098C407.187 6.7035 406.635 6.54981 404.99 6.54981H403.615V18.7282C403.615 20.8348 403.85 21.0337 406.156 21.2146V22.0192H398.254V21.2146C400.433 21.0337 400.686 20.8348 400.686 18.7282V6.56786H399.529C397.449 6.56786 396.97 6.79391 396.617 7.2731C396.128 8.01699 395.799 8.85438 395.65 9.73227H394.746C394.845 8.01445 394.999 6.21527 395.053 4.89526H395.632C396.012 5.48294 396.337 5.52816 397.051 5.52816H407.177C407.444 5.54981 407.712 5.50304 407.956 5.3923C408.199 5.28155 408.411 5.11048 408.57 4.89526H409.148C409.148 5.98925 409.275 8.08676 409.402 9.65992L408.633 9.68707Z" fill="#006838"/>
    <path d="M424.582 17.8243C424.428 18.8369 423.922 21.1876 423.678 21.9471H411.02V21.1424C413.217 20.9616 413.452 20.7807 413.452 18.6561V8.84641C413.452 6.62229 413.217 6.5138 411.373 6.36914V5.52832H423.036C423.036 6.03463 423.19 7.80666 423.289 9.28037L422.43 9.40696C422.295 8.62228 421.986 7.87779 421.526 7.22806C421.119 6.74888 420.441 6.56802 418.868 6.56802H417.403C416.499 6.56802 416.436 6.62227 416.436 7.47214V12.9692H418.389C420.568 12.9692 420.821 12.8155 421.101 11.0706H422.005V16.0161H421.101C420.776 14.2078 420.523 14.0903 418.389 14.0903H416.436V18.6109C416.436 19.8224 416.563 20.4191 417.042 20.6813C417.81 20.9369 418.622 21.0322 419.429 20.9615C420.966 20.9615 421.806 20.7898 422.385 20.1298C422.973 19.4013 423.435 18.5792 423.75 17.6977L424.582 17.8243Z" fill="#006838"/>
    <path d="M434.373 21.9832V21.1786C436.272 21.0249 436.48 20.8441 436.48 18.4663V7.87904C436.48 6.63135 436.48 6.55901 435.576 6.55901H432.863C432.032 6.55901 431.959 6.73983 431.959 7.46312C431.959 13.6654 431.146 18.7013 429.5 21.0791C428.894 21.9832 428.307 22.3449 427.692 22.3449C427.165 22.3558 426.641 22.27 426.146 22.0917V21.5583C427.314 20.8694 428.23 19.8235 428.759 18.5748C429.817 16.4772 430.567 12.6799 430.567 7.94233C430.567 6.7489 430.187 6.45056 428.216 6.32398V5.51025H441.507V6.32398C439.608 6.47768 439.4 6.7037 439.4 8.57522V18.4482C439.4 20.826 439.608 21.0068 441.507 21.1605V21.9652L434.373 21.9832Z" fill="#006838"/>
    <path d="M443.767 21.9832V21.1786C445.693 21.0249 445.919 20.844 445.919 18.5928V8.973C445.919 6.69463 445.693 6.5138 443.822 6.36914V5.52832H451.009V6.36914C449.038 6.49572 448.803 6.6946 448.803 9.0001V12.1103C449.707 12.0379 450.557 11.9837 451.443 11.9837C455.132 11.9837 457.284 13.6834 457.284 16.6399C457.335 17.5062 457.138 18.3691 456.717 19.1279C456.296 19.8867 455.668 20.5102 454.906 20.9254C453.301 21.7038 451.526 22.0675 449.744 21.9832H443.767ZM448.803 18.7284C448.803 20.5366 449.292 20.9796 450.612 20.9796C452.203 20.9796 454.029 19.9399 454.029 16.9021C454.029 13.8642 452.329 13.0325 450.232 13.0325C449.725 13.0325 449.246 13.0867 448.785 13.1319L448.803 18.7284Z" fill="#006838"/>
    <path d="M475.565 17.7071C475.184 19.0703 474.71 20.4055 474.145 21.7033C472.601 22.0769 471.023 22.298 469.435 22.3633C462.88 22.3633 460.068 17.9874 460.068 13.9822C460.068 8.72021 464.101 5.14893 470.014 5.14893C471.543 5.19651 473.06 5.42721 474.534 5.83606C474.733 7.2284 474.914 8.3676 475.086 9.8594L474.182 10.0402C473.422 7.14706 471.623 6.18868 469.399 6.18868C465.529 6.18868 463.423 9.67857 463.423 13.4759C463.423 18.1411 466.008 21.2784 469.607 21.2784C471.903 21.2784 473.377 19.9132 474.661 17.3817L475.565 17.7071Z" fill="#006838"/>
    <path d="M490.401 21.9836C488.593 21.9836 487.888 21.197 487.156 19.66C486.83 18.9187 486.252 17.5534 485.61 16.1159C484.778 14.0364 483.801 13.6296 482.319 13.6567V18.5389C482.319 20.8715 482.527 21.0253 484.425 21.179V21.9836H477.283V21.179C479.209 21.0253 479.416 20.8715 479.416 18.5931V8.90103C479.416 6.64074 479.209 6.51417 477.283 6.36951V5.52869H484.452V6.36951C482.527 6.51417 482.346 6.64074 482.346 8.90103V12.7164C482.911 12.7773 483.483 12.7142 484.022 12.5315C484.561 12.3488 485.053 12.0509 485.465 11.6586C486.252 10.9262 486.758 9.85036 487.644 7.83418C488.53 5.818 489.452 5.12183 490.628 5.12183C491.532 5.12183 492.092 5.68239 492.092 6.31527C492.092 6.94815 491.541 7.14704 491.034 7.14704H490.528C489.515 7.14704 488.955 7.80702 487.816 10.1125C487.319 11.2865 486.46 12.2715 485.366 12.9244V12.9967C486.049 13.1624 486.688 13.478 487.235 13.9204C487.782 14.3629 488.225 14.9213 488.53 15.5553C488.928 16.3148 489.561 17.7342 490.338 19.226C490.537 19.7871 490.905 20.2731 491.39 20.6177C491.875 20.9624 492.455 21.1489 493.051 21.1518V21.9565L490.401 21.9836Z" fill="#006838"/>
    <path d="M504.976 21.9833V21.1787C506.956 21.025 507.155 20.8441 507.155 18.5386V12.3997C507.155 11.4956 507.155 10.3021 507.282 7.87909H507.209L500.166 20.7447C499.999 21.045 499.92 21.3869 499.94 21.7302V22.0556H494.579V21.251C496.55 21.0973 496.749 20.8712 496.749 18.4844V8.97309C496.749 6.69471 496.55 6.51389 494.579 6.36923V5.5284H501.694V6.36923C499.886 6.51389 499.624 6.64047 499.624 8.91884V14.443C499.624 15.5008 499.624 16.8208 499.497 19.4518H499.543L506.586 6.6947C506.76 6.42498 506.854 6.11151 506.857 5.79058V5.48315H512.2V6.32403C510.256 6.46869 510.021 6.70374 510.021 8.95499V18.4934C510.021 20.7989 510.256 20.9797 512.2 21.1334V21.9381L504.976 21.9833Z" fill="#006838"/>
    <path d="M524.749 21.9828V21.1782C526.729 21.0245 526.928 20.8436 526.928 18.5381V12.3992C526.928 11.4951 526.928 10.3016 527.054 7.8786H527.009L519.966 20.7442C519.799 21.0445 519.72 21.3864 519.74 21.7297V22.0552H514.352V21.2505C516.332 21.0968 516.531 20.8707 516.531 18.4839V8.97261C516.531 6.69423 516.332 6.5134 514.352 6.36874V5.52792H521.494V6.36874C519.686 6.5134 519.415 6.63999 519.415 8.91836V14.4425C519.415 15.5003 519.415 16.8203 519.288 19.4513H519.342L526.376 6.69421C526.557 6.42703 526.654 6.1125 526.657 5.7901V5.48267H532V6.32355C530.047 6.46821 529.821 6.70325 529.821 8.95451V18.4929C529.821 20.7984 530.047 20.9792 532 21.1329V21.9376L524.749 21.9828ZM520.12 2.16458C520.111 2.02772 520.13 1.89056 520.175 1.76108C520.22 1.6316 520.291 1.51244 520.383 1.41056C520.475 1.30868 520.586 1.22613 520.71 1.16775C520.834 1.10938 520.968 1.07633 521.105 1.07058C521.247 1.06965 521.388 1.10008 521.517 1.15964C521.646 1.2192 521.76 1.30644 521.852 1.41519C521.943 1.52395 522.01 1.65156 522.046 1.78889C522.083 1.92623 522.089 2.06991 522.064 2.20977C522.054 2.3848 522.083 2.55979 522.149 2.72226C522.215 2.88472 522.316 3.03071 522.444 3.14981C522.573 3.26892 522.726 3.3582 522.893 3.41138C523.06 3.46456 523.237 3.48029 523.411 3.45746C524.396 3.45746 524.749 2.86978 524.722 2.20977C524.704 2.06808 524.716 1.92422 524.758 1.78762C524.8 1.65103 524.87 1.52482 524.964 1.41724C525.058 1.30965 525.173 1.22313 525.303 1.1634C525.433 1.10366 525.574 1.07201 525.716 1.07058C525.856 1.07146 525.994 1.10103 526.122 1.15738C526.25 1.21373 526.365 1.29572 526.46 1.39825C526.555 1.50079 526.627 1.62171 526.674 1.75352C526.72 1.88533 526.739 2.02521 526.729 2.16458C526.729 3.58404 525.436 4.44297 523.411 4.44297C521.386 4.44297 520.12 3.58404 520.12 2.16458Z" fill="#006838"/>
    <path d="M17.0495 56.6913H16.1454L15.7657 54.1869C15.5577 52.5956 15.2051 52.2611 13.9122 52.2611H0.15155V51.4565C2.17677 51.3028 2.3757 51.1491 2.3757 48.6718V39.061C2.3757 36.9092 2.17679 36.7374 0.223895 36.5837V35.77H7.45683V36.5837C5.53106 36.7374 5.33212 36.9092 5.33212 39.061V49.9104C5.33212 51.1491 5.40445 51.2214 6.625 51.2214H11.0552C12.2667 51.2214 12.3662 51.1762 12.3662 49.9556V39.4046C12.3662 36.9454 12.1944 36.7736 10.1963 36.6199V35.8062H17.4292V36.6199C15.4854 36.7736 15.2774 36.9454 15.2774 39.4046V49.9104C15.2774 51.0948 15.404 51.1762 16.1182 51.1762H17.6824L17.0495 56.6913Z" fill="#006838"/>
    <path d="M33.1338 48.1024C32.902 49.491 32.6003 50.867 32.2297 52.2251H19.5721V51.4205C21.7781 51.2396 22.0042 51.0588 22.0042 48.9341V39.1245C22.0042 36.9004 21.7782 36.7919 19.9338 36.6472V35.8064H31.5969C31.5969 36.3127 31.7506 38.0847 31.85 39.5584L30.9911 39.685C30.8558 38.9004 30.5469 38.156 30.087 37.5061C29.6801 37.027 28.993 36.8461 27.4289 36.8461H25.9551C25.051 36.8461 24.9968 36.9003 24.9968 37.7502V43.2473H26.9407C29.1196 43.2473 29.3727 43.0936 29.7073 41.3486H30.6114V46.2941H29.7073C29.3727 44.4859 29.1196 44.3684 26.9407 44.3684H24.9968V48.8889C24.9968 50.1005 25.1234 50.6972 25.6026 50.9594C26.3674 51.2157 27.177 51.3111 27.9804 51.2396C29.5265 51.2396 30.3582 51.0679 30.9459 50.4079C31.5308 49.6772 31.992 48.8556 32.3111 47.9758L33.1338 48.1024Z" fill="#006838"/>
    <path d="M52.4732 36.647C50.4751 36.8188 50.3034 36.9454 50.3034 39.0972V49.0425C50.3034 51.1671 50.5023 51.3209 52.4732 51.5017V52.3064H45.0776V51.5017C47.1299 51.3209 47.3288 51.1671 47.3288 49.0425V44.2054H39.8066V49.0063C39.8066 51.131 40.0145 51.2847 41.9674 51.4655V52.2702H34.7345V51.4655C36.6512 51.2847 36.8863 51.131 36.8863 49.0063V39.061C36.8863 36.9092 36.6512 36.7555 34.6531 36.6108V35.77H41.886V36.6108C40.0145 36.7555 39.8066 36.9092 39.8066 39.061V42.9126H47.3288V39.061C47.3288 36.9092 47.148 36.7826 45.2313 36.6108V35.77H52.4642L52.4732 36.647Z" fill="#006838"/>
    <path d="M68.1955 39.9652C68.059 39.0754 67.722 38.2283 67.21 37.4879C66.7579 36.9816 66.1974 36.8279 64.5519 36.8279H63.1596V49.0063C63.1596 51.1129 63.3856 51.3118 65.6911 51.4926V52.2973H57.7891V51.4926C59.968 51.3118 60.2212 51.1129 60.2212 49.0063V36.8459H59.082C57.0025 36.8459 56.5234 37.072 56.1708 37.5512C55.682 38.2944 55.3555 39.1324 55.2124 40.0103H54.3083C54.4168 38.2925 54.5614 36.4934 54.6157 35.1733H55.1943C55.574 35.761 55.9086 35.8062 56.6138 35.8062H66.776C67.0429 35.8288 67.311 35.7823 67.5548 35.6715C67.7986 35.5607 68.0099 35.3892 68.1684 35.1733H68.7561C68.7561 36.2673 68.8826 38.3648 69.0092 39.938L68.1955 39.9652Z" fill="#006838"/>
    <path d="M77.7431 35.807C79.2715 35.6821 80.8008 36.036 82.119 36.8196C82.7031 37.2316 83.1748 37.7834 83.4907 38.4247C83.8065 39.0659 83.9566 39.7761 83.9272 40.4903C83.9272 43.8627 81.45 45.3997 78.8371 45.7342C78.4851 45.7647 78.1312 45.7647 77.7792 45.7342L75.971 45.3002V49.0071C75.971 51.1318 76.197 51.2854 78.4031 51.4663V52.2709H70.908V51.4663C72.8609 51.2854 73.0869 51.1046 73.0869 48.9799V39.1251C73.0869 36.9462 72.8608 36.7925 71.0616 36.6478V35.807H77.7431ZM75.9348 44.3871C76.4321 44.5585 76.9549 44.6441 77.4809 44.6402C78.6653 44.6402 80.6905 43.9079 80.6905 40.5717C80.6905 37.7599 79.0269 36.7473 77.3001 36.7473C76.9126 36.7208 76.5258 36.8088 76.188 37.0004C76.0071 37.1541 75.9348 37.4253 75.9348 37.9045V44.3871Z" fill="#006838"/>
    <path d="M97.9102 36.495C97.6821 36.7028 97.4993 36.9553 97.3733 37.2369C97.2473 37.5185 97.1808 37.823 97.1779 38.1315C97.1705 38.3582 97.2138 38.5836 97.3044 38.7915C97.3715 38.9288 97.4567 39.0565 97.5576 39.1713C97.7118 39.0707 97.8835 39.0002 98.0639 38.9633C98.2505 38.9498 98.4378 38.9498 98.6244 38.9633C98.8216 38.9624 99.0175 38.9961 99.2031 39.0628C99.4088 39.1305 99.5993 39.238 99.7636 39.3792C99.9406 39.5364 100.085 39.7269 100.189 39.9397C100.308 40.1961 100.369 40.4754 100.369 40.758C100.369 41.0406 100.308 41.3198 100.189 41.5762C100.081 41.7941 99.9267 41.9855 99.7365 42.1367C99.5511 42.2818 99.3392 42.3893 99.1126 42.4532C98.8961 42.5208 98.6704 42.5544 98.4436 42.5526C98.1278 42.5539 97.8158 42.4837 97.5309 42.3475C97.246 42.2113 96.9955 42.0126 96.7981 41.7661C96.3042 41.1339 96.0597 40.3424 96.111 39.5419C96.1002 38.9396 96.227 38.3429 96.4817 37.797C96.7166 37.3067 97.0211 36.853 97.3858 36.4499C97.7417 36.0736 98.1322 35.7315 98.5521 35.4282L99.7184 34.6326L99.8992 34.958C99.1958 35.4158 98.5306 35.9298 97.9102 36.495ZM103.154 36.495C102.926 36.7028 102.743 36.9553 102.617 37.2369C102.491 37.5185 102.425 37.823 102.422 38.1315C102.41 38.3585 102.454 38.5849 102.548 38.7915C102.612 38.9306 102.698 39.0588 102.801 39.1713C102.954 39.0676 103.126 38.9967 103.308 38.9633C103.491 38.9498 103.676 38.9498 103.859 38.9633C104.059 38.9625 104.258 38.9962 104.447 39.0628C104.651 39.1286 104.839 39.2364 104.998 39.3792C105.181 39.5338 105.328 39.7247 105.432 39.9397C105.546 40.1976 105.604 40.4763 105.604 40.758C105.604 41.0397 105.546 41.3183 105.432 41.5762C105.325 41.7964 105.167 41.9884 104.971 42.1367C104.79 42.2826 104.581 42.3902 104.357 42.4532C104.14 42.5208 103.914 42.5544 103.687 42.5526C103.372 42.5539 103.06 42.4837 102.775 42.3475C102.49 42.2113 102.239 42.0126 102.042 41.7661C101.544 41.136 101.299 40.343 101.355 39.5419C101.344 38.9396 101.471 38.3429 101.726 37.797C101.96 37.3067 102.265 36.853 102.63 36.4499C102.981 36.0693 103.372 35.7268 103.796 35.4282C104.221 35.1298 104.601 34.8676 104.962 34.6326L105.134 34.958C104.435 35.4179 103.773 35.9318 103.154 36.495Z" fill="#006838"/>
    <path d="M115.025 44.0091C117.529 44.3346 119.654 45.5461 119.654 48.3127C119.654 51.8749 116.218 53.3939 112.674 53.3939C111.227 53.4314 109.8 53.0449 108.57 52.2818C108.249 52.063 107.978 51.7779 107.777 51.4456C107.576 51.1134 107.448 50.7418 107.403 50.356C107.388 50.0693 107.486 49.7879 107.675 49.5718C107.864 49.3557 108.13 49.2219 108.416 49.1987C108.68 49.2376 108.931 49.3402 109.147 49.4977C109.363 49.6552 109.537 49.8629 109.655 50.1029C109.901 50.7432 110.331 51.2966 110.891 51.6938C111.451 52.091 112.115 52.3144 112.801 52.3361C114.166 52.3361 115.839 51.4319 115.839 48.5116C115.839 46.179 114.573 44.7144 113.126 44.7144C112.466 44.7144 111.788 45.0127 111.029 45.0127C110.89 45.0317 110.748 45.0214 110.614 44.9824C110.479 44.9435 110.354 44.8767 110.247 44.7864C110.139 44.6961 110.052 44.5843 109.99 44.4582C109.929 44.3321 109.895 44.1945 109.89 44.0543C109.895 43.9115 109.93 43.7713 109.992 43.6426C110.054 43.5139 110.143 43.3996 110.251 43.3069C110.36 43.2142 110.487 43.1452 110.624 43.1042C110.761 43.0632 110.905 43.0512 111.047 43.0689C111.833 43.0689 112.466 43.3672 113.181 43.3672C114.04 43.3672 115.305 42.5083 115.305 40.5373C115.305 38.5664 114.238 37.2192 112.674 37.2192C110.794 37.2192 109.709 39.145 109.148 40.9622L108.244 40.7091C108.443 39.805 108.624 37.9064 108.696 37.0927C109.175 36.939 109.6 36.8124 110.242 36.6134C111.256 36.3268 112.3 36.1629 113.352 36.1252C116.969 36.1252 118.849 37.7436 118.849 40.0762C118.841 40.6108 118.706 41.1356 118.454 41.6073C118.203 42.079 117.842 42.484 117.403 42.7886C116.672 43.2608 115.869 43.6091 115.025 43.8193V44.0091Z" fill="#006838"/>
    <path d="M136.344 57.5432H135.332L134.925 54.8941C134.699 53.3481 134.364 53.0136 133.053 53.0136H124.699C123.56 53.0136 123.226 53.4746 122.801 55.1925L122.141 57.5432H121.128L121.255 51.9015H122.692C122.85 51.9083 123.007 51.8623 123.136 51.7706C123.265 51.679 123.36 51.5468 123.406 51.3952C124.193 49.7045 125.124 45.7264 125.124 39.1715C125.124 38.1047 125.025 37.7792 123.605 37.5712L122.701 37.4446V36.5405H136.823V37.4446C134.798 37.5983 134.645 37.7249 134.645 40.2112V50.5815C134.645 51.7478 134.726 51.9015 135.431 51.9015H137.05L136.344 57.5432ZM131.2 39.0901C131.2 37.7521 131.2 37.6797 130.214 37.6797H127.556C126.544 37.6797 126.517 37.752 126.517 38.7375C126.552 42.8974 126.128 47.0484 125.251 51.1149C125.097 51.7297 125.124 51.9015 125.838 51.9015H129.636C130.874 51.9015 131.2 51.7026 131.2 50.2831V39.0901Z" fill="#006838"/>
    <path d="M156.163 44.6146C156.176 45.7485 155.965 46.8739 155.543 47.9264C155.122 48.979 154.497 49.9381 153.704 50.7491C152.911 51.5601 151.967 52.2071 150.924 52.6531C149.882 53.0991 148.762 53.3354 147.628 53.3484C146.494 53.3615 145.369 53.1511 144.316 52.7292C143.263 52.3074 142.304 51.6823 141.493 50.8898C140.682 50.0973 140.035 49.1527 139.589 48.1102C139.143 47.0676 138.907 45.9474 138.894 44.8136C138.87 43.6516 139.086 42.4971 139.527 41.422C139.969 40.3469 140.627 39.3742 141.461 38.5643C142.294 37.7544 143.286 37.1247 144.373 36.7144C145.46 36.3041 146.621 36.1219 147.781 36.1792C148.894 36.1543 149.999 36.3558 151.031 36.7715C152.063 37.1873 152.999 37.8086 153.783 38.5977C154.567 39.3868 155.182 40.3271 155.591 41.3615C156 42.3959 156.195 43.5027 156.163 44.6146ZM142.773 44.3343C142.773 48.6651 144.698 52.3358 147.935 52.3358C150.34 52.3358 152.293 49.9761 152.293 45.3199C152.293 40.2839 150.241 37.2461 147.329 37.2461C144.771 37.2461 142.773 39.9494 142.773 44.3343Z" fill="#006838"/>
    <path d="M165.457 36.5586C167.455 36.5586 168.893 36.8389 169.887 37.5441C170.489 37.9562 170.976 38.5141 171.303 39.1655C171.63 39.8169 171.787 40.5406 171.759 41.2691C171.759 44.6595 169.254 46.2055 166.596 46.5401C166.242 46.5757 165.886 46.5908 165.529 46.5853L163.812 46.1784V49.6502C163.812 51.802 164.038 51.9738 166.217 52.1546V53.0588H158.342V52.1546C160.24 51.9738 160.466 51.802 160.466 49.6502V39.9491C160.466 37.7973 160.24 37.6526 158.495 37.4446V36.5405L165.457 36.5586ZM163.812 45.1658C164.247 45.3328 164.71 45.4186 165.177 45.419C166.081 45.419 168.133 44.768 168.133 41.3414C168.133 38.4844 166.515 37.5441 164.969 37.5441C164.648 37.5315 164.332 37.6201 164.065 37.7973C163.889 38.0194 163.807 38.3021 163.839 38.5838L163.812 45.1658Z" fill="#006838"/>
    <path d="M191.703 44.6146C191.716 45.7485 191.506 46.8739 191.084 47.9264C190.662 48.979 190.037 49.9381 189.245 50.7491C188.452 51.5601 187.508 52.2071 186.465 52.6531C185.422 53.0991 184.302 53.3354 183.168 53.3484C182.035 53.3615 180.909 53.1511 179.857 52.7292C178.804 52.3074 177.845 51.6823 177.034 50.8898C176.223 50.0973 175.576 49.1527 175.13 48.1102C174.684 47.0676 174.448 45.9474 174.435 44.8136C174.411 43.6516 174.627 42.4971 175.068 41.422C175.51 40.3469 176.168 39.3742 177.001 38.5643C177.835 37.7544 178.826 37.1247 179.914 36.7144C181.001 36.3041 182.161 36.1219 183.322 36.1792C184.434 36.1543 185.54 36.3558 186.571 36.7715C187.603 37.1873 188.54 37.8086 189.324 38.5977C190.108 39.3868 190.723 40.3271 191.132 41.3615C191.541 42.3959 191.735 43.5027 191.703 44.6146ZM178.313 44.3343C178.313 48.6651 180.239 52.3358 183.476 52.3358C185.881 52.3358 187.834 49.9761 187.834 45.3199C187.834 40.2839 185.781 37.2461 182.87 37.2461C180.311 37.2461 178.313 39.9494 178.313 44.3343Z" fill="#006838"/>
    <path d="M203.095 44.181C206.034 44.5336 207.977 45.7271 207.977 48.132C207.974 48.9258 207.747 49.7025 207.323 50.3738C206.9 51.0451 206.296 51.5841 205.582 51.9293C203.915 52.7199 202.081 53.0923 200.238 53.0143H193.828V52.1102C195.781 51.9384 196.007 51.7575 196.007 49.6057V39.9317C196.007 37.7799 195.781 37.6081 193.982 37.4273V36.5232H201.377C202.828 36.4075 204.281 36.722 205.554 37.4273C206.028 37.7412 206.414 38.1709 206.675 38.6756C206.936 39.1804 207.064 39.7435 207.046 40.3115C207.046 42.7164 204.922 43.7109 203.095 44.0635V44.181ZM199.931 43.8284C202.363 43.8284 203.448 42.8701 203.448 40.7635C203.448 38.4851 202.083 37.6262 200.736 37.6262C200.332 37.5984 199.931 37.7067 199.596 37.9336C199.416 38.1054 199.37 38.4851 199.37 39.0185V43.7923L199.931 43.8284ZM199.352 49.5787C199.352 51.4502 199.859 51.9746 201.16 51.9565C202.462 51.9384 204.171 50.8896 204.171 48.4123C204.171 45.935 202.706 44.7958 199.822 44.7958H199.316L199.352 49.5787Z" fill="#006838"/>
    <path d="M227.959 44.6148C227.998 46.3411 227.518 48.0394 226.582 49.4904C225.646 50.9415 224.297 52.0785 222.708 52.7547C221.119 53.4309 219.364 53.6153 217.669 53.2839C215.975 52.9525 214.418 52.1206 213.201 50.8957C211.984 49.6708 211.163 48.1092 210.842 46.4124C210.522 44.7157 210.717 42.9619 211.404 41.3775C212.09 39.7931 213.236 38.4509 214.693 37.5243C216.15 36.5977 217.851 36.1292 219.577 36.1794C220.689 36.1544 221.795 36.3559 222.827 36.7717C223.858 37.1875 224.795 37.8088 225.579 38.5979C226.363 39.387 226.978 40.3273 227.387 41.3617C227.796 42.3961 227.991 43.5029 227.959 44.6148ZM214.559 44.3345C214.559 48.6652 216.485 52.336 219.731 52.336C222.136 52.336 224.08 49.9762 224.08 45.32C224.08 40.2841 222.028 37.2463 219.116 37.2463C216.567 37.2463 214.559 39.9496 214.559 44.3345Z" fill="#006838"/>
    <path d="M243.654 48.8094C243.5 49.9576 242.967 52.2541 242.75 53.0136H229.857V52.1095C232.009 51.9377 232.262 51.784 232.262 49.6322V39.931C232.262 37.7249 232.009 37.5983 230.21 37.4446V36.5405H242.135C242.135 37.0016 242.28 38.7737 242.388 40.3378L241.484 40.4644C241.309 39.6707 240.953 38.9282 240.444 38.2945C240.01 37.8334 239.332 37.6616 237.913 37.6616H236.701C235.797 37.6616 235.661 37.6616 235.661 38.5657V43.9362H237.352C239.486 43.9362 239.811 43.8096 240.164 42.0376H241.068V47.1549H240.164C239.811 45.3466 239.504 45.2291 237.352 45.2291H235.661V49.605C235.661 50.7985 235.761 51.4133 236.267 51.6845C237.007 51.8974 237.777 51.983 238.546 51.9377C239.045 52.0022 239.552 51.9632 240.036 51.8232C240.52 51.6832 240.97 51.4452 241.357 51.1239C241.947 50.3707 242.425 49.5364 242.777 48.6467L243.654 48.8094Z" fill="#006838"/>
    <path d="M261.754 53.014V52.1099C263.671 51.9562 263.879 51.7844 263.879 49.3071V38.6385C263.879 37.6802 263.825 37.6802 262.866 37.6802H258.436C257.469 37.6802 257.424 37.6802 257.424 38.5843V49.3524C257.424 51.8296 257.623 52.0014 259.476 52.1551V53.0592H251.827V52.1551C253.798 52.0014 254.006 51.8296 254.006 49.3524V40.1755C254.006 37.7706 253.798 37.5898 251.728 37.4632V36.5591H269.494V37.4632C267.468 37.6169 267.27 37.7977 267.27 40.2479V49.3433C267.27 51.8206 267.468 51.9924 269.448 52.1461V53.0502L261.754 53.014Z" fill="#006838"/>
    <path d="M281.772 53.0143V52.1102C283.779 51.9565 283.978 51.7576 283.978 49.3978V43.4487C283.978 42.5446 283.978 41.4506 284.104 38.9914H284.032L277.55 51.6491C277.379 51.9484 277.297 52.2904 277.314 52.6346V52.9871H271.474V52.083C273.445 51.9293 273.671 51.6852 273.671 49.2803V40.2391C273.671 37.7799 273.445 37.581 271.474 37.4273V36.5232H279.014V37.4273C277.206 37.581 276.989 37.7347 276.989 40.1397V45.3021C276.989 46.3147 276.989 47.6528 276.835 50.3381H276.889L283.417 37.7618C283.593 37.4922 283.69 37.1792 283.698 36.8577V36.5593H289.493V37.4635C287.522 37.6172 287.323 37.8703 287.323 40.1758V49.4702C287.323 51.8209 287.522 52.0198 289.493 52.1825V53.0866L281.772 53.0143Z" fill="#006838"/>
    <path d="M305.315 40.8896C305.181 39.9385 304.797 39.04 304.203 38.2858C303.769 37.8247 303.118 37.68 301.644 37.68H300.514V49.6505C300.514 51.8023 300.767 51.956 302.991 52.1278V53.0319H294.737V52.1278C296.861 51.956 297.114 51.8023 297.114 49.6505V37.68H296.255C294.185 37.68 293.724 37.9512 293.344 38.3581C292.807 39.1225 292.446 39.9963 292.286 40.9168H291.382C291.482 39.1085 291.635 37.2189 291.681 35.926H292.295C292.693 36.5137 293.028 36.5589 293.733 36.5589H303.913C304.191 36.5838 304.47 36.5389 304.726 36.4284C304.982 36.3178 305.206 36.1452 305.378 35.926H305.939C305.939 36.9929 306.092 39.217 306.219 40.8444L305.315 40.8896Z" fill="#006838"/>
    <path d="M315.468 53.0146V52.1104C316.96 51.8844 317.086 51.577 316.679 50.4649C316.426 49.7055 316.046 48.6567 315.667 47.6079H310.812C310.531 48.3945 310.206 49.3076 309.908 50.3203C309.555 51.5318 309.6 51.8844 311.454 52.1285V53.0326H305.785V52.1285C307.457 51.9296 307.765 51.6494 308.597 49.5247L313.795 36.5596L315.088 36.2251C316.706 40.6553 318.28 45.0673 319.925 49.4161C320.784 51.6403 321.11 51.9748 322.71 52.1737V53.0779L315.468 53.0146ZM313.316 40.818H313.244C312.529 42.6263 311.897 44.4887 311.237 46.2427H315.188L313.316 40.818Z" fill="#006838"/>
    <path d="M342.836 37.4627C340.856 37.6436 340.711 37.7973 340.711 39.9491V49.6955C340.711 51.8202 340.91 51.9738 342.836 52.1456V53.0497H335.115V52.1456C337.14 51.9738 337.312 51.793 337.312 49.6683V44.9579H330.404V49.6683C330.404 51.8201 330.603 51.9738 332.484 52.1456V53.0497H324.925V52.1456C326.733 51.9738 327.005 51.8201 327.005 49.6683V39.931C327.005 37.7792 326.779 37.6255 324.826 37.4446V36.5405H332.42V37.4446C330.612 37.6255 330.395 37.7792 330.395 39.931V43.6469H337.303V39.931C337.303 37.7792 337.104 37.6255 335.232 37.4446V36.5405H342.827L342.836 37.4627Z" fill="#006838"/>
    <path d="M355.213 53.0143V52.1102C357.211 51.9565 357.419 51.7576 357.419 49.3978V43.4487C357.419 42.5446 357.419 41.4506 357.546 38.9914H357.474L350.991 51.6491C350.828 51.9511 350.75 52.2917 350.765 52.6346V52.9871H344.906V52.083C346.886 51.9293 347.112 51.6852 347.112 49.2803V40.2391C347.112 37.7799 346.886 37.581 344.906 37.4273V36.5232H352.456V37.4273C350.647 37.581 350.431 37.7347 350.431 40.1397V45.3021C350.431 46.3147 350.43 47.6528 350.277 50.3381H350.331L356.859 37.7618C357.031 37.4907 357.128 37.1786 357.139 36.8577V36.5593H362.898V37.4635C360.927 37.6172 360.719 37.8703 360.719 40.1758V49.4702C360.719 51.8209 360.927 52.0198 362.898 52.1825V53.0866L355.213 53.0143Z" fill="#006838"/>
    <path d="M378.53 48.8094C378.376 49.9576 377.843 52.2541 377.626 53.0136H364.706V52.1095C366.858 51.9377 367.111 51.784 367.111 49.6322V39.931C367.111 37.7249 366.858 37.5983 365.059 37.4446V36.5405H376.984C376.984 37.0016 377.138 38.7737 377.237 40.3378L376.333 40.4644C376.162 39.6694 375.806 38.926 375.293 38.2945C374.868 37.8334 374.181 37.6616 372.762 37.6616H371.55C370.646 37.6616 370.51 37.6616 370.51 38.5657V43.9362H372.21C374.335 43.9362 374.66 43.8096 375.013 42.0376H375.917V47.1549H375.013C374.66 45.3466 374.362 45.2291 372.21 45.2291H370.51V49.605C370.51 50.7985 370.61 51.4133 371.116 51.6845C371.856 51.8969 372.626 51.9825 373.395 51.9377C373.894 52.0022 374.401 51.9632 374.885 51.8232C375.369 51.6832 375.819 51.4452 376.206 51.1239C376.8 50.3732 377.278 49.5383 377.626 48.6467L378.53 48.8094Z" fill="#006838"/>
    <path d="M382.355 40.6C382.583 40.3923 382.766 40.1398 382.892 39.8582C383.018 39.5766 383.084 39.2721 383.087 38.9636C383.094 38.7398 383.051 38.5174 382.96 38.3126C382.892 38.1733 382.807 38.0428 382.707 37.9239C382.555 38.0281 382.383 38.0989 382.201 38.1318C382.015 38.1497 381.827 38.1497 381.64 38.1318C381.446 38.1311 381.254 38.0975 381.071 38.0324C380.861 37.9668 380.668 37.8592 380.501 37.716C380.325 37.5614 380.181 37.374 380.076 37.1644C379.948 36.9097 379.886 36.6268 379.895 36.3417C379.884 36.0564 379.946 35.773 380.076 35.5189C380.183 35.3006 380.338 35.1091 380.528 34.9584C380.714 34.8133 380.926 34.7058 381.152 34.6419C381.37 34.578 381.595 34.5446 381.821 34.5425C382.137 34.5426 382.448 34.6132 382.733 34.7493C383.018 34.8854 383.269 35.0835 383.467 35.3291C383.955 35.9636 384.196 36.7541 384.145 37.5532C384.157 38.1537 384.037 38.7495 383.792 39.2982C383.562 39.7937 383.257 40.2511 382.888 40.6543C382.534 41.0413 382.14 41.3898 381.713 41.694C381.288 41.9924 380.899 42.2456 380.546 42.4626L380.366 42.137C381.067 41.677 381.733 41.1631 382.355 40.6ZM387.59 40.6C387.818 40.3923 388 40.1398 388.126 39.8582C388.252 39.5766 388.319 39.2721 388.322 38.9636C388.335 38.5808 388.199 38.208 387.942 37.9239C387.792 38.0312 387.618 38.1023 387.436 38.1318C387.252 38.1497 387.068 38.1497 386.884 38.1318C386.69 38.1311 386.498 38.0975 386.315 38.0324C386.104 37.9707 385.909 37.8626 385.745 37.716C385.566 37.5622 385.418 37.3748 385.311 37.1644C385.187 36.9082 385.125 36.6263 385.13 36.3417C385.123 36.0568 385.185 35.7744 385.311 35.5189C385.421 35.3002 385.579 35.1088 385.772 34.9584C385.956 34.816 386.164 34.7087 386.387 34.6419C386.605 34.5786 386.83 34.5451 387.056 34.5425C387.372 34.5413 387.684 34.6114 387.969 34.7476C388.254 34.8838 388.504 35.0826 388.702 35.3291C389.197 35.9604 389.442 36.7524 389.389 37.5532C389.401 38.1537 389.28 38.7495 389.036 39.2982C388.805 39.7932 388.5 40.2504 388.132 40.6543C387.78 41.0435 387.386 41.3921 386.957 41.694C386.532 41.9924 386.152 42.2456 385.79 42.4626L385.619 42.137C386.315 41.6768 386.974 41.1629 387.59 40.6Z" fill="#006838"/>
</svg>
