<svg width="97" height="86" viewBox="0 0 97 86" fill="none" xmlns="http://www.w3.org/2000/svg">
    <path fill-rule="evenodd" clip-rule="evenodd" d="M35.357 45.3943L31.1986 46.1688L28.4396 42.9578L29.8524 38.9689L34.0041 38.1877L36.7564 41.3988L35.357 45.3943Z" fill="#28903B"/>
    <path fill-rule="evenodd" clip-rule="evenodd" d="M41.8988 39.6441L37.7371 40.4186L34.9847 37.2076L36.3908 33.2221L40.5492 32.4409L43.3015 35.652L41.8988 39.6441Z" fill="#28903B"/>
    <path fill-rule="evenodd" clip-rule="evenodd" d="M34.4131 37.3468L31.6375 37.8653L29.8027 35.7279L30.7401 33.0654L33.5123 32.5535L35.3439 34.6875L34.4131 37.3468Z" fill="#28903B"/>
    <path fill-rule="evenodd" clip-rule="evenodd" d="M43.4346 47.6411L39.3028 48.4156L36.5671 45.2245L37.9698 41.2589L42.0983 40.4844L44.8274 43.6788L43.4346 47.6411Z" fill="#28903B"/>
    <path fill-rule="evenodd" clip-rule="evenodd" d="M47.7956 41.9034L44.9103 42.4452L43.0023 40.2148L43.9763 37.4491L46.8615 36.9106L48.7696 39.1344L47.7956 41.9034Z" fill="#28903B"/>
    <path fill-rule="evenodd" clip-rule="evenodd" d="M36.4539 32.6789L34.9714 32.9548L33.9908 31.8113L34.4894 30.3853L35.9752 30.1028L36.9558 31.2529L36.4539 32.6789Z" fill="#28903B"/>
    <path fill-rule="evenodd" clip-rule="evenodd" d="M46.4562 49.6422L44.9736 49.9148L43.9864 48.7713L44.4916 47.3453L45.9742 47.0728L46.9581 48.2129L46.4562 49.6422Z" fill="#28903B"/>
    <path fill-rule="evenodd" clip-rule="evenodd" d="M39.2063 27.9532L36.198 28.5116L34.2069 26.1914L35.2274 23.3062L38.229 22.7444L40.2201 25.0679L39.2063 27.9532Z" fill="#28903B"/>
    <path fill-rule="evenodd" clip-rule="evenodd" d="M40.4961 31.6493L38.8839 31.9551L37.8136 30.7019L38.3621 29.1529L39.9709 28.8538L41.0413 30.1003L40.4961 31.6493Z" fill="#28903B"/>
    <path fill-rule="evenodd" clip-rule="evenodd" d="M51.0932 45.3843L48.6866 43.0674L49.4877 39.8331L52.6921 38.9124L55.0954 41.2192L54.2943 44.4602L51.0932 45.3843Z" fill="#28903B"/>
    <path fill-rule="evenodd" clip-rule="evenodd" d="M49.9331 38.4599L47.9918 36.5918L48.6367 33.9724L51.2328 33.2212L53.1773 35.0926L52.5225 37.7153L49.9331 38.4599Z" fill="#28903B"/>
    <path fill-rule="evenodd" clip-rule="evenodd" d="M44.3221 35.1658L42.0052 32.9353L42.7798 29.8174L45.8711 28.9265L48.1813 31.1536L47.4102 34.2683L44.3221 35.1658Z" fill="#D7DF23"/>
    <path fill-rule="evenodd" clip-rule="evenodd" d="M44.3786 25.8681L43.1188 26.1074L42.2844 25.1301L42.7099 23.9235L43.9697 23.6875L44.8007 24.6581L44.3786 25.8681Z" fill="#28903B"/>
    <path fill-rule="evenodd" clip-rule="evenodd" d="M42.2944 27.4708L41.0312 27.7035L40.2002 26.7328L40.629 25.5162L41.8855 25.2869L42.7165 26.2608L42.2944 27.4708Z" fill="#28903B"/>
    <path fill-rule="evenodd" clip-rule="evenodd" d="M44.5812 28.5811L43.3248 28.8171L42.4904 27.8431L42.9192 26.6365L44.1757 26.4038L45.0067 27.3744L44.5812 28.5811Z" fill="#28903B"/>
    <path fill-rule="evenodd" clip-rule="evenodd" d="M59.5961 47.6343L57.1895 45.3142L57.9906 42.0798L61.1983 41.1558L63.595 43.4627L62.7939 46.7036L59.5961 47.6343Z" fill="#28903B"/>
    <path fill-rule="evenodd" clip-rule="evenodd" d="M56.98 41.0556L53.9485 38.1371L54.9656 34.0551L58.9977 32.895L62.0293 35.8069L61.0154 39.8855L56.98 41.0556Z" fill="#D7DF23"/>
    <path fill-rule="evenodd" clip-rule="evenodd" d="M46.7253 46.9694L45.3658 45.653L45.8179 43.8182L47.6361 43.293L48.9957 44.606L48.5403 46.4442L46.7253 46.9694Z" fill="#28903B"/>
    <path fill-rule="evenodd" clip-rule="evenodd" d="M62.3185 34.7773L60.467 32.989L61.082 30.4993L63.5518 29.7913L65.3999 31.5663L64.7883 34.0627L62.3185 34.7773Z" fill="#28903B"/>
    <path fill-rule="evenodd" clip-rule="evenodd" d="M64.1965 42.3758L61.903 40.162L62.6642 37.0806L65.7256 36.1997L68.0159 38.4036L67.2514 41.4883L64.1965 42.3758Z" fill="#28903B"/>
    <path fill-rule="evenodd" clip-rule="evenodd" d="M50.322 32.696L48.6766 31.1171L49.225 28.9033L51.4189 28.2717L53.051 29.854L52.5059 32.0612L50.322 32.696Z" fill="#28903B"/>
    <path fill-rule="evenodd" clip-rule="evenodd" d="M57.0532 28.6771L56.1092 29.9003L54.5668 29.7009L53.9785 28.2716L54.9225 27.0383L56.4582 27.2411L57.0532 28.6771Z" fill="#28903B"/>
    <path fill-rule="evenodd" clip-rule="evenodd" d="M56.4682 31.7951L55.5209 33.025L53.9851 32.8222L53.3901 31.3896L54.3342 30.1597L55.8732 30.3624L56.4682 31.7951Z" fill="#28903B"/>
    <path fill-rule="evenodd" clip-rule="evenodd" d="M59.4265 30.9448L58.4858 32.1747L56.9468 31.9719L56.3551 30.5392L57.2958 29.3093L58.8348 29.5088L59.4265 30.9448Z" fill="#28903B"/>
    <path fill-rule="evenodd" clip-rule="evenodd" d="M35.2906 46.9261L34.7787 48.0995L33.5089 48.2424L32.7444 47.2153L33.2563 46.0419L34.5294 45.8923L35.2906 46.9261Z" fill="#28903B"/>
    <path fill-rule="evenodd" clip-rule="evenodd" d="M34.1471 29.1824L33.4058 30.8877L31.5577 31.0971L30.4574 29.6046L31.1987 27.8994L33.0435 27.6899L34.1471 29.1824Z" fill="#28903B"/>
    <path fill-rule="evenodd" clip-rule="evenodd" d="M37.6507 48.2729L37.1388 49.4463L35.8657 49.5959L35.1078 48.5621L35.6164 47.3887L36.8895 47.2424L37.6507 48.2729Z" fill="#28903B"/>
    <path fill-rule="evenodd" clip-rule="evenodd" d="M47.8723 28.4213L45.3127 25.9549L46.1637 22.4978L49.5908 21.5139L52.1503 23.9804L51.2927 27.4307L47.8723 28.4213Z" fill="#D7DF23"/>
    <path fill-rule="evenodd" clip-rule="evenodd" d="M41.4401 23.8181L39.8014 22.2391L40.3432 20.0286L42.5404 19.4004L44.1758 20.976L43.6274 23.1832L41.4401 23.8181Z" fill="#28903B"/>
    <path fill-rule="evenodd" clip-rule="evenodd" d="M60.3573 29.4485L58.5058 27.6635L59.1208 25.1737L61.5938 24.4624L63.442 26.2374L62.8237 28.7338L60.3573 29.4485Z" fill="#28903B"/>
    <path fill-rule="evenodd" clip-rule="evenodd" d="M53.3901 26.647L52.3829 25.673L52.722 24.3135L54.0682 23.9246L55.0787 24.8952L54.743 26.258L53.3901 26.647Z" fill="#28903B"/>
    <path fill-rule="evenodd" clip-rule="evenodd" d="M56.7639 26.3535L55.564 25.2034L55.9595 23.5846L57.565 23.1226L58.765 24.2793L58.3695 25.8981L56.7639 26.3535Z" fill="#28903B"/>
    <path fill-rule="evenodd" clip-rule="evenodd" d="M53.8256 23.0501L52.6522 21.9233L53.0445 20.3377L54.6101 19.8823L55.7835 21.0192L55.3912 22.5981L53.8256 23.0501Z" fill="#28903B"/>
    <path fill-rule="evenodd" clip-rule="evenodd" d="M54.7496 47.3519L53.769 46.4111L54.1014 45.0882L55.4077 44.7092L56.3883 45.6533L56.0593 46.9729L54.7496 47.3519Z" fill="#28903B"/>
    <path fill-rule="evenodd" clip-rule="evenodd" d="M45.685 21.6436L44.6412 20.6398L44.9869 19.237L46.383 18.8381L47.4168 19.8387L47.0711 21.2414L45.685 21.6436Z" fill="#28903B"/>
    <path fill-rule="evenodd" clip-rule="evenodd" d="M49.5242 19.9017L48.9126 19.3133L49.1187 18.4923L49.9331 18.2529L50.5414 18.8413L50.3386 19.6623L49.5242 19.9017Z" fill="#28903B"/>
    <path fill-rule="evenodd" clip-rule="evenodd" d="M50.2389 49.5922L48.8926 48.2992L49.3381 46.4875L51.1331 45.969L52.476 47.2621L52.0272 49.0737L50.2389 49.5922Z" fill="#28903B"/>
    <path fill-rule="evenodd" clip-rule="evenodd" d="M66.2143 43.6524L66.457 44.9122L65.4897 45.7532L64.2764 45.3343L64.0338 44.0779L65.0044 43.2302L66.2143 43.6524Z" fill="#28903B"/>
    <path fill-rule="evenodd" clip-rule="evenodd" d="M58.6886 47.774L58.9346 49.0271L57.9639 49.8714L56.754 49.4526L56.508 48.1961L57.4819 47.3518L58.6886 47.774Z" fill="#28903B"/>
    <path d="M50.2157 49.9751H46.998V54.6354H50.2157V49.9751Z" fill="#28903B"/>
    <path d="M19.5777 54.2693H76.8511C77.5392 54.2693 65.4663 71.4181 48.3873 71.4181C31.3083 71.4181 19.5777 54.2693 19.5777 54.2693Z" fill="#006838"/>
    <path d="M17.4537 15.1814C17.4537 15.1814 12.2881 8.60639 20.4088 4.36157C20.4088 4.36157 21.6852 13.1338 17.4537 15.1814Z" fill="#006838"/>
    <path d="M28.8219 15.2083C28.8219 15.2083 20.6713 11.7247 17.6099 15.2914C17.6099 15.2914 22.6392 21.9694 28.8219 15.2083Z" fill="#006838"/>
    <path d="M10.1442 25.0075C10.1442 25.0075 3.2833 20.2275 9.81175 13.7988C9.81175 13.7988 13.5912 21.8164 10.1442 25.0075Z" fill="#006838"/>
    <path d="M21.0238 21.7132C21.0238 21.7132 12.2117 20.7659 10.3237 25.0705C10.3237 25.0705 17.0848 29.9868 21.0238 21.7132Z" fill="#006838"/>
    <path d="M6.69717 36.7049C6.69717 36.7049 -1.35369 34.4412 2.70831 26.2241C2.70498 26.2142 8.91764 32.5565 6.69717 36.7049Z" fill="#006838"/>
    <path d="M15.8981 30.02C15.8981 30.02 7.25557 32.0144 6.89325 36.7014C6.89325 36.7014 14.8942 39.1279 15.8981 30.02Z" fill="#006838"/>
    <path d="M7.17243 49.4297C7.17243 49.4297 -1.18092 49.7621 0.142053 40.6941C0.142053 40.6941 7.99347 44.8026 7.17243 49.4297Z" fill="#006838"/>
    <path d="M13.857 40.2314C13.857 40.2314 6.25823 44.7954 7.35517 49.3659C7.35517 49.3659 15.7152 49.2031 13.857 40.2314Z" fill="#006838"/>
    <path d="M10.9884 61.3261C10.9884 61.3261 3.13698 64.2014 1.62122 55.1633C1.62122 55.1633 10.3535 56.6691 10.9884 61.3261Z" fill="#006838"/>
    <path d="M14.5386 50.5266C14.5386 50.5266 8.70152 57.198 11.1414 61.2134C11.1414 61.2134 19.0526 58.501 14.5386 50.5266Z" fill="#006838"/>
    <path d="M19.2953 69.636C19.2953 69.636 13.3852 75.5529 8.19965 67.9973C8.19965 67.9973 16.7558 65.6804 19.2953 69.636Z" fill="#006838"/>
    <path d="M17.9556 58.3445C17.9556 58.3445 15.4792 66.8574 19.385 69.4701C19.385 69.4701 25.4115 63.6729 17.9556 58.3445Z" fill="#006838"/>
    <path d="M29.7229 76.5605C29.7229 76.5605 27.3196 84.5648 19.1757 80.3699C19.1757 80.3699 25.611 74.2769 29.7229 76.5605Z" fill="#006838"/>
    <path d="M23.2111 67.2463C23.2111 67.2463 25.0592 75.9155 29.7362 76.3675C29.7362 76.3675 32.3023 68.4098 23.2111 67.2463Z" fill="#006838"/>
    <path d="M40.0772 79.1663C40.0772 79.1663 39.6949 87.5164 30.7698 85.4255C30.7732 85.4255 35.5365 77.9497 40.0772 79.1663Z" fill="#006838"/>
    <path d="M31.488 71.7208C31.488 71.7208 35.3871 79.6786 40.0342 78.9806C40.0342 78.9806 40.5893 70.6405 31.488 71.7208Z" fill="#006838"/>
    <path d="M23.2609 10.5547C23.2609 10.5547 21.9313 2.57697 42.0751 0.582537C42.0751 0.565917 32.7511 12.2201 23.2609 10.5547Z" fill="#006838"/>
    <path d="M79.0019 15.1814C79.0019 15.1814 84.1708 8.59642 76.0635 4.36157C76.0635 4.36157 74.7737 13.1338 79.0019 15.1814Z" fill="#006838"/>
    <path d="M67.6371 15.2083C67.6371 15.2083 75.7877 11.7247 78.8491 15.2914C78.8491 15.2914 73.8165 21.9694 67.6371 15.2083Z" fill="#006838"/>
    <path d="M86.315 25.0075C86.315 25.0075 93.1758 20.2275 86.6474 13.7988C86.6474 13.7988 82.8679 21.8164 86.315 25.0075Z" fill="#006838"/>
    <path d="M75.4352 21.7132C75.4352 21.7132 84.2473 20.7659 86.1354 25.0705C86.1354 25.0705 79.3742 29.9868 75.4352 21.7132Z" fill="#006838"/>
    <path d="M89.7619 36.7049C89.7619 36.7049 97.8094 34.4412 93.7508 26.2241C93.7541 26.2142 87.5514 32.5565 89.7619 36.7049Z" fill="#006838"/>
    <path d="M80.5641 30.02C80.5641 30.02 89.2066 32.0144 89.5723 36.7014C89.5723 36.7014 81.568 39.1279 80.5641 30.02Z" fill="#006838"/>
    <path d="M89.2832 49.4297C89.2832 49.4297 97.6366 49.7621 96.3169 40.6941C96.3169 40.6941 88.4622 44.8026 89.2832 49.4297Z" fill="#006838"/>
    <path d="M82.5985 40.2314C82.5985 40.2314 90.1973 44.7954 89.1037 49.3659C89.1037 49.3659 80.7437 49.2031 82.5985 40.2314Z" fill="#006838"/>
    <path d="M85.4706 61.3261C85.4706 61.3261 93.322 64.2014 94.8378 55.1633C94.8378 55.1633 86.1022 56.6691 85.4706 61.3261Z" fill="#006838"/>
    <path d="M81.9203 50.5266C81.9203 50.5266 87.754 57.198 85.3142 61.2134C85.3142 61.2134 77.4063 58.501 81.9203 50.5266Z" fill="#006838"/>
    <path d="M77.1637 69.636C77.1637 69.636 83.0705 75.5529 88.2561 67.9973C88.2561 67.9973 79.7199 65.6804 77.1637 69.636Z" fill="#006838"/>
    <path d="M78.4998 58.3445C78.4998 58.3445 80.9763 66.8574 77.0705 69.4701C77.0705 69.4701 71.044 63.6729 78.4998 58.3445Z" fill="#006838"/>
    <path d="M66.7361 76.5605C66.7361 76.5605 69.1394 84.5648 77.2834 80.3699C77.2834 80.3699 70.8447 74.2769 66.7361 76.5605Z" fill="#006838"/>
    <path d="M73.258 67.2463C73.258 67.2463 71.4098 75.9155 66.7329 76.3675C66.7329 76.3675 64.17 68.4098 73.258 67.2463Z" fill="#006838"/>
    <path d="M56.3783 79.1663C56.3783 79.1663 56.7639 87.5164 65.6856 85.4255C65.6856 85.4255 60.919 77.9497 56.3783 79.1663Z" fill="#006838"/>
    <path d="M64.9678 71.7208C64.9678 71.7208 61.0721 79.6786 56.425 78.9806C56.425 78.9806 55.8699 70.6405 64.9678 71.7208Z" fill="#006838"/>
    <path d="M73.1948 10.5547C73.1948 10.5547 74.5244 2.57697 54.384 0.582537C54.384 0.565917 63.7079 12.2201 73.1948 10.5547Z" fill="#006838"/>
    <path fill-rule="evenodd" clip-rule="evenodd" d="M52.9479 80.0075C52.9479 80.9411 52.6711 81.8537 52.1525 82.6299C51.6338 83.4061 50.8966 84.0111 50.0341 84.3684C49.1716 84.7256 48.2226 84.8191 47.3069 84.637C46.3913 84.4548 45.5503 84.0053 44.8901 83.3452C44.23 82.685 43.7805 81.844 43.5983 80.9284C43.4162 80.0127 43.5097 79.0637 43.8669 78.2012C44.2242 77.3387 44.8292 76.6015 45.6054 76.0828C46.3816 75.5642 47.2942 75.2874 48.2278 75.2874C49.4797 75.2874 50.6802 75.7847 51.5654 76.6699C52.4506 77.5551 52.9479 78.7556 52.9479 80.0075Z" fill="#006838"/>
</svg>
