<svg width="78" height="69" viewBox="0 0 78 69" fill="none" xmlns="http://www.w3.org/2000/svg">
    <path fill-rule="evenodd" clip-rule="evenodd" d="M28.3237 35.898L24.9925 36.5184L22.7823 33.9462L23.914 30.7508L27.2399 30.125L29.4447 32.6973L28.3237 35.898Z" fill="#5FA17B"/>
    <path fill-rule="evenodd" clip-rule="evenodd" d="M33.5642 31.2908L30.2303 31.9113L28.0255 29.339L29.1519 26.1463L32.4831 25.5205L34.6879 28.0928L33.5642 31.2908Z" fill="#5FA17B"/>
    <path fill-rule="evenodd" clip-rule="evenodd" d="M27.5675 29.4511L25.3441 29.8665L23.8742 28.1543L24.6251 26.0214L26.8459 25.6113L28.3131 27.3209L27.5675 29.4511Z" fill="#5FA17B"/>
    <path fill-rule="evenodd" clip-rule="evenodd" d="M34.7944 37.6979L31.4845 38.3183L29.293 35.762L30.4167 32.5853L33.724 31.9648L35.9102 34.5238L34.7944 37.6979Z" fill="#5FA17B"/>
    <path fill-rule="evenodd" clip-rule="evenodd" d="M38.288 33.1016L35.9766 33.5357L34.4482 31.7489L35.2284 29.5334L37.5397 29.1021L39.0682 30.8835L38.288 33.1016Z" fill="#5FA17B"/>
    <path fill-rule="evenodd" clip-rule="evenodd" d="M29.2025 25.7121L28.0148 25.9331L27.2293 25.0171L27.6287 23.8748L28.819 23.6484L29.6045 24.5698L29.2025 25.7121Z" fill="#5FA17B"/>
    <path fill-rule="evenodd" clip-rule="evenodd" d="M37.2149 39.3006L36.0273 39.5189L35.2365 38.6029L35.6412 37.4605L36.8288 37.2422L37.617 38.1555L37.2149 39.3006Z" fill="#5FA17B"/>
    <path fill-rule="evenodd" clip-rule="evenodd" d="M31.4073 21.9261L28.9974 22.3734L27.4024 20.5148L28.2199 18.2034L30.6244 17.7534L32.2195 19.6147L31.4073 21.9261Z" fill="#5FA17B"/>
    <path fill-rule="evenodd" clip-rule="evenodd" d="M32.4405 24.8869L31.149 25.1319L30.2916 24.128L30.7309 22.8871L32.0197 22.6475L32.8772 23.646L32.4405 24.8869Z" fill="#5FA17B"/>
    <path fill-rule="evenodd" clip-rule="evenodd" d="M40.9296 35.8896L39.0017 34.0336L39.6435 31.4427L42.2104 30.7051L44.1356 32.5531L43.4939 35.1493L40.9296 35.8896Z" fill="#5FA17B"/>
    <path fill-rule="evenodd" clip-rule="evenodd" d="M40.0003 30.3431L38.4452 28.8466L38.9618 26.7483L41.0414 26.1465L42.5992 27.6457L42.0746 29.7466L40.0003 30.3431Z" fill="#5FA17B"/>
    <path fill-rule="evenodd" clip-rule="evenodd" d="M35.5054 27.7042L33.6494 25.9174L34.2699 23.4197L36.7463 22.7061L38.5969 24.4901L37.9792 26.9852L35.5054 27.7042Z" fill="#5FA17B"/>
    <path fill-rule="evenodd" clip-rule="evenodd" d="M35.5506 20.2561L34.5414 20.4478L33.873 19.6649L34.2139 18.6983L35.2231 18.5093L35.8888 19.2868L35.5506 20.2561Z" fill="#5FA17B"/>
    <path fill-rule="evenodd" clip-rule="evenodd" d="M33.881 21.5395L32.8691 21.7259L32.2034 20.9484L32.5469 19.9738L33.5535 19.79L34.2192 20.5702L33.881 21.5395Z" fill="#5FA17B"/>
    <path fill-rule="evenodd" clip-rule="evenodd" d="M35.713 22.4292L34.7065 22.6183L34.0381 21.8381L34.3816 20.8715L35.3881 20.6851L36.0538 21.4626L35.713 22.4292Z" fill="#5FA17B"/>
    <path fill-rule="evenodd" clip-rule="evenodd" d="M47.7411 37.6923L45.8132 35.8336L46.4549 33.2427L49.0245 32.5024L50.9444 34.3504L50.3027 36.9467L47.7411 37.6923Z" fill="#5FA17B"/>
    <path fill-rule="evenodd" clip-rule="evenodd" d="M45.6455 32.4225L43.217 30.0845L44.0318 26.8146L47.2618 25.8853L49.6903 28.2179L48.8781 31.4852L45.6455 32.4225Z" fill="#5FA17B"/>
    <path fill-rule="evenodd" clip-rule="evenodd" d="M37.4306 37.1599L36.3415 36.1055L36.7036 34.6356L38.1602 34.2148L39.2493 35.2667L38.8845 36.7392L37.4306 37.1599Z" fill="#5FA17B"/>
    <path fill-rule="evenodd" clip-rule="evenodd" d="M49.9219 27.3927L48.4387 25.9601L48.9313 23.9656L50.9098 23.3984L52.3903 24.8204L51.9004 26.8202L49.9219 27.3927Z" fill="#5FA17B"/>
    <path fill-rule="evenodd" clip-rule="evenodd" d="M51.4264 33.4798L49.5891 31.7063L50.1988 29.2379L52.6513 28.5322L54.486 30.2977L53.8735 32.7688L51.4264 33.4798Z" fill="#5FA17B"/>
    <path fill-rule="evenodd" clip-rule="evenodd" d="M40.3118 25.7259L38.9937 24.461L39.433 22.6876L41.1905 22.1816L42.4979 23.4491L42.0612 25.2173L40.3118 25.7259Z" fill="#5FA17B"/>
    <path fill-rule="evenodd" clip-rule="evenodd" d="M45.704 22.5061L44.9478 23.4861L43.7122 23.3263L43.2409 22.1813L43.9971 21.1934L45.2274 21.3558L45.704 22.5061Z" fill="#5FA17B"/>
    <path fill-rule="evenodd" clip-rule="evenodd" d="M45.2354 25.004L44.4765 25.9892L43.2462 25.8268L42.7696 24.6791L43.5258 23.6938L44.7587 23.8563L45.2354 25.004Z" fill="#5FA17B"/>
    <path fill-rule="evenodd" clip-rule="evenodd" d="M47.6053 24.3223L46.8517 25.3076L45.6188 25.1451L45.1448 23.9975L45.8984 23.0122L47.1313 23.172L47.6053 24.3223Z" fill="#5FA17B"/>
    <path fill-rule="evenodd" clip-rule="evenodd" d="M28.2704 37.125L27.8604 38.065L26.8432 38.1795L26.2307 37.3567L26.6408 36.4167L27.6607 36.2969L28.2704 37.125Z" fill="#5FA17B"/>
    <path fill-rule="evenodd" clip-rule="evenodd" d="M27.3545 22.9109L26.7607 24.277L25.2802 24.4447L24.3988 23.2491L24.9926 21.8831L26.4705 21.7153L27.3545 22.9109Z" fill="#5FA17B"/>
    <path fill-rule="evenodd" clip-rule="evenodd" d="M30.1611 38.2034L29.751 39.1434L28.7311 39.2632L28.124 38.4351L28.5314 37.4951L29.5513 37.3779L30.1611 38.2034Z" fill="#5FA17B"/>
    <path fill-rule="evenodd" clip-rule="evenodd" d="M38.3493 22.3009L36.299 20.3251L36.9806 17.5558L39.726 16.7676L41.7764 18.7434L41.0894 21.5074L38.3493 22.3009Z" fill="#5FA17B"/>
    <path fill-rule="evenodd" clip-rule="evenodd" d="M33.1967 18.6131L31.884 17.3483L32.318 15.5775L34.0781 15.0742L35.3882 16.3364L34.9489 18.1045L33.1967 18.6131Z" fill="#5FA17B"/>
    <path fill-rule="evenodd" clip-rule="evenodd" d="M48.3509 23.1241L46.8677 21.6942L47.3603 19.6997L49.3414 19.1299L50.822 20.5518L50.3267 22.5516L48.3509 23.1241Z" fill="#5FA17B"/>
    <path fill-rule="evenodd" clip-rule="evenodd" d="M42.7696 20.8791L41.9628 20.0989L42.2344 19.0098L43.3128 18.6982L44.1223 19.4758L43.8534 20.5675L42.7696 20.8791Z" fill="#5FA17B"/>
    <path fill-rule="evenodd" clip-rule="evenodd" d="M45.4724 20.6449L44.5111 19.7236L44.828 18.4268L46.1141 18.0566L47.0754 18.9833L46.7585 20.2801L45.4724 20.6449Z" fill="#5FA17B"/>
    <path fill-rule="evenodd" clip-rule="evenodd" d="M43.1184 17.9981L42.1785 17.0954L42.4927 15.8253L43.7469 15.4604L44.6868 16.3711L44.3726 17.636L43.1184 17.9981Z" fill="#5FA17B"/>
    <path fill-rule="evenodd" clip-rule="evenodd" d="M43.8587 37.4661L43.0731 36.7125L43.3394 35.6527L44.3859 35.3491L45.1714 36.1054L44.9078 37.1625L43.8587 37.4661Z" fill="#5FA17B"/>
    <path fill-rule="evenodd" clip-rule="evenodd" d="M36.5972 16.8714L35.761 16.0673L36.038 14.9436L37.1564 14.624L37.9845 15.4255L37.7076 16.5492L36.5972 16.8714Z" fill="#5FA17B"/>
    <path fill-rule="evenodd" clip-rule="evenodd" d="M39.6728 15.476L39.1828 15.0047L39.3479 14.347L40.0003 14.1553L40.4876 14.6266L40.3252 15.2843L39.6728 15.476Z" fill="#5FA17B"/>
    <path fill-rule="evenodd" clip-rule="evenodd" d="M40.2453 39.2609L39.1668 38.225L39.5236 36.7738L40.9616 36.3584L42.0373 37.3942L41.6779 38.8455L40.2453 39.2609Z" fill="#5FA17B"/>
    <path fill-rule="evenodd" clip-rule="evenodd" d="M53.0428 34.5022L53.2372 35.5115L52.4623 36.1851L51.4903 35.8496L51.296 34.8431L52.0735 34.1641L53.0428 34.5022Z" fill="#5FA17B"/>
    <path fill-rule="evenodd" clip-rule="evenodd" d="M47.0141 37.8045L47.2111 38.8084L46.4336 39.4847L45.4643 39.1492L45.2673 38.1427L46.0475 37.4663L47.0141 37.8045Z" fill="#5FA17B"/>
    <path d="M40.2266 39.5669H37.649V43.3002H40.2266V39.5669Z" fill="#5FA17B"/>
    <path d="M15.6833 43.0073H61.5638C62.115 43.0073 52.4436 56.7448 38.762 56.7448C25.0804 56.7448 15.6833 43.0073 15.6833 43.0073Z" fill="#5FA17B"/>
    <path d="M13.9818 11.6948C13.9818 11.6948 9.84376 6.42777 16.349 3.02734C16.349 3.02734 17.3716 10.0545 13.9818 11.6948Z" fill="#5FA17B"/>
    <path d="M23.0886 11.7164C23.0886 11.7164 16.5593 8.92576 14.1069 11.783C14.1069 11.783 18.1357 17.1326 23.0886 11.7164Z" fill="#5FA17B"/>
    <path d="M8.12621 19.5665C8.12621 19.5665 2.63014 15.7373 7.85993 10.5874C7.85993 10.5874 10.8876 17.0101 8.12621 19.5665Z" fill="#5FA17B"/>
    <path d="M16.8417 16.9273C16.8417 16.9273 9.7825 16.1684 8.27002 19.6168C8.27002 19.6168 13.6862 23.5551 16.8417 16.9273Z" fill="#5FA17B"/>
    <path d="M5.36489 28.9369C5.36489 28.9369 -1.08447 27.1235 2.1695 20.541C2.16684 20.533 7.14366 25.6137 5.36489 28.9369Z" fill="#5FA17B"/>
    <path d="M12.7356 23.582C12.7356 23.582 5.81228 25.1797 5.52203 28.9343C5.52203 28.9343 11.9315 30.8782 12.7356 23.582Z" fill="#5FA17B"/>
    <path d="M5.74567 39.1302C5.74567 39.1302 -0.946009 39.3965 0.113796 32.1323C0.113796 32.1323 6.40339 35.4236 5.74567 39.1302Z" fill="#5FA17B"/>
    <path d="M11.1006 31.7622C11.1006 31.7622 5.01337 35.4183 5.8921 39.0796C5.8921 39.0796 12.5891 38.9492 11.1006 31.7622Z" fill="#5FA17B"/>
    <path d="M8.80255 48.6605C8.80255 48.6605 2.51295 50.9639 1.29871 43.7236C1.29871 43.7236 8.29395 44.9299 8.80255 48.6605Z" fill="#5FA17B"/>
    <path d="M11.6465 40.0088C11.6465 40.0088 6.9706 45.3531 8.92512 48.5698C8.92512 48.5698 15.2626 46.3969 11.6465 40.0088Z" fill="#5FA17B"/>
    <path d="M15.4571 55.3178C15.4571 55.3178 10.7226 60.0576 6.56854 54.005C6.56854 54.005 13.4227 52.149 15.4571 55.3178Z" fill="#5FA17B"/>
    <path d="M14.3838 46.272C14.3838 46.272 12.4 53.0915 15.5288 55.1845C15.5288 55.1845 20.3565 50.5405 14.3838 46.272Z" fill="#5FA17B"/>
    <path d="M23.8102 60.8644C23.8102 60.8644 21.885 67.2765 15.3611 63.916C15.3611 63.916 20.5163 59.035 23.8102 60.8644Z" fill="#5FA17B"/>
    <path d="M18.5938 53.4028C18.5938 53.4028 20.0743 60.3475 23.8209 60.7096C23.8209 60.7096 25.8766 54.3348 18.5938 53.4028Z" fill="#5FA17B"/>
    <path d="M32.105 62.952C32.105 62.952 31.7987 69.641 24.649 67.9661C24.6517 67.9661 28.4675 61.9774 32.105 62.952Z" fill="#5FA17B"/>
    <path d="M25.2242 56.987C25.2242 56.987 28.3477 63.3618 32.0704 62.8026C32.0704 62.8026 32.5151 56.1216 25.2242 56.987Z" fill="#5FA17B"/>
    <path d="M18.6337 7.98849C18.6337 7.98849 17.5686 1.59771 33.7053 1.42277e-05C33.7053 -0.0132999 26.2361 9.32257 18.6337 7.98849Z" fill="#5FA17B"/>
    <path d="M63.2867 11.6948C63.2867 11.6948 67.4274 6.41978 60.9328 3.02734C60.9328 3.02734 59.8996 10.0545 63.2867 11.6948Z" fill="#5FA17B"/>
    <path d="M54.1825 11.7164C54.1825 11.7164 60.7117 8.92576 63.1642 11.783C63.1642 11.783 59.1327 17.1326 54.1825 11.7164Z" fill="#5FA17B"/>
    <path d="M69.1449 19.5665C69.1449 19.5665 74.641 15.7373 69.4112 10.5874C69.4112 10.5874 66.3836 17.0101 69.1449 19.5665Z" fill="#5FA17B"/>
    <path d="M60.4294 16.9273C60.4294 16.9273 67.4886 16.1684 69.0011 19.6168C69.0011 19.6168 63.5849 23.5551 60.4294 16.9273Z" fill="#5FA17B"/>
    <path d="M71.9063 28.9369C71.9063 28.9369 78.353 27.1235 75.1016 20.541C75.1043 20.533 70.1355 25.6137 71.9063 28.9369Z" fill="#5FA17B"/>
    <path d="M64.5381 23.582C64.5381 23.582 71.4615 25.1797 71.7544 28.9343C71.7544 28.9343 65.3423 30.8782 64.5381 23.582Z" fill="#5FA17B"/>
    <path d="M71.5228 39.1302C71.5228 39.1302 78.2145 39.3965 77.1573 32.1323C77.1573 32.1323 70.8651 35.4236 71.5228 39.1302Z" fill="#5FA17B"/>
    <path d="M66.1678 31.7622C66.1678 31.7622 72.2551 35.4183 71.379 39.0796C71.379 39.0796 64.682 38.9492 66.1678 31.7622Z" fill="#5FA17B"/>
    <path d="M68.4684 48.6605C68.4684 48.6605 74.758 50.9639 75.9723 43.7236C75.9723 43.7236 68.9744 44.9299 68.4684 48.6605Z" fill="#5FA17B"/>
    <path d="M65.6245 40.0088C65.6245 40.0088 70.2978 45.3531 68.3433 48.5698C68.3433 48.5698 62.0084 46.3969 65.6245 40.0088Z" fill="#5FA17B"/>
    <path d="M61.8141 55.3178C61.8141 55.3178 66.5459 60.0576 70.6999 54.005C70.6999 54.005 63.8618 52.149 61.8141 55.3178Z" fill="#5FA17B"/>
    <path d="M62.8845 46.272C62.8845 46.272 64.8683 53.0915 61.7395 55.1845C61.7395 55.1845 56.9118 50.5405 62.8845 46.272Z" fill="#5FA17B"/>
    <path d="M53.4608 60.8644C53.4608 60.8644 55.386 67.2765 61.91 63.916C61.91 63.916 56.7521 59.035 53.4608 60.8644Z" fill="#5FA17B"/>
    <path d="M58.6853 53.4028C58.6853 53.4028 57.2047 60.3475 53.4581 60.7096C53.4581 60.7096 51.4051 54.3348 58.6853 53.4028Z" fill="#5FA17B"/>
    <path d="M45.1635 62.952C45.1635 62.952 45.4723 69.641 52.6194 67.9661C52.6194 67.9661 48.8009 61.9774 45.1635 62.952Z" fill="#5FA17B"/>
    <path d="M52.0442 56.987C52.0442 56.987 48.9234 63.3618 45.2008 62.8026C45.2008 62.8026 44.7561 56.1216 52.0442 56.987Z" fill="#5FA17B"/>
    <path d="M58.6347 7.98849C58.6347 7.98849 59.6999 1.59771 43.5658 1.42277e-05C43.5658 -0.0132999 51.035 9.32257 58.6347 7.98849Z" fill="#5FA17B"/>
    <path fill-rule="evenodd" clip-rule="evenodd" d="M42.4155 63.6254C42.4155 64.3733 42.1937 65.1044 41.7782 65.7262C41.3627 66.348 40.7722 66.8326 40.0812 67.1188C39.3903 67.405 38.63 67.4799 37.8966 67.334C37.1631 67.1881 36.4893 66.828 35.9605 66.2992C35.4317 65.7704 35.0716 65.0966 34.9257 64.3631C34.7798 63.6296 34.8547 62.8694 35.1409 62.1784C35.427 61.4875 35.9117 60.897 36.5335 60.4815C37.1553 60.066 37.8864 59.8442 38.6342 59.8442C39.6371 59.8442 40.5988 60.2426 41.308 60.9517C42.0171 61.6608 42.4155 62.6226 42.4155 63.6254Z" fill="#5FA17B"/>
</svg>
