<svg xmlns="http://www.w3.org/2000/svg" display="none">

    <symbol id="messenger1" viewBox="0 0 28 28">
        <path d="M16.7 16.7C14.5 18.97 14.34 21.8 14.15 28C19.93 28 23.92 27.98 25.98 25.98C27.98 23.92 28 19.74 28 14.15C21.8 14.35 18.97 14.5 16.7 16.7ZM0 14.15C0 19.74 0.02 23.92 2.02 25.98C4.08 27.98 8.07 28 13.85 28C13.65 21.8 13.5 18.97 11.3 16.7C9.03 14.5 6.2 14.34 0 14.15ZM13.85 0C8.08 0 4.08 0.02 2.02 2.02C0.02 4.08 0 8.26 0 13.85C6.2 13.65 9.03 13.5 11.3 11.3C13.5 9.03 13.66 6.2 13.85 0ZM16.7 11.3C14.5 9.03 14.34 6.2 14.15 0C19.93 0 23.92 0.02 25.98 2.02C27.98 4.08 28 8.26 28 13.85C21.8 13.65 18.97 13.5 16.7 11.3Z"/>
    </symbol>

    <symbol id="vk" viewBox="0 0 25 25">
        <path d="M16.3412 0H8.67188C1.66664 0 0 1.66664 0 8.65882V16.3281C0 23.3333 1.65368 25 8.65882 25H16.3281C23.3334 25 25 23.3463 25 16.3411V8.67188C25 1.66664 23.3463 0 16.3412 0ZM20.1823 17.8385H18.3594C17.6693 17.8385 17.4609 17.2786 16.224 16.0416C15.1432 15 14.6875 14.8698 14.4141 14.8698C14.0365 14.8698 13.9323 14.9739 13.9323 15.4948V17.1354C13.9323 17.5781 13.7891 17.8385 12.6302 17.8385C11.5057 17.763 10.4152 17.4213 9.4486 16.8418C8.48196 16.2623 7.66682 15.4614 7.07031 14.5052C5.65419 12.7425 4.66888 10.6738 4.19274 8.46351C4.19274 8.19007 4.29688 7.94266 4.81774 7.94266H6.64062C7.10938 7.94266 7.27867 8.15101 7.46094 8.63281C8.34632 11.2369 9.8568 13.5026 10.4688 13.5026C10.7031 13.5026 10.8073 13.3984 10.8073 12.8125V10.1302C10.7291 8.90625 10.0781 8.80204 10.0781 8.35938C10.0867 8.24259 10.1404 8.13373 10.228 8.05593C10.3155 7.97813 10.4299 7.9375 10.5469 7.94266H13.4115C13.8021 7.94266 13.9323 8.13797 13.9323 8.60672V12.2266C13.9323 12.6172 14.1016 12.7473 14.2187 12.7473C14.4531 12.7473 14.6354 12.6172 15.0651 12.1875C15.9884 11.0615 16.7429 9.80698 17.3047 8.46351C17.362 8.30186 17.4707 8.16342 17.6142 8.06937C17.7576 7.97531 17.9279 7.93081 18.099 7.94266H19.9219C20.4688 7.94266 20.5859 8.2161 20.4688 8.60672C19.8055 10.0921 18.9848 11.5021 18.0209 12.8125C17.8256 13.1119 17.7474 13.2682 18.0209 13.6198C18.2031 13.8932 18.8412 14.427 19.2709 14.9348C19.8958 15.5583 20.4148 16.2796 20.8073 17.0703C20.9635 17.5781 20.7031 17.8385 20.1823 17.8385Z"/>
    </symbol>

    <symbol id="youtube" viewBox="0 0 30 22">
        <path d="M29.9931 7.75349C30.0605 5.7178 29.6339 3.69734 28.753 1.87972C28.1553 1.13391 27.3258 0.630603 26.409 0.457504C22.6171 0.0984297 18.8095 -0.0487431 15.0026 0.0166162C11.2095 -0.0517096 7.41558 0.0907141 3.637 0.443282C2.88995 0.585101 2.19861 0.95079 1.64735 1.49572C0.420847 2.67617 0.284569 4.69572 0.148292 6.40238C-0.0494306 9.47091 -0.0494306 12.5498 0.148292 15.6184C0.187717 16.5789 0.324763 17.5324 0.557125 18.4628C0.721441 19.1811 1.05389 19.8457 1.5247 20.397C2.07971 20.9708 2.78715 21.3573 3.55523 21.5064C6.49326 21.8848 9.45362 22.0417 12.4133 21.9757C17.183 22.0468 21.3667 21.9757 26.3136 21.5775C27.1005 21.4376 27.8279 21.0506 28.3986 20.4681C28.7802 20.0698 29.0652 19.5822 29.2299 19.0459C29.7173 17.4852 29.9567 15.8518 29.9386 14.2104C29.9931 13.4139 29.9931 8.60682 29.9931 7.75349ZM11.9227 15.0637V6.26016L19.9903 10.6833C17.7281 11.9917 14.7436 13.4708 11.9227 15.0637Z"/>
    </symbol>

    <symbol id="telegram" viewBox="0 0 30 26">
        <path d="M11.7718 17.1357L11.2755 24.3949C11.9855 24.3949 12.293 24.0777 12.6618 23.6968L15.9906 20.3883L22.8883 25.6416C24.1533 26.3748 25.0446 25.9887 25.3858 24.4313L29.9134 2.36782L29.9147 2.36651C30.316 0.421725 29.2384 -0.338771 28.0059 0.138326L1.39276 10.7346C-0.423538 11.4678 -0.396037 12.5208 1.084 12.9979L7.88791 15.1987L23.692 4.9145C24.4358 4.4023 25.1121 4.6857 24.5558 5.1979L11.7718 17.1357Z"/>
    </symbol>

    <symbol id="arrow-right" viewBox="0 0 11 18">
        <path d="M9 9L9.70711 8.29289L10.4142 9L9.70711 9.70711L9 9ZM0.292893 16.2929L8.29289 8.29289L9.70711 9.70711L1.70711 17.7071L0.292893 16.2929ZM8.29289 9.70711L0.292893 1.70711L1.70711 0.292893L9.70711 8.29289L8.29289 9.70711Z"/>
    </symbol>

    <symbol id="arrow-left" viewBox="0 0 11 18">
        <path d="M2 9L1.29289 8.29289L0.585786 9L1.29289 9.70711L2 9ZM10.7071 16.2929L2.70711 8.29289L1.29289 9.70711L9.29289 17.7071L10.7071 16.2929ZM2.70711 9.70711L10.7071 1.70711L9.29289 0.292893L1.29289 8.29289L2.70711 9.70711Z"/>
    </symbol>

</svg>